<svg width="48" height="48" xmlns="http://www.w3.org/2000/svg" xmlns:xlink="http://www.w3.org/1999/xlink" xml:space="preserve" overflow="hidden"><g transform="translate(-1161 -547)"><path d="M1169 588 1169 592 1170 593 1200 593 1201 592 1201 588 1200.82 587.42 1189.22 571 1200.82 554.58 1201 554 1201 550 1200 549 1170 549 1169 550 1169 554 1169.18 554.58 1180.78 571 1169.18 587.42ZM1171 588.32 1182.82 571.58 1182.82 570.42 1171 553.68 1171 551 1199 551 1199 553.68 1187.18 570.42 1187.18 571.58 1199 588.32 1199 591 1171 591Z"/><path d="M1184.17 574.45 1176.17 586.45 1177 588 1193 588 1193.83 586.45 1185.83 574.45ZM1178.87 586 1185 576.8 1191.13 586Z"/><path d="M1185.83 568.55 1189.83 562.55 1189 561 1181 561 1180.17 562.55 1184.17 568.55ZM1187.13 563 1185 566.2 1182.87 563Z"/></g></svg>