<svg width="48" height="48" xmlns="http://www.w3.org/2000/svg" xmlns:xlink="http://www.w3.org/1999/xlink" xml:space="preserve" overflow="hidden"><g transform="translate(-1161 -389)"><path d="M1163 408 1207 408 1207 410 1163 410Z" fill="#010101"/><path d="M1184 413 1186 413 1186 415 1184 415Z" fill="#010101"/><path d="M1190 416 1192 416 1192 418 1190 418Z" fill="#010101"/><path d="M1192 421 1194 421 1194 423 1192 423Z" fill="#010101"/><path d="M1178 416 1180 416 1180 418 1178 418Z" fill="#010101"/><path d="M1176 421 1178 421 1178 423 1176 423Z" fill="#010101"/><path d="M1178 426 1180 426 1180 428 1178 428Z" fill="#010101"/><path d="M1184 429 1186 429 1186 431 1184 431Z" fill="#010101"/><path d="M1185 426C1182.79 426 1181 424.21 1181 422 1181 419.79 1182.79 418 1185 418 1187.21 418 1189 419.79 1189 422 1189 424.21 1187.21 426 1185 426ZM1185 420C1183.9 420 1183 420.9 1183 422 1183 423.1 1183.9 424 1185 424 1186.1 424 1187 423.1 1187 422 1187 420.9 1186.1 420 1185 420Z" fill="#010101"/><path d="M1185 404C1182.79 404 1181 402.21 1181 400 1181 397.79 1182.79 396 1185 396 1187.21 396 1189 397.79 1189 400 1189 402.21 1187.21 404 1185 404ZM1185 398C1183.9 398 1183 398.9 1183 400 1183 401.1 1183.9 402 1185 402 1186.1 402 1187 401.1 1187 400 1187 398.9 1186.1 398 1185 398Z" fill="#010101"/><path d="M1185 435C1177.83 435 1172 429.17 1172 422 1172 414.83 1177.83 409 1185 409 1192.17 409 1198 414.83 1198 422 1198 429.17 1192.17 435 1185 435ZM1185 411C1178.93 411 1174 415.93 1174 422 1174 428.07 1178.93 433 1185 433 1191.07 433 1196 428.07 1196 422 1196 415.93 1191.07 411 1185 411Z" fill="#010101"/><path d="M1185 409C1180.04 409 1176 404.96 1176 400 1176 395.04 1180.04 391 1185 391 1189.96 391 1194 395.04 1194 400 1194 404.96 1189.96 409 1185 409ZM1185 393C1181.14 393 1178 396.14 1178 400 1178 403.86 1181.14 407 1185 407 1188.86 407 1192 403.86 1192 400 1192 396.14 1188.86 393 1185 393Z" fill="#010101"/><path d="M1190 426 1192 426 1192 428 1190 428Z" fill="#010101"/></g></svg>