<svg width="48" height="48" xmlns="http://www.w3.org/2000/svg" xmlns:xlink="http://www.w3.org/1999/xlink" xml:space="preserve" overflow="hidden"><g transform="translate(-846 -244)"><path d="M848 269 872 269 872 267 848 267"/><path d="M880.1 268 879.1 268C879.1 269.7 877.7 271.1 876 271.1 874.3 271.1 872.9 269.7 872.9 268 872.9 266.3 874.3 264.9 876 264.9 877.7 264.9 879.1 266.3 879.1 268L880.1 268 881.1 268C881.1 265.2 878.8 262.9 876 262.9 873.2 262.9 870.9 265.2 870.9 268 870.9 270.8 873.2 273.1 876 273.1 878.8 273.1 881.1 270.8 881.1 268L880.1 268Z"/><path d="M877 264 877 248 875 248 875 264"/><path d="M877 288 877 272 875 272 875 288"/><path d="M872.3 270.3 862.3 280.3 863.7 281.7 873.7 271.7"/><path d="M888.3 254.3 878.3 264.3 879.7 265.7 889.7 255.7"/><path d="M878.3 271.7 888.3 281.7 889.7 280.3 879.7 270.3"/><path d="M862.3 255.7 872.3 265.7 873.7 264.3 863.7 254.3"/><path d="M880 269 892 269 892 267 880 267"/></g></svg>