<svg width="48" height="47" xmlns="http://www.w3.org/2000/svg" xmlns:xlink="http://www.w3.org/1999/xlink" xml:space="preserve" overflow="hidden"><g transform="translate(-580 -328)"><path d="M16.4794 26.9858 14.854 25.8892 15.6667 26.4375 14.854 25.8892C14.854 25.8892 16.6458 23.1671 16.6458 19.5833 16.6458 17.8698 15.7548 16.3227 14.8148 14.6875 13.7867 12.9054 12.7292 11.0548 12.7292 8.8125 12.7292 4.49438 14.8931 2.33042 14.9813 2.24229L16.3521 3.6425C16.2933 3.70125 14.6875 5.36583 14.6875 8.82229 14.6875 10.5358 15.5785 12.0829 16.5185 13.7181 17.5467 15.5002 18.6042 17.3508 18.6042 19.5931 18.6042 23.8035 16.5675 26.8683 16.4794 26.9956Z" transform="matrix(1.02128 0 0 1 580 328)"/><path d="M24.3127 26.9858 22.6873 25.8892 23.5 26.4375 22.6873 25.8892C22.6873 25.8892 24.4792 23.1671 24.4792 19.5833 24.4792 17.8698 23.5881 16.3227 22.6481 14.6875 21.62 12.9054 20.5625 11.0548 20.5625 8.8125 20.5625 4.49438 22.7265 2.33042 22.8146 2.24229L24.1854 3.6425C24.1267 3.70125 22.5208 5.36583 22.5208 8.82229 22.5208 10.5358 23.4119 12.0829 24.3519 13.7181 25.38 15.5002 26.4375 17.3508 26.4375 19.5931 26.4375 23.8035 24.4008 26.8683 24.3127 26.9956Z" transform="matrix(1.02128 0 0 1 580 328)"/><path d="M32.146 26.9858 30.5206 25.8892 31.3333 26.4375 30.5206 25.8892C30.5206 25.8892 32.3125 23.1671 32.3125 19.5833 32.3125 17.8698 31.4215 16.3227 30.4815 14.6875 29.4533 12.9054 28.3958 11.0548 28.3958 8.8125 28.3958 4.49438 30.5598 2.33042 30.6479 2.24229L32.0188 3.6425C31.96 3.70125 30.3542 5.36583 30.3542 8.82229 30.3542 10.5358 31.2452 12.0829 32.1852 13.7181 33.2133 15.5002 34.2708 17.3508 34.2708 19.5931 34.2708 23.8035 32.2342 26.8683 32.146 26.9956Z" transform="matrix(1.02128 0 0 1 580 328)"/><path d="M24.9441 39.1895 30.9009 39.1895 30.9009 41.1489 24.9441 41.1489Z" transform="matrix(0.167934 -0.985798 1.00677 0.164435 563.37 389.061)"/><path d="M23.5 30.3542 33.2917 44.0625" fill="#FFFFFF" transform="matrix(1.02128 0 0 1 580 328)"/><path d="M27.6097 28.9901 29.5818 28.9901 29.5818 45.9504 27.6097 45.9504Z" transform="matrix(0.825214 -0.577208 0.589489 0.808022 563.31 351.431)"/><path d="M10.2571 36.4914 27.2206 36.4914 27.2206 38.4639 10.2571 38.4639Z" transform="matrix(0.589372 -0.807862 0.82505 0.577093 557.03 358.716)"/><path d="M18.614 43.24 17.8013 38.3344 12.8858 39.1569 12.5725 37.2181 19.4071 36.0823 20.5527 42.9267 18.614 43.24Z" transform="matrix(1.02128 0 0 1 580 328)"/><path d="M7.83333 29.375 39.1667 29.375 39.1667 31.3333 7.83333 31.3333Z" transform="matrix(1.02128 0 0 1 580 328)"/><path d="M33.1455 29.643 35.1244 29.643 35.1244 36.6382 33.1455 36.6382Z" transform="matrix(0.714669 -0.69978 0.714669 0.69978 566.42 361.497)"/><path d="M9.85462 32.1561 16.8498 32.1561 16.8498 34.135 9.85462 34.135Z" transform="matrix(0.714669 -0.69978 0.714669 0.69978 560.27 346.957)"/><path d="M30.3718 34.7414 32.3313 34.7414 32.3313 40.6982 30.3718 40.6982Z" transform="matrix(0.167759 -0.985828 1.0068 0.164264 568.76 390.412)"/></g></svg>