<svg width="32" height="33" xmlns="http://www.w3.org/2000/svg" xmlns:xlink="http://www.w3.org/1999/xlink" xml:space="preserve" overflow="hidden"><g transform="translate(-324 -468)"><path d="M11.22 18.3733 10.1133 17.6267 10.6667 18 10.1133 17.6267C10.1133 17.6267 11.3333 15.7733 11.3333 13.3333 11.3333 12.1667 10.7267 11.1133 10.0867 10 9.38667 8.78667 8.66667 7.52667 8.66667 6 8.66667 3.06 10.14 1.58667 10.2 1.52667L11.1333 2.48C11.0933 2.52 10 3.65333 10 6.00667 10 7.17333 10.6067 8.22667 11.2467 9.34 11.9467 10.5533 12.6667 11.8133 12.6667 13.34 12.6667 16.2067 11.28 18.2933 11.22 18.38Z" transform="matrix(1 0 0 1.03125 324 468)"/><path d="M16.5533 18.3733 15.4467 17.6267 16 18 15.4467 17.6267C15.4467 17.6267 16.6667 15.7733 16.6667 13.3333 16.6667 12.1667 16.06 11.1133 15.42 10 14.72 8.78667 14 7.52667 14 6 14 3.06 15.4733 1.58667 15.5333 1.52667L16.4667 2.48C16.4267 2.52 15.3333 3.65333 15.3333 6.00667 15.3333 7.17333 15.94 8.22667 16.58 9.34 17.28 10.5533 18 11.8133 18 13.34 18 16.2067 16.6133 18.2933 16.5533 18.38Z" transform="matrix(1 0 0 1.03125 324 468)"/><path d="M21.8867 18.3733 20.78 17.6267 21.3333 18 20.78 17.6267C20.78 17.6267 22 15.7733 22 13.3333 22 12.1667 21.3933 11.1133 20.7533 10 20.0533 8.78667 19.3333 7.52667 19.3333 6 19.3333 3.06 20.8067 1.58667 20.8667 1.52667L21.8 2.48C21.76 2.52 20.6667 3.65333 20.6667 6.00667 20.6667 7.17333 21.2733 8.22667 21.9133 9.34 22.6133 10.5533 23.3333 11.8133 23.3333 13.34 23.3333 16.2067 21.9467 18.2933 21.8867 18.38Z" transform="matrix(1 0 0 1.03125 324 468)"/><path d="M16.9871 26.6882 21.0437 26.6882 21.0437 28.0227 16.9871 28.0227Z" transform="matrix(0.164398 -1.01637 0.985575 0.169535 312.913 510.872)"/><path d="M16 20.6667 22.6667 30" fill="#FFFFFF" transform="matrix(1 0 0 1.03125 324 468)"/><path d="M18.8658 19.8091 20.2133 19.8091 20.2133 31.398 18.8658 31.398Z" transform="matrix(0.805122 -0.593109 0.575136 0.830282 312.873 484.452)"/><path d="M7.00432 24.9192 18.5884 24.9192 18.5884 26.2662 7.00432 26.2662Z" transform="matrix(0.57538 -0.830634 0.805463 0.593361 308.687 489.567)"/><path d="M12.6733 29.44 12.12 26.1 8.77333 26.66 8.56 25.34 13.2133 24.5667 13.9933 29.2267 12.6733 29.44Z" transform="matrix(1 0 0 1.03125 324 468)"/><path d="M5.33333 20 26.6667 20 26.6667 21.3333 5.33333 21.3333Z" transform="matrix(1 0 0 1.03125 324 468)"/><path d="M22.6742 20.2782 24.0279 20.2782 24.0279 25.0635 22.6742 25.0635Z" transform="matrix(0.696475 -0.71824 0.696475 0.71824 314.947 491.519)"/><path d="M6.74136 21.9974 11.5266 21.9974 11.5266 23.3511 6.74136 23.3511Z" transform="matrix(0.696475 -0.71824 0.696475 0.71824 310.847 481.31)"/><path d="M20.6834 23.6591 22.0178 23.6591 22.0178 27.7157 20.6834 27.7157Z" transform="matrix(0.164226 -1.01641 0.985605 0.169358 316.507 511.821)"/></g></svg>