<svg width="120" height="123" xmlns="http://www.w3.org/2000/svg" xmlns:xlink="http://www.w3.org/1999/xlink" xml:space="preserve" overflow="hidden"><g transform="translate(-580 -1284)"><g><g><g><path d="M644.573 1318.23C641.915 1308.37 632.386 1301.08 621.854 1301.08 610.928 1301.08 601.422 1308.84 599.232 1319.66L598.991 1321.58 597.083 1321.58C589.548 1321.58 583.417 1327.71 583.417 1335.25 583.417 1342.79 589.548 1348.92 597.083 1348.92L643.208 1348.92C651.687 1348.92 658.583 1342.02 658.583 1333.54 658.583 1325.52 652.415 1318.92 644.573 1318.23ZM643.208 1345.5 597.083 1345.5C591.43 1345.5 586.833 1340.9 586.833 1335.25 586.833 1329.6 591.43 1325 597.083 1325L600.5 1325 602.195 1323.5 602.601 1320.21C604.45 1311.11 612.547 1304.5 621.854 1304.5 631.255 1304.5 639.715 1311.26 641.534 1320.21L643.208 1321.58C649.801 1321.58 655.167 1326.95 655.167 1333.54 655.167 1340.13 649.801 1345.5 643.208 1345.5Z"/></g></g></g><g><g><g><path d="M693.958 1359.43 689.118 1362.51 682.886 1329.81 681.208 1328.42 672.6 1328.42 670.919 1329.82 664.2 1367.14 660.725 1369.59 660.708 1360.87 658.021 1359.48 643.625 1369.55 643.625 1360.88 640.999 1359.43 622.208 1371.39 621.417 1372.83 621.417 1401.88 623.125 1403.58 694.875 1403.58 696.583 1401.88 696.583 1360.88 693.958 1359.43ZM674.028 1331.83 679.795 1331.83 686.016 1364.49 677.792 1369.72 677.792 1360.88 675.101 1359.48 668.175 1364.35 674.028 1331.83ZM693.167 1400.17 624.833 1400.17 624.833 1373.77 640.208 1363.99 640.208 1372.83 642.896 1374.23 657.298 1364.15 657.316 1372.87 660.006 1374.27 674.375 1364.16 674.375 1372.83 677.001 1374.28 693.167 1363.99 693.167 1400.17Z"/><path d="M631.667 1383.08 635.083 1383.08 635.083 1389.92 631.667 1389.92Z"/><path d="M640.208 1383.08 643.625 1383.08 643.625 1389.92 640.208 1389.92Z"/><path d="M648.75 1383.08 652.167 1383.08 652.167 1389.92 648.75 1389.92Z"/><path d="M657.292 1383.08 660.708 1383.08 660.708 1389.92 657.292 1389.92Z"/><path d="M665.833 1383.08 669.25 1383.08 669.25 1389.92 665.833 1389.92Z"/><path d="M674.375 1383.08 677.792 1383.08 677.792 1389.92 674.375 1389.92Z"/><path d="M682.917 1383.08 686.333 1383.08 686.333 1389.92 682.917 1389.92Z"/></g></g></g></g></svg>