<svg width="210" height="215" xmlns="http://www.w3.org/2000/svg" xmlns:xlink="http://www.w3.org/1999/xlink" xml:space="preserve" overflow="hidden"><g transform="translate(-1120 -1068)"><g><g><g><path d="M112.61 59.6876C107.974 42.4919 91.3561 29.7917 72.9896 29.7917 53.9348 29.7917 37.3587 43.326 33.5395 62.1931L33.1194 65.5417 29.7917 65.5417C16.6506 65.5417 5.95833 76.2339 5.95833 89.375 5.95833 102.516 16.6506 113.208 29.7917 113.208L110.229 113.208C125.015 113.208 137.042 101.181 137.042 86.3958 137.042 72.4146 126.284 60.8942 112.61 59.6876ZM110.229 107.25 29.7917 107.25C19.9336 107.25 11.9167 99.2331 11.9167 89.375 11.9167 79.5169 19.9336 71.5 29.7917 71.5L35.75 71.5 38.7053 68.8903 39.4144 63.1554C42.6378 47.2764 56.7591 35.75 72.9896 35.75 89.3839 35.75 104.137 47.5326 107.31 63.1554L110.229 65.5417C121.726 65.5417 131.083 74.8992 131.083 86.3958 131.083 97.8924 121.726 107.25 110.229 107.25Z" transform="matrix(1.00699 0 0 1 1120 1068)"/></g></g></g><g><g><g><path d="M132.463 60.0481 124.023 65.4195 113.155 8.3804 110.229 5.95833 95.2171 5.95833 92.2856 8.41019 80.5686 73.4931 74.509 77.7533 74.4792 62.5595 69.7929 60.1255 44.6875 77.6967 44.6875 62.5625 40.1085 60.0481 7.33769 80.9023 5.95833 83.4167 5.95833 134.062 8.9375 137.042 134.062 137.042 137.042 134.062 137.042 62.5625 132.463 60.0481ZM97.7077 11.9167 107.765 11.9167 118.613 68.8634 104.271 77.9886 104.271 62.5625 99.5786 60.1255 87.5011 68.6162 97.7077 11.9167ZM131.083 131.083 11.9167 131.083 11.9167 85.0522 38.7292 67.9905 38.7292 83.4167 43.4154 85.8566 68.5328 68.2765 68.5625 83.4852 73.2547 85.9162 98.3125 68.2974 98.3125 83.4167 102.891 85.9311 131.083 67.9905 131.083 131.083Z" transform="matrix(1 0 0 1.00699 1187 1139)"/><path d="M23.8333 101.292 29.7917 101.292 29.7917 113.208 23.8333 113.208Z" transform="matrix(1 0 0 1.00699 1187 1139)"/><path d="M38.7292 101.292 44.6875 101.292 44.6875 113.208 38.7292 113.208Z" transform="matrix(1 0 0 1.00699 1187 1139)"/><path d="M53.625 101.292 59.5833 101.292 59.5833 113.208 53.625 113.208Z" transform="matrix(1 0 0 1.00699 1187 1139)"/><path d="M68.5208 101.292 74.4792 101.292 74.4792 113.208 68.5208 113.208Z" transform="matrix(1 0 0 1.00699 1187 1139)"/><path d="M83.4167 101.292 89.375 101.292 89.375 113.208 83.4167 113.208Z" transform="matrix(1 0 0 1.00699 1187 1139)"/><path d="M98.3125 101.292 104.271 101.292 104.271 113.208 98.3125 113.208Z" transform="matrix(1 0 0 1.00699 1187 1139)"/><path d="M113.208 101.292 119.167 101.292 119.167 113.208 113.208 113.208Z" transform="matrix(1 0 0 1.00699 1187 1139)"/></g></g></g></g></svg>