<svg width="48" height="48" xmlns="http://www.w3.org/2000/svg" xmlns:xlink="http://www.w3.org/1999/xlink" xml:space="preserve" overflow="hidden"><g transform="translate(-1003 -244)"><path d="M1014.2 251.6 1017.9 257.1C1018 257.3 1018.1 257.4 1018.1 257.6 1018.1 257.8 1018.1 257.9 1017.9 258.1L1014.9 262.5C1014.6 263 1014.4 263.5 1014.4 264.1 1014.4 264.7 1014.6 265.2 1014.9 265.7L1017.9 270.1C1018 270.3 1018.1 270.4 1018.1 270.6 1018.1 270.8 1018.1 270.9 1017.9 271.1L1014.2 276.6 1015.9 277.7 1019.6 272.2C1019.9 271.7 1020.1 271.2 1020.1 270.6 1020.1 270 1019.9 269.5 1019.6 269L1016.6 264.6C1016.5 264.4 1016.4 264.3 1016.4 264.1 1016.4 263.9 1016.4 263.8 1016.6 263.6L1019.6 259.2C1019.9 258.7 1020.1 258.2 1020.1 257.6 1020.1 257 1019.9 256.5 1019.6 256L1015.9 250.5 1014.2 251.6 1014.2 251.6Z" fill="#020203"/><path d="M1034.2 251.6 1037.9 257.1C1038 257.3 1038.1 257.4 1038.1 257.6 1038.1 257.8 1038.1 257.9 1037.9 258.1L1034.9 262.5C1034.6 263 1034.4 263.5 1034.4 264.1 1034.4 264.7 1034.6 265.2 1034.9 265.7L1037.9 270.1C1038 270.3 1038.1 270.4 1038.1 270.6 1038.1 270.8 1038.1 270.9 1037.9 271.1L1034.2 276.6 1035.9 277.7 1039.6 272.2C1039.9 271.7 1040.1 271.2 1040.1 270.6 1040.1 270 1039.9 269.5 1039.6 269L1036.6 264.6C1036.5 264.4 1036.4 264.3 1036.4 264.1 1036.4 263.9 1036.4 263.8 1036.6 263.6L1039.6 259.2C1039.9 258.7 1040.1 258.2 1040.1 257.6 1040.1 257 1039.9 256.5 1039.6 256L1035.9 250.5 1034.2 251.6 1034.2 251.6Z" fill="#020203"/><path d="M1024.2 251.6 1027.9 257.1C1028 257.3 1028.1 257.4 1028.1 257.6 1028.1 257.8 1028.1 257.9 1027.9 258.1L1024.9 262.5C1024.6 263 1024.4 263.5 1024.4 264.1 1024.4 264.7 1024.6 265.2 1024.9 265.7L1027.9 270.1C1028 270.3 1028.1 270.4 1028.1 270.6 1028.1 270.8 1028.1 270.9 1027.9 271.1L1024.2 276.6 1025.9 277.7 1029.6 272.2C1029.9 271.7 1030.1 271.2 1030.1 270.6 1030.1 270 1029.9 269.5 1029.6 269L1026.6 264.6C1026.5 264.4 1026.4 264.3 1026.4 264.1 1026.4 263.9 1026.4 263.8 1026.6 263.6L1029.6 259.2C1029.9 258.7 1030.1 258.2 1030.1 257.6 1030.1 257 1029.9 256.5 1029.6 256L1025.9 250.5 1024.2 251.6 1024.2 251.6Z" fill="#020203"/><path d="M1006 285 1006 286 1048 286 1049 285 1049 281 1048 280 1006 280 1005 281 1005 285 1006 286 1006 285 1007 285 1007 282 1047 282 1047 284 1006 284 1006 285 1007 285Z" fill="#020203"/></g></svg>