<svg width="48" height="48" xmlns="http://www.w3.org/2000/svg" xmlns:xlink="http://www.w3.org/1999/xlink" xml:space="preserve" overflow="hidden"><g transform="translate(-1003 -547)"><path d="M1019 578.987 1013.01 578.987 1012.01 577.988 1012.01 565.001 1013.01 564.002 1019 564.002 1020 565.001 1020 577.988 1019 578.987ZM1014.01 576.989 1018 576.989 1018 566 1014.01 566 1014.01 576.989Z"/><path d="M1040.98 578.987 1034.99 578.987 1033.99 577.988 1033.99 565.001 1034.99 564.002 1040.98 564.002 1041.98 565.001 1041.98 577.988 1040.98 578.987ZM1035.99 576.989 1039.98 576.989 1039.98 566 1035.99 566 1035.99 576.989Z"/><path d="M1024.65 560.776 1023.36 559.247 1027.23 556.011 1024 556.011 1023.36 554.252 1029.35 549.258 1030.64 550.786 1026.77 554.013 1029.99 554.013 1030.64 555.781 1024.65 560.776Z"/><path d="M1045.98 592.972 1008.01 592.972 1007.02 591.973 1007.02 568.997 1008.01 567.998 1013.01 567.998 1013.01 569.996 1009.01 569.996 1009.01 590.974 1044.98 590.974 1044.98 569.996 1040.98 569.996 1040.98 567.998 1045.98 567.998 1046.97 568.997 1046.97 591.973 1045.98 592.972Z"/><path d="M1033.99 583.982 1041.98 583.982 1041.98 585.979 1033.99 585.979Z"/><path d="M1012.01 583.982 1020 583.982 1020 585.979 1012.01 585.979Z"/><path d="M1036.98 580.985 1038.98 580.985 1038.98 588.976 1036.98 588.976Z"/><path d="M1018 567.998 1033.99 567.998 1033.99 569.996 1018 569.996Z"/><path d="M1017.01 565.001 1015.01 565.001 1015.01 555.012 1016.01 554.013 1021 554.013 1021 556.011 1017.01 556.011 1017.01 565.001Z"/><path d="M1038.98 565.001 1036.98 565.001 1036.98 556.011 1032.99 556.011 1032.99 554.013 1037.98 554.013 1038.98 555.012 1038.98 565.001Z"/></g></svg>