<svg width="56" height="48" xmlns="http://www.w3.org/2000/svg" xmlns:xlink="http://www.w3.org/1999/xlink" xml:space="preserve" overflow="hidden"><g transform="translate(-523 -328)"><path d="M29.99 12 33.99 12 33.99 16 35.99 16 35.99 12 39.728 12 40.208 10.123 25.609 2.123 25.129 2 22.883 2 22.403 2.123 7.804 10.123 8.284 12 11.991 12 11.991 16 13.991 16 13.991 12 17.991 12 17.991 18.541 7.803 24.123 8.284 26 11.991 26 11.991 30 13.991 30 13.991 26 17.49 26 8.965 44.583 9.874 46 12.153 46 12.732 45.815 23.99 37.827 35.248 45.815 35.827 46 38.106 46 39.015 44.583 30.491 26 33.99 26 33.99 30 35.99 30 35.99 26 39.728 26 40.208 24.123 29.99 18.524 29.99 12ZM29.99 10 29.99 6.804 35.822 10 29.99 10ZM23.139 4 24.873 4 27.99 5.708 27.99 10 19.99 10 19.99 5.725 23.139 4ZM12.189 10 17.99 6.821 17.99 10 12.189 10ZM19.99 12 27.99 12 27.99 17.428 25.609 16.123 25.129 16 22.883 16 22.403 16.123 19.991 17.445 19.991 12ZM19.99 24 19.99 19.725 23.139 18 24.873 18 27.99 19.708 27.99 24 19.99 24ZM17.99 20.821 17.99 24 12.189 24 17.99 20.821ZM11.834 44 11.433 44 16.653 32.621 22.263 36.601 11.834 44ZM36.146 44 25.718 36.601 31.328 32.621 36.547 44 36.146 44ZM30.479 30.771 23.99 35.375 17.501 30.771 19.69 26 28.291 26 30.479 30.771ZM35.822 24 29.99 24 29.99 20.804 35.822 24Z" transform="matrix(1.16667 0 0 1 523 328)"/></g></svg>