<svg width="32" height="28" xmlns="http://www.w3.org/2000/svg" xmlns:xlink="http://www.w3.org/1999/xlink" xml:space="preserve" overflow="hidden"><g transform="translate(-640 -204)"><path d="M17.4942 7 19.8275 7 19.8275 9.33333 20.9942 9.33333 20.9942 7 23.1747 7 23.4547 5.90508 14.9386 1.23842 14.6586 1.16667 13.3484 1.16667 13.0684 1.23842 4.55233 5.90508 4.83233 7 6.99475 7 6.99475 9.33333 8.16142 9.33333 8.16142 7 10.4947 7 10.4947 10.8156 4.55175 14.0717 4.83233 15.1667 6.99475 15.1667 6.99475 17.5 8.16142 17.5 8.16142 15.1667 10.2025 15.1667 5.22958 26.0068 5.75983 26.8333 7.08925 26.8333 7.427 26.7254 13.9942 22.0657 20.5613 26.7254 20.8991 26.8333 22.2285 26.8333 22.7587 26.0068 17.7864 15.1667 19.8275 15.1667 19.8275 17.5 20.9942 17.5 20.9942 15.1667 23.1747 15.1667 23.4547 14.0717 17.4942 10.8057 17.4942 7ZM17.4942 5.83333 17.4942 3.969 20.8962 5.83333 17.4942 5.83333ZM13.4977 2.33333 14.5092 2.33333 16.3275 3.32967 16.3275 5.83333 11.6608 5.83333 11.6608 3.33958 13.4977 2.33333ZM7.11025 5.83333 10.4942 3.97892 10.4942 5.83333 7.11025 5.83333ZM11.6608 7 16.3275 7 16.3275 10.1663 14.9386 9.40508 14.6586 9.33333 13.3484 9.33333 13.0684 9.40508 11.6614 10.1762 11.6614 7ZM11.6608 14 11.6608 11.5062 13.4977 10.5 14.5092 10.5 16.3275 11.4963 16.3275 14 11.6608 14ZM10.4942 12.1456 10.4942 14 7.11025 14 10.4942 12.1456ZM6.90317 25.6667 6.66925 25.6667 9.71425 19.0289 12.9867 21.3506 6.90317 25.6667ZM21.0852 25.6667 15.0022 21.3506 18.2747 19.0289 21.3191 25.6667 21.0852 25.6667ZM17.7794 17.9497 13.9942 20.6354 10.2089 17.9497 11.4858 15.1667 16.5031 15.1667 17.7794 17.9497ZM20.8962 14 17.4942 14 17.4942 12.1357 20.8962 14Z" transform="matrix(1.14286 0 0 1 640 204)"/></g></svg>