<svg width="32" height="32" xmlns="http://www.w3.org/2000/svg" xmlns:xlink="http://www.w3.org/1999/xlink" xml:space="preserve" overflow="hidden"><g transform="translate(-552 -403)"><path d="M566.163 428.278 566.429 428.333 566.667 428.333 569.333 428.333 569.863 428.333 570.199 428.243C575.956 424.895 577.845 418.911 574.898 413.35 572.389 408.618 566.473 404.837 566.222 404.679L565.199 405.243C565.199 409.812 562.158 413.179 562.093 413.253 559.885 416.065 559.099 418.803 559.753 421.391 560.906 425.948 566.111 428.255 566.163 428.278ZM566.952 427C566.867 426.929 566.767 426.852 566.649 426.763 566.001 426.271 564.797 425.355 564.625 424.013 564.506 423.09 564.889 422.057 565.733 420.979 565.795 420.91 567.033 419.519 567.425 417.473 568.371 418.211 569.813 419.482 570.545 420.862 571.578 422.811 571.739 425.428 569.152 427L566.952 427ZM563.108 414.115C563.236 413.977 566.015 410.914 566.469 406.463 568.231 407.723 571.955 410.646 573.719 413.975 575.765 417.834 575.212 421.802 572.433 424.793 572.785 423.403 572.564 421.826 571.723 420.237 570.419 417.779 567.369 415.774 567.239 415.69L566.209 416.249C566.209 418.421 564.757 420.069 564.713 420.121 563.611 421.525 563.136 422.892 563.301 424.183 563.331 424.411 563.381 424.627 563.444 424.834 562.41 423.87 561.433 422.604 561.044 421.058 560.499 418.893 561.205 416.543 563.108 414.115Z"/><path d="M579.333 429.667 576 429.667 575.333 430.333 575.333 432.333 573.333 432.333 573.333 430.333 572.667 429.667 569.333 429.667 568.667 430.333 568.667 432.333 566.667 432.333 566.667 430.333 566 429.667 562.667 429.667 562 430.333 562 432.333 560 432.333 560 430.333 559.333 429.667 556 429.667 555.333 430.333 555.333 433.667 556.667 433.667 556.667 431 558.667 431 558.667 433 559.333 433.667 562.667 433.667 563.333 433 563.333 431 565.333 431 565.333 433 566 433.667 569.333 433.667 570 433 570 431 572 431 572 433 572.667 433.667 576 433.667 576.667 433 576.667 431 578.667 431 578.667 433.667 580 433.667 580 430.333Z"/></g></svg>