<svg width="48" height="48" xmlns="http://www.w3.org/2000/svg" xmlns:xlink="http://www.w3.org/1999/xlink" xml:space="preserve" overflow="hidden"><g transform="translate(-680 -326)"><path d="M701.245 363.917 701.644 364 702 364 706 364 706.795 364 707.298 363.864C715.934 358.843 718.767 349.867 714.347 341.525 710.584 334.427 701.709 328.756 701.333 328.519L699.798 329.364C699.798 336.218 695.237 341.268 695.14 341.379 691.828 345.598 690.648 349.705 691.629 353.586 693.359 360.422 701.167 363.883 701.245 363.917ZM702.428 362C702.3 361.893 702.15 361.778 701.973 361.644 701.002 360.906 699.195 359.532 698.937 357.519 698.759 356.135 699.333 354.586 700.6 352.969 700.693 352.865 702.55 350.779 703.137 347.709 704.557 348.816 706.719 350.723 707.817 352.793 709.367 355.717 709.608 359.642 705.728 362L702.428 362ZM696.662 342.673C696.854 342.465 701.023 337.871 701.704 331.195 704.346 333.084 709.933 337.469 712.579 342.462 715.647 348.251 714.818 354.203 710.649 358.689 711.178 356.604 710.846 354.239 709.584 351.856 707.629 348.168 703.053 345.161 702.859 345.035L701.313 345.873C701.313 349.132 699.135 351.604 699.07 351.681 697.417 353.788 696.704 355.838 696.952 357.774 696.996 358.116 697.071 358.44 697.166 358.751 695.615 357.305 694.15 355.406 693.566 353.087 692.748 349.84 693.807 346.315 696.662 342.673Z"/><path d="M721 366 716 366 715 367 715 370 712 370 712 367 711 366 706 366 705 367 705 370 702 370 702 367 701 366 696 366 695 367 695 370 692 370 692 367 691 366 686 366 685 367 685 372 687 372 687 368 690 368 690 371 691 372 696 372 697 371 697 368 700 368 700 371 701 372 706 372 707 371 707 368 710 368 710 371 711 372 716 372 717 371 717 368 720 368 720 372 722 372 722 367Z"/></g></svg>