<svg width="48" height="48" xmlns="http://www.w3.org/2000/svg" xmlns:xlink="http://www.w3.org/1999/xlink" xml:space="preserve" overflow="hidden"><g transform="translate(-467 -327)"><path d="M492 366C498.617 366 504 360.617 504 354 504 347.383 498.617 342 492 342 485.383 342 480 347.383 480 354 480 360.617 485.383 366 492 366ZM492 344C497.514 344 502 348.486 502 354 502 359.514 497.514 364 492 364 486.486 364 482 359.514 482 354 482 348.486 486.486 344 492 344Z"/><path d="M492 357C493.654 357 495 355.654 495 354 495 352.346 493.654 351 492 351 490.346 351 489 352.346 489 354 489 355.654 490.346 357 492 357ZM492 353C492.552 353 493 353.449 493 354 493 354.551 492.552 355 492 355 491.448 355 491 354.551 491 354 491 353.449 491.448 353 492 353Z"/><path d="M491 346 493 346 493 349 491 349Z"/><path d="M491 359 493 359 493 362 491 362Z"/><path d="M484 353 487 353 487 355 484 355Z"/><path d="M497 353 500 353 500 355 497 355Z"/><path d="M485.293 348.707 486.707 347.293 488.707 349.293 487.292 350.707Z"/><path d="M495.293 349.293 497.292 347.293 498.707 348.707 496.707 350.707Z"/><path d="M485.293 359.293 487.292 357.293 488.707 358.707 486.707 360.707Z"/><path d="M495.293 358.707 496.707 357.293 498.707 359.293 497.292 360.707Z"/><path d="M508 354C508 345.178 500.822 338 492 338 489.218 338 486.452 338.745 484.041 340.122L484.032 338 487 338 488 337 488 333 487 332 484.008 332 484 329.996 483 329 477 329 476 330 476 332 473 332 472 333 472 337 473 338 476 338 476 354C476 358.572 477.938 362.691 481.023 365.61L476.231 371.36 477 373 507 373 507.769 371.36 502.977 365.61C506.062 362.691 508 358.572 508 354ZM474 336 474 334 476 334 476 336 474 336ZM486 334 486 336 484.024 336 484.016 334 486 334ZM478 354 478 331 482.004 331 482.049 341.968 483.646 342.766C486.044 340.982 489.011 340 492 340 499.72 340 506 346.28 506 354 506 361.72 499.72 368 492 368 484.28 368 478 361.72 478 354ZM504.865 371 479.135 371 482.561 366.89C485.21 368.836 488.468 370 492 370 495.532 370 498.79 368.836 501.439 366.89L504.865 371Z"/></g></svg>