<svg width="35" height="34" xmlns="http://www.w3.org/2000/svg" xmlns:xlink="http://www.w3.org/1999/xlink" xml:space="preserve" overflow="hidden"><g transform="translate(-885 -104)"><path d="M17.7083 27.625C22.3954 27.625 26.2083 23.812 26.2083 19.125 26.2083 14.438 22.3954 10.625 17.7083 10.625 13.0213 10.625 9.20833 14.438 9.20833 19.125 9.20833 23.812 13.0213 27.625 17.7083 27.625ZM17.7083 12.0417C21.6141 12.0417 24.7917 15.2192 24.7917 19.125 24.7917 23.0307 21.6141 26.2083 17.7083 26.2083 13.8026 26.2083 10.625 23.0307 10.625 19.125 10.625 15.2192 13.8026 12.0417 17.7083 12.0417Z" transform="matrix(1.02941 0 0 1 885 104)"/><path d="M17.7083 21.25C18.8799 21.25 19.8333 20.2966 19.8333 19.125 19.8333 17.9534 18.8799 17 17.7083 17 16.5368 17 15.5833 17.9534 15.5833 19.125 15.5833 20.2966 16.5368 21.25 17.7083 21.25ZM17.7083 18.4167C18.0993 18.4167 18.4167 18.7347 18.4167 19.125 18.4167 19.5153 18.0993 19.8333 17.7083 19.8333 17.3173 19.8333 17 19.5153 17 19.125 17 18.7347 17.3173 18.4167 17.7083 18.4167Z" transform="matrix(1.02941 0 0 1 885 104)"/><path d="M17 13.4583 18.4167 13.4583 18.4167 15.5833 17 15.5833Z" transform="matrix(1.02941 0 0 1 885 104)"/><path d="M17 22.6667 18.4167 22.6667 18.4167 24.7917 17 24.7917Z" transform="matrix(1.02941 0 0 1 885 104)"/><path d="M12.0417 18.4167 14.1667 18.4167 14.1667 19.8333 12.0417 19.8333Z" transform="matrix(1.02941 0 0 1 885 104)"/><path d="M21.25 18.4167 23.375 18.4167 23.375 19.8333 21.25 19.8333Z" transform="matrix(1.02941 0 0 1 885 104)"/><path d="M13.6518 14.7914 15.0889 14.7914 15.0889 16.8233 13.6518 16.8233Z" transform="matrix(0.717581 -0.697078 0.717581 0.697078 877.928 118.582)"/><path d="M20.5395 15.0889 22.5715 15.0889 22.5715 16.5259 20.5395 16.5259Z" transform="matrix(0.717581 -0.697078 0.717581 0.697078 880.064 123.59)"/><path d="M13.3544 22.274 15.3863 22.274 15.3863 23.7111 13.3544 23.7111Z" transform="matrix(0.717581 -0.697078 0.717581 0.697078 872.772 120.656)"/><path d="M20.837 21.9766 22.274 21.9766 22.274 24.0085 20.837 24.0085Z" transform="matrix(0.717581 -0.697078 0.717581 0.697078 874.908 125.665)"/><path d="M29.0417 19.125C29.0417 12.8761 23.9572 7.79167 17.7083 7.79167 15.7378 7.79167 13.7785 8.31938 12.0707 9.29475L12.0643 7.79167 14.1667 7.79167 14.875 7.08333 14.875 4.25 14.1667 3.54167 12.0473 3.54167 12.0417 2.12217 11.3333 1.41667 7.08333 1.41667 6.375 2.125 6.375 3.54167 4.25 3.54167 3.54167 4.25 3.54167 7.08333 4.25 7.79167 6.375 7.79167 6.375 19.125C6.375 22.3635 7.74775 25.2811 9.93296 27.3487L6.53862 31.4217 7.08333 32.5833 28.3333 32.5833 28.878 31.4217 25.4837 27.3487C27.6689 25.2811 29.0417 22.3635 29.0417 19.125ZM4.95833 6.375 4.95833 4.95833 6.375 4.95833 6.375 6.375 4.95833 6.375ZM13.4583 4.95833 13.4583 6.375 12.0587 6.375 12.053 4.95833 13.4583 4.95833ZM7.79167 19.125 7.79167 2.83333 10.6278 2.83333 10.6597 10.6023 11.7909 11.1676C13.4895 9.90392 15.5911 9.20833 17.7083 9.20833 23.1767 9.20833 27.625 13.6567 27.625 19.125 27.625 24.5933 23.1767 29.0417 17.7083 29.0417 12.24 29.0417 7.79167 24.5933 7.79167 19.125ZM26.821 31.1667 8.59562 31.1667 11.0224 28.2554C12.8987 29.6338 15.2065 30.4583 17.7083 30.4583 20.2102 30.4583 22.5179 29.6338 24.3943 28.2554L26.821 31.1667Z" transform="matrix(1.02941 0 0 1 885 104)"/></g></svg>