<svg width="165" height="165" xmlns="http://www.w3.org/2000/svg" xmlns:xlink="http://www.w3.org/1999/xlink" xml:space="preserve" overflow="hidden"><defs><clipPath id="clip0"><rect x="1404" y="1126" width="165" height="165"/></clipPath></defs><g clip-path="url(#clip0)" transform="translate(-1404 -1126)"><path d="M1560.73 1192.74 1548.32 1201.08 1539.13 1130.17 1534.99 1126 1516.6 1126 1511.55 1130.17 1501.44 1206.18 1491.33 1213.6 1491.33 1196.91 1483.97 1192.74 1454.1 1213.6 1454.1 1196.91 1447.2 1192.74 1406.3 1218.7 1404 1222.87 1404 1286.83 1409.52 1291 1563.48 1291 1569 1286.83 1569 1196.91 1560.73 1192.74ZM1520.74 1135.27 1529.93 1135.27 1539.13 1207.11 1528.09 1214.53 1528.09 1196.91 1520.74 1192.74 1512.47 1199.23 1520.74 1135.27ZM1558.43 1281.73 1414.57 1281.73 1414.57 1225.65 1444.91 1206.18 1444.91 1222.87 1452.26 1227.04 1482.13 1206.18 1482.13 1222.87 1489.03 1227.04 1518.9 1206.18 1518.9 1222.87 1525.8 1227.04 1558.43 1206.18 1558.43 1281.73Z" fill="#020203" fill-rule="evenodd"/><rect x="1426" y="1245" width="10" height="14.9998" fill="#020203"/><rect x="1445" y="1245" width="8.99988" height="14.9998" fill="#020203"/><rect x="1464" y="1245" width="8.99988" height="14.9998" fill="#020203"/><rect x="1482" y="1245" width="8.99988" height="14.9998" fill="#020203"/><rect x="1500" y="1245" width="10" height="14.9998" fill="#020203"/><rect x="1519" y="1245" width="8.99988" height="14.9998" fill="#020203"/><rect x="1537" y="1245" width="8.99988" height="14.9998" fill="#020203"/></g></svg>