<svg width="99" height="99" xmlns="http://www.w3.org/2000/svg" xmlns:xlink="http://www.w3.org/1999/xlink" xml:space="preserve" overflow="hidden"><defs><clipPath id="clip0"><rect x="2403" y="594" width="99" height="99"/></clipPath></defs><g clip-path="url(#clip0)" transform="translate(-2403 -594)"><path d="M2497.04 634.045 2489.59 639.051 2484.08 596.503 2481.59 594 2470.56 594 2467.53 596.503 2461.46 642.11 2455.4 646.559 2455.4 636.548 2450.98 634.045 2433.06 646.559 2433.06 636.548 2428.92 634.045 2404.38 649.618 2403 652.121 2403 690.497 2406.31 693 2498.69 693 2502 690.497 2502 636.548 2497.04 634.045ZM2473.04 599.562 2478.56 599.562 2484.08 642.666 2477.46 647.115 2477.46 636.548 2473.04 634.045 2468.08 637.938 2473.04 599.562ZM2495.66 687.438 2409.34 687.438 2409.34 653.789 2427.54 642.11 2427.54 652.121 2431.96 654.624 2449.88 642.11 2449.88 652.121 2454.02 654.624 2471.94 642.11 2471.94 652.121 2476.08 654.624 2495.66 642.11 2495.66 687.438Z" fill="#020203" fill-rule="evenodd"/><rect x="2416" y="665" width="6.00024" height="8.99994" fill="#020203"/><rect x="2427" y="665" width="6.00024" height="8.99994" fill="#020203"/><rect x="2438" y="665" width="6.00024" height="8.99994" fill="#020203"/><rect x="2450" y="665" width="5.00024" height="8.99994" fill="#020203"/><rect x="2461" y="665" width="5.00024" height="8.99994" fill="#020203"/><rect x="2472" y="665" width="5.00024" height="8.99994" fill="#020203"/><rect x="2483" y="665" width="5.00024" height="8.99994" fill="#020203"/></g></svg>