<svg width="47" height="47" xmlns="http://www.w3.org/2000/svg" xmlns:xlink="http://www.w3.org/1999/xlink" xml:space="preserve" overflow="hidden"><g transform="translate(-71 -71)"><path d="M114.537 90.7361 111.763 92.5015 108.191 73.7544 107.229 72.9583 102.295 72.9583 101.332 73.7642 97.4806 95.1551 95.489 96.5553 95.4792 91.5615 93.9389 90.7615 85.6875 96.5367 85.6875 91.5625 84.1825 90.7361 73.4117 97.5902 72.9583 98.4167 72.9583 115.062 73.9375 116.042 115.062 116.042 116.042 115.062 116.042 91.5625 114.537 90.7361ZM103.114 74.9167 106.419 74.9167 109.985 93.6334 105.271 96.6326 105.271 91.5625 103.729 90.7615 99.7591 93.5522 103.114 74.9167ZM114.083 114.083 74.9167 114.083 74.9167 98.9542 83.7292 93.3465 83.7292 98.4167 85.2694 99.2186 93.5247 93.4405 93.5345 98.4392 95.0767 99.2382 103.312 93.4474 103.312 98.4167 104.817 99.2431 114.083 93.3465 114.083 114.083Z"/><path d="M78.8333 104.292 80.7917 104.292 80.7917 108.208 78.8333 108.208Z"/><path d="M83.7292 104.292 85.6875 104.292 85.6875 108.208 83.7292 108.208Z"/><path d="M88.625 104.292 90.5833 104.292 90.5833 108.208 88.625 108.208Z"/><path d="M93.5208 104.292 95.4792 104.292 95.4792 108.208 93.5208 108.208Z"/><path d="M98.4167 104.292 100.375 104.292 100.375 108.208 98.4167 108.208Z"/><path d="M103.312 104.292 105.271 104.292 105.271 108.208 103.312 108.208Z"/><path d="M108.208 104.292 110.167 104.292 110.167 108.208 108.208 108.208Z"/></g></svg>