<svg width="48" height="48" xmlns="http://www.w3.org/2000/svg" xmlns:xlink="http://www.w3.org/1999/xlink" xml:space="preserve" overflow="hidden"><g transform="translate(-688 -244)"><path d="M694 268C693.998 275.076 698.141 281.497 704.59 284.41L705.42 282.59C697.367 278.951 693.79 269.473 697.429 261.421 699.795 256.184 704.788 252.618 710.51 252.08L708.29 254.29 709.71 255.71 713.71 251.71 713.71 250.29 709.71 246.29 708.29 247.71 710.65 250.07C701.266 250.776 694.01 258.59 694 268Z"/><path d="M714.29 280.29 710.29 284.29 710.29 285.71 714.29 289.71 715.71 288.29 713.35 285.93C723.262 285.171 730.682 276.52 729.922 266.607 729.42 260.059 725.391 254.303 719.41 251.59L718.59 253.42C726.638 257.07 730.202 266.553 726.552 274.6 724.183 279.823 719.2 283.379 713.49 283.92L715.71 281.71Z"/></g></svg>