<svg width="417" height="347" xmlns="http://www.w3.org/2000/svg" xmlns:xlink="http://www.w3.org/1999/xlink" xml:space="preserve" overflow="hidden"><g transform="translate(-2239 -839)"><text font-family="ABBvoice,ABBvoice_MSFontService,sans-serif" font-weight="400" font-size="55" transform="matrix(1 0 0 1 2360.4 1092)">Mixing</text><g><g><g><path d="M2385.62 921.5C2385.62 945.824 2399.86 967.896 2422.03 977.909L2424.88 971.653C2397.2 959.145 2384.9 926.565 2397.41 898.884 2405.55 880.882 2422.71 868.626 2442.38 866.775L2434.75 874.372 2439.63 879.253 2453.38 865.503 2453.38 860.622 2439.63 846.872 2434.75 851.753 2442.86 859.866C2410.6 862.292 2385.66 889.153 2385.62 921.5Z"/><path d="M2455.37 963.747 2441.62 977.497 2441.62 982.378 2455.37 996.128 2460.25 991.247 2452.14 983.135C2486.21 980.524 2511.72 950.786 2509.11 916.713 2507.38 894.202 2493.53 874.417 2472.97 865.091L2470.15 871.381C2497.82 883.928 2510.07 916.525 2497.52 944.188 2489.38 962.143 2472.25 974.366 2452.62 976.225L2460.25 968.628Z"/></g></g></g></g></svg>