<svg width="24" height="24" xmlns="http://www.w3.org/2000/svg" xmlns:xlink="http://www.w3.org/1999/xlink" xml:space="preserve" overflow="hidden"><g transform="translate(-307 -339)"><path d="M328.5 349.5C328.5 344.262 324.238 340 319 340 313.762 340 309.5 344.262 309.5 349.5 309.5 351.689 310.251 353.702 311.5 355.31L311.5 359.5 312 360 312 361.5 312.5 362 315.5 362 316 361.5 316 360 316.5 359.5 316.5 358.655C317.298 358.874 318.134 359 319 359 319.866 359 320.702 358.874 321.5 358.655L321.5 359.5 322 360 322 361.5 322.5 362 325.5 362 326 361.5 326 360 326.5 359.5 326.5 355.31C327.749 353.702 328.5 351.689 328.5 349.5ZM315 361 313 361 313 360 315 360 315 361ZM315.5 359 312.5 359 312.5 356.409C313.365 357.223 314.379 357.877 315.5 358.323L315.5 359ZM310.5 349.5C310.5 344.813 314.313 341 319 341 323.687 341 327.5 344.813 327.5 349.5 327.5 354.187 323.687 358 319 358 314.313 358 310.5 354.187 310.5 349.5ZM325.5 356.409 325.5 359 322.5 359 322.5 358.323C323.621 357.877 324.635 357.223 325.5 356.409ZM325 361 323 361 323 360 325 360 325 361Z"/><path d="M326 352 326 347 325.5 346.5 312.5 346.5 312 347 312 352 312.5 352.5 325.5 352.5 326 352ZM325 351.5 313 351.5 313 347.5 325 347.5 325 351.5Z"/></g></svg>