<svg width="1980" height="1255" xmlns="http://www.w3.org/2000/svg" xmlns:xlink="http://www.w3.org/1999/xlink" xml:space="preserve" overflow="hidden"><g transform="translate(-604 -690)"><g><g><g><path d="M61.9791 96.6874C78.3838 96.6874 91.7291 83.3421 91.7291 66.9375 91.7291 50.5328 78.3838 37.1875 61.9791 37.1875 45.5745 37.1875 32.2291 50.5328 32.2291 66.9375 32.2291 83.3421 45.5745 96.6874 61.9791 96.6874ZM61.9791 42.1458C75.6493 42.1458 86.7708 53.2673 86.7708 66.9375 86.7708 80.6076 75.6493 91.7291 61.9791 91.7291 48.309 91.7291 37.1875 80.6076 37.1875 66.9375 37.1875 53.2673 48.309 42.1458 61.9791 42.1458Z" transform="matrix(1 0 0 1.00841 1655 1040)"/><path d="M61.9791 74.375C66.0797 74.375 69.4166 71.038 69.4166 66.9375 69.4166 62.8369 66.0797 59.5 61.9791 59.5 57.8786 59.5 54.5416 62.8369 54.5416 66.9375 54.5416 71.038 57.8786 74.375 61.9791 74.375ZM61.9791 64.4583C63.3476 64.4583 64.4583 65.5714 64.4583 66.9375 64.4583 68.3035 63.3476 69.4166 61.9791 69.4166 60.6106 69.4166 59.5 68.3035 59.5 66.9375 59.5 65.5714 60.6106 64.4583 61.9791 64.4583Z" transform="matrix(1 0 0 1.00841 1655 1040)"/><path d="M59.5 47.1041 64.4583 47.1041 64.4583 54.5416 59.5 54.5416Z" transform="matrix(1 0 0 1.00841 1655 1040)"/><path d="M59.5 79.3333 64.4583 79.3333 64.4583 86.7708 59.5 86.7708Z" transform="matrix(1 0 0 1.00841 1655 1040)"/><path d="M42.1458 64.4583 49.5833 64.4583 49.5833 69.4166 42.1458 69.4166Z" transform="matrix(1 0 0 1.00841 1655 1040)"/><path d="M74.375 64.4583 81.8125 64.4583 81.8125 69.4166 74.375 69.4166Z" transform="matrix(1 0 0 1.00841 1655 1040)"/><path d="M47.3004 51.2488 52.2794 51.2488 52.2794 58.2891 47.3004 58.2891Z" transform="matrix(0.704166 -0.710085 0.704166 0.710085 1630.96 1091.46)"/><path d="M71.1648 52.2794 78.205 52.2794 78.205 57.2584 71.1648 57.2584Z" transform="matrix(0.704166 -0.710085 0.704166 0.710085 1638.22 1109.14)"/><path d="M46.2698 77.1744 53.3101 77.1744 53.3101 82.1534 46.2698 82.1534Z" transform="matrix(0.704166 -0.710085 0.704166 0.710085 1613.43 1098.79)"/><path d="M72.1954 76.1437 77.1744 76.1437 77.1744 83.184 72.1954 83.184Z" transform="matrix(0.704166 -0.710085 0.704166 0.710085 1620.69 1116.46)"/><path d="M101.646 66.9375C101.646 45.0663 83.8503 27.2708 61.9791 27.2708 55.0821 27.2708 48.2247 29.1178 42.2475 32.5316L42.2251 27.2708 49.5833 27.2708 52.0625 24.7917 52.0625 14.875 49.5833 12.3958 42.1656 12.3958 42.1458 7.42758 39.6666 4.95833 24.7917 4.95833 22.3125 7.4375 22.3125 12.3958 14.875 12.3958 12.3958 14.875 12.3958 24.7917 14.875 27.2708 22.3125 27.2708 22.3125 66.9375C22.3125 78.2722 27.1171 88.4839 34.7653 95.7206L22.8852 109.976 24.7917 114.042 99.1666 114.042 101.073 109.976 89.1929 95.7206C96.8412 88.4839 101.646 78.2722 101.646 66.9375ZM17.3542 22.3125 17.3542 17.3542 22.3125 17.3542 22.3125 22.3125 17.3542 22.3125ZM47.1041 17.3542 47.1041 22.3125 42.2053 22.3125 42.1855 17.3542 47.1041 17.3542ZM27.2708 66.9375 27.2708 9.91666 37.1974 9.91666 37.309 37.1081 41.2682 39.0865C47.2132 34.6637 54.5689 32.2291 61.9791 32.2291 81.1183 32.2291 96.6874 47.7983 96.6874 66.9375 96.6874 86.0766 81.1183 101.646 61.9791 101.646 42.84 101.646 27.2708 86.0766 27.2708 66.9375ZM93.8736 109.083 30.0847 109.083 38.5783 98.8939C45.1456 103.718 53.2227 106.604 61.9791 106.604 70.7355 106.604 78.8127 103.718 85.38 98.8939L93.8736 109.083Z" transform="matrix(1 0 0 1.00841 1655 1040)"/></g></g></g><path d="M673 943 1695.81 943" stroke="#FFD100" stroke-width="13.75" stroke-linejoin="round" stroke-miterlimit="10" fill="none" fill-rule="evenodd"/><path d="M1715 1162 1715 1238.78" stroke="#0070C0" stroke-width="13.75" stroke-linejoin="round" stroke-miterlimit="10" fill="none" fill-rule="evenodd"/><path d="M1715 1247 1715.7 1579.61" stroke="#0070C0" stroke-width="13.75" stroke-linejoin="round" stroke-miterlimit="10" fill="none" fill-rule="evenodd"/><g><g><g><path d="M39.6205 64.8807 35.7126 62.244 37.6666 63.5624 35.7126 62.244C35.7126 62.244 40.0207 55.6995 40.0207 47.0832 40.0207 42.9634 37.8785 39.2439 35.6185 35.3124 33.1466 31.0278 30.6041 26.5785 30.6041 21.1875 30.6041 10.8056 35.8068 5.6029 36.0187 5.39103L39.3145 8.75748C39.1732 8.89873 35.3124 12.9008 35.3124 21.211 35.3124 25.3308 37.4547 29.0504 39.7147 32.9818 42.1866 37.2664 44.7291 41.7157 44.7291 47.1068 44.7291 57.2297 39.8324 64.5982 39.6205 64.9042Z" transform="matrix(1 0 0 1 1649 1609)"/><path d="M58.4538 64.8807 54.5459 62.244 56.4999 63.5624 54.5459 62.244C54.5459 62.244 58.854 55.6995 58.854 47.0832 58.854 42.9634 56.7117 39.2439 54.4517 35.3124 51.9799 31.0278 49.4374 26.5785 49.4374 21.1875 49.4374 10.8056 54.6401 5.6029 54.852 5.39103L58.1478 8.75748C58.0065 8.89873 54.1457 12.9008 54.1457 21.211 54.1457 25.3308 56.288 29.0504 58.548 32.9818 61.0199 37.2664 63.5624 41.7157 63.5624 47.1068 63.5624 57.2297 58.6657 64.5982 58.4538 64.9042Z" transform="matrix(1 0 0 1 1649 1609)"/><path d="M77.2871 64.8807 73.3792 62.244 75.3332 63.5624 73.3792 62.244C73.3792 62.244 77.6873 55.6995 77.6873 47.0832 77.6873 42.9634 75.545 39.2439 73.285 35.3124 70.8132 31.0278 68.2707 26.5785 68.2707 21.1875 68.2707 10.8056 73.4734 5.6029 73.6852 5.39103L76.9811 8.75748C76.8398 8.89873 72.979 12.9008 72.979 21.211 72.979 25.3308 75.1213 29.0504 77.3813 32.9818 79.8531 37.2664 82.3956 41.7157 82.3956 47.1068 82.3956 57.2297 77.499 64.5982 77.2871 64.9042Z" transform="matrix(1 0 0 1 1649 1609)"/><path d="M59.937 94.1665 74.2503 94.1665 74.2503 98.8748 59.937 98.8748Z" transform="matrix(0.164531 -0.986372 0.986375 0.164531 1609.85 1755.81)"/><path d="M56.4999 72.979 80.0415 105.937" fill="#FFFFFF" transform="matrix(1 0 0 1 1649 1609)"/><path d="M65.9166 69.2124 70.6249 69.2124 70.6249 109.704 65.9166 109.704Z" transform="matrix(0.813712 -0.58127 0.581272 0.813709 1609.71 1665.34)"/><path d="M24.4833 87.1041 64.9749 87.1041 64.9749 91.8124 24.4833 91.8124Z" transform="matrix(0.581272 -0.813709 0.813712 0.58127 1594.92 1682.85)"/><path d="M44.7526 103.96 42.7987 92.1654 30.9808 94.1429 30.2274 89.4817 46.6595 86.7508 49.4138 103.206 44.7526 103.96Z" transform="matrix(1 0 0 1 1649 1609)"/><path d="M18.8333 70.6248 94.1665 70.6248 94.1665 75.3332 18.8333 75.3332Z" transform="matrix(1 0 0 1 1649 1609)"/><path d="M1722.67 1683.64 1726 1680.31 1737.77 1692.08 1734.44 1695.41Z"/><path d="M1673.23 1692.1 1685 1680.33 1688.33 1683.66 1676.56 1695.43Z"/><path d="M72.979 83.4786 77.6874 83.4786 77.6874 97.7919 72.979 97.7919Z" transform="matrix(0.164359 -0.986401 0.986404 0.164359 1622.54 1759.05)"/></g></g></g><path d="M1689 938 1689 1029.01" stroke="#FFD100" stroke-width="13.75" stroke-linejoin="round" stroke-miterlimit="10" fill="none" fill-rule="evenodd"/><path d="M0 0 330.551 0.000360892" stroke="#EEECE1" stroke-width="13.75" stroke-linejoin="round" stroke-miterlimit="10" fill="none" fill-rule="evenodd" transform="matrix(-1 0 0 1 2495.55 1241)"/><path d="M2295 1074 2295 1239.58" stroke="#EEECE1" stroke-width="13.75" stroke-linejoin="round" stroke-miterlimit="10" fill="none" fill-rule="evenodd"/><path d="M0 0 405.288 0.000360892" stroke="#0070C0" stroke-width="13.75" stroke-linejoin="round" stroke-miterlimit="10" fill="none" fill-rule="evenodd" transform="matrix(-1 0 0 1 2113.29 1244)"/><path d="M2059.5 1072.5 2059.5 1146.74" stroke="#FFFFFF" stroke-width="41.25" stroke-linejoin="round" stroke-miterlimit="10" fill="none" fill-rule="evenodd"/><g><g><g><path d="M111.562 47.1041 101.646 47.1041 101.646 37.1875 99.1666 34.7083 7.4375 34.7083 4.95833 37.1875 4.95833 81.8125 7.4375 84.2916 99.1666 84.2916 101.646 81.8125 101.646 71.8958 111.562 71.8958 114.042 69.4166 114.042 49.5833 111.562 47.1041ZM109.083 66.9375 99.1666 66.9375 96.6874 69.4166 96.6874 79.3333 9.91666 79.3333 9.91666 39.6666 96.6874 39.6666 96.6874 49.5833 99.1666 52.0625 109.083 52.0625 109.083 66.9375Z" fill="#505046" transform="matrix(-1.85241e-16 -1.0084 1 -1.83697e-16 2101 1598)"/><path d="M17.3542 44.625 14.875 47.1041 14.875 71.8958 17.3542 74.375 27.2708 74.375 29.75 71.8958 29.75 47.1041 27.2708 44.625 17.3542 44.625ZM24.7917 69.4166 19.8333 69.4166 19.8333 49.5833 24.7917 49.5833 24.7917 69.4166Z" fill="#505046" transform="matrix(-1.85241e-16 -1.0084 1 -1.83697e-16 2101 1598)"/><path d="M37.1875 44.625 34.7083 47.1041 34.7083 71.8958 37.1875 74.375 47.1041 74.375 49.5833 71.8958 49.5833 47.1041 47.1041 44.625 37.1875 44.625ZM44.625 69.4166 39.6666 69.4166 39.6666 49.5833 44.625 49.5833 44.625 69.4166Z" fill="#505046" transform="matrix(-1.85241e-16 -1.0084 1 -1.83697e-16 2101 1598)"/><path d="M57.0208 44.625 54.5416 47.1041 54.5416 71.8958 57.0208 74.375 66.9375 74.375 69.4166 71.8958 69.4166 47.1041 66.9375 44.625 57.0208 44.625ZM64.4583 69.4166 59.5 69.4166 59.5 49.5833 64.4583 49.5833 64.4583 69.4166Z" fill="#505046" transform="matrix(-1.85241e-16 -1.0084 1 -1.83697e-16 2101 1598)"/></g></g></g><g><g><g><path d="M111.562 47.1041 101.646 47.1041 101.646 37.1875 99.1666 34.7083 7.4375 34.7083 4.95833 37.1875 4.95833 81.8125 7.4375 84.2916 99.1666 84.2916 101.646 81.8125 101.646 71.8958 111.562 71.8958 114.042 69.4166 114.042 49.5833 111.562 47.1041ZM109.083 66.9375 99.1666 66.9375 96.6874 69.4166 96.6874 79.3333 9.91666 79.3333 9.91666 39.6666 96.6874 39.6666 96.6874 49.5833 99.1666 52.0625 109.083 52.0625 109.083 66.9375Z" fill="#0070C0" transform="matrix(-1.85241e-16 -1.0084 1 -1.83697e-16 2036 1597)"/><path d="M17.3542 44.625 14.875 47.1041 14.875 71.8958 17.3542 74.375 27.2708 74.375 29.75 71.8958 29.75 47.1041 27.2708 44.625 17.3542 44.625ZM24.7917 69.4166 19.8333 69.4166 19.8333 49.5833 24.7917 49.5833 24.7917 69.4166Z" fill="#0070C0" transform="matrix(-1.85241e-16 -1.0084 1 -1.83697e-16 2036 1597)"/><path d="M37.1875 44.625 34.7083 47.1041 34.7083 71.8958 37.1875 74.375 47.1041 74.375 49.5833 71.8958 49.5833 47.1041 47.1041 44.625 37.1875 44.625ZM44.625 69.4166 39.6666 69.4166 39.6666 49.5833 44.625 49.5833 44.625 69.4166Z" fill="#0070C0" transform="matrix(-1.85241e-16 -1.0084 1 -1.83697e-16 2036 1597)"/><path d="M57.0208 44.625 54.5416 47.1041 54.5416 71.8958 57.0208 74.375 66.9375 74.375 69.4166 71.8958 69.4166 47.1041 66.9375 44.625 57.0208 44.625ZM64.4583 69.4166 59.5 69.4166 59.5 49.5833 64.4583 49.5833 64.4583 69.4166Z" fill="#0070C0" transform="matrix(-1.85241e-16 -1.0084 1 -1.83697e-16 2036 1597)"/></g></g></g><path d="M0 0 0.000360892 195.329" stroke="#0070C0" stroke-width="13.75" stroke-linejoin="round" stroke-miterlimit="10" fill="none" fill-rule="evenodd" transform="matrix(-1 0 0 1 2093 1250)"/><path d="M2161 1205 2161.9 1443.24" stroke="#EEECE1" stroke-width="13.75" stroke-linejoin="round" stroke-miterlimit="10" fill="none" fill-rule="evenodd"/><g><g><g><path d="M58.7305 23.5 66.5639 23.5 66.5639 31.3334 70.4806 31.3334 70.4806 23.5 77.8008 23.5 78.7408 19.8242 50.1511 4.15755 49.2111 3.91667 44.8126 3.91667 43.8726 4.15755 15.2829 19.8242 16.2229 23.5 23.4824 23.5 23.4824 31.3334 27.3991 31.3334 27.3991 23.5 35.2324 23.5 35.2324 36.3095 15.2809 47.241 16.2229 50.9168 23.4824 50.9168 23.4824 58.7501 27.3991 58.7501 27.3991 50.9168 34.2513 50.9168 17.5565 87.3086 19.3366 90.0835 23.7997 90.0835 24.9336 89.7212 46.9805 74.078 69.0275 89.7212 70.1614 90.0835 74.6244 90.0835 76.4045 87.3086 59.7117 50.9168 66.5639 50.9168 66.5639 58.7501 70.4806 58.7501 70.4806 50.9168 77.8008 50.9168 78.7408 47.241 58.7305 36.2762 58.7305 23.5ZM58.7305 19.5834 58.7305 13.3245 70.1516 19.5834 58.7305 19.5834ZM45.314 7.83335 48.7097 7.83335 54.8139 11.1782 54.8139 19.5834 39.1472 19.5834 39.1472 11.2115 45.314 7.83335ZM23.8702 19.5834 35.2305 13.3578 35.2305 19.5834 23.8702 19.5834ZM39.1472 23.5 54.8139 23.5 54.8139 34.1299 50.1511 31.5743 49.2111 31.3334 44.8126 31.3334 43.8726 31.5743 39.1491 34.1632 39.1491 23.5ZM39.1472 47.0001 39.1472 38.6282 45.314 35.2501 48.7097 35.2501 54.8139 38.5949 54.8139 47.0001 39.1472 47.0001ZM35.2305 40.7745 35.2305 47.0001 23.8702 47.0001 35.2305 40.7745ZM23.175 86.1668 22.3897 86.1668 32.6122 63.8829 43.5985 71.6771 23.175 86.1668ZM70.7861 86.1668 50.3645 71.6771 61.3508 63.8829 71.5714 86.1668 70.7861 86.1668ZM59.6882 60.26 46.9805 69.2762 34.2729 60.26 38.5597 50.9168 55.4033 50.9168 59.6882 60.26ZM70.1516 47.0001 58.7305 47.0001 58.7305 40.7413 70.1516 47.0001Z" transform="matrix(1.18085 0 0 1 678 690)"/></g></g></g><text font-family="ABBvoice,ABBvoice_MSFontService,sans-serif" font-weight="400" font-size="37" transform="matrix(1 0 0 1 701.279 814)">Grid</text><text font-family="ABBvoice,ABBvoice_MSFontService,sans-serif" font-weight="400" font-size="37" transform="matrix(1 0 0 1 638.556 858)">Connection</text><text font-family="ABBvoice,ABBvoice_MSFontService,sans-serif" font-weight="400" font-size="37" transform="matrix(1 0 0 1 1604.76 1780)">Cooling</text><text font-family="ABBvoice,ABBvoice_MSFontService,sans-serif" font-weight="400" font-size="37" transform="matrix(1 0 0 1 1603.04 1824)">Demand</text><text font-family="ABBvoice,ABBvoice_MSFontService,sans-serif" font-weight="400" font-size="37" transform="matrix(1 0 0 1 1638.27 1868)">NUS</text><text font-family="ABBvoice,ABBvoice_MSFontService,sans-serif" font-weight="400" font-size="37" transform="matrix(1 0 0 1 1620.51 1912)">KB100</text><text font-family="ABBvoice,ABBvoice_MSFontService,sans-serif" font-weight="400" font-size="37" transform="matrix(1 0 0 1 2047.65 1657)">Thermal </text><text font-family="ABBvoice,ABBvoice_MSFontService,sans-serif" font-weight="400" font-size="37" transform="matrix(1 0 0 1 2054.25 1701)">Storage</text><text font-family="ABBvoice,ABBvoice_MSFontService,sans-serif" font-weight="400" font-size="37" transform="matrix(1 0 0 1 2057.68 1745)">BTES </text><text font-family="ABBvoice,ABBvoice_MSFontService,sans-serif" font-weight="400" font-size="37" transform="matrix(1 0 0 1 2156.23 1745)">-</text><text font-family="ABBvoice,ABBvoice_MSFontService,sans-serif" font-weight="400" font-size="37" transform="matrix(1 0 0 1 2168.83 1745)">2</text><text font-family="ABBvoice,ABBvoice_MSFontService,sans-serif" font-weight="400" font-size="37" transform="matrix(1 0 0 1 1540.85 1062)">Heat</text><text font-family="ABBvoice,ABBvoice_MSFontService,sans-serif" font-weight="400" font-size="37" transform="matrix(1 0 0 1 1531.98 1106)">Pump</text><path d="M741 867 741 943.197" stroke="#FFD100" stroke-width="13.75" stroke-linejoin="round" stroke-miterlimit="10" fill="none" fill-rule="evenodd"/><g><g><g><path d="M2483.13 1472.68 2484.05 1472.88 2484.88 1472.88 2494.12 1472.88 2495.96 1472.88 2497.13 1472.56C2517.1 1460.95 2523.65 1440.19 2513.43 1420.9 2504.73 1404.49 2484.2 1391.37 2483.33 1390.83L2479.78 1392.78C2479.78 1408.63 2469.24 1420.31 2469.01 1420.56 2461.35 1430.32 2458.62 1439.82 2460.89 1448.79 2464.89 1464.6 2482.95 1472.6 2483.13 1472.68ZM2485.86 1468.25C2485.57 1468 2485.22 1467.74 2484.81 1467.43 2482.57 1465.72 2478.39 1462.54 2477.79 1457.89 2477.38 1454.69 2478.71 1451.11 2481.64 1447.37 2481.85 1447.13 2486.15 1442.3 2487.5 1435.2 2490.79 1437.76 2495.79 1442.17 2498.33 1446.96 2501.91 1453.72 2502.47 1462.8 2493.5 1468.25L2485.86 1468.25ZM2472.53 1423.56C2472.97 1423.08 2482.62 1412.45 2484.19 1397.01 2490.3 1401.38 2503.22 1411.52 2509.34 1423.07 2516.43 1436.46 2514.52 1450.22 2504.88 1460.59 2506.1 1455.77 2505.33 1450.3 2502.41 1444.79 2497.89 1436.26 2487.31 1429.31 2486.86 1429.02L2483.29 1430.96C2483.29 1438.49 2478.25 1444.21 2478.1 1444.39 2474.28 1449.26 2472.63 1454 2473.2 1458.48 2473.3 1459.27 2473.48 1460.02 2473.7 1460.74 2470.11 1457.39 2466.72 1453 2465.37 1447.64 2463.48 1440.13 2465.93 1431.98 2472.53 1423.56Z"/><path d="M2528.81 1477.5 2517.25 1477.5 2514.94 1479.81 2514.94 1486.75 2508 1486.75 2508 1479.81 2505.69 1477.5 2494.12 1477.5 2491.81 1479.81 2491.81 1486.75 2484.88 1486.75 2484.88 1479.81 2482.56 1477.5 2471 1477.5 2468.69 1479.81 2468.69 1486.75 2461.75 1486.75 2461.75 1479.81 2459.44 1477.5 2447.88 1477.5 2445.56 1479.81 2445.56 1491.38 2450.19 1491.38 2450.19 1482.12 2457.12 1482.12 2457.12 1489.06 2459.44 1491.38 2471 1491.38 2473.31 1489.06 2473.31 1482.12 2480.25 1482.12 2480.25 1489.06 2482.56 1491.38 2494.12 1491.38 2496.44 1489.06 2496.44 1482.12 2503.38 1482.12 2503.38 1489.06 2505.69 1491.38 2517.25 1491.38 2519.56 1489.06 2519.56 1482.12 2526.5 1482.12 2526.5 1491.38 2531.12 1491.38 2531.12 1479.81Z"/></g></g></g><path d="M0 0 1.48435 138.257" stroke="#EEECE1" stroke-width="13.75" stroke-linejoin="round" stroke-miterlimit="10" fill="none" fill-rule="evenodd" transform="matrix(-1 0 0 1 2490.48 1247)"/><path d="M0 0 0.000360892 198.043" stroke="#0070C0" stroke-width="13.75" stroke-linejoin="round" stroke-miterlimit="10" fill="none" fill-rule="evenodd" transform="matrix(-1 0 0 1 1909 1248)"/><text font-family="ABBvoice,ABBvoice_MSFontService,sans-serif" font-weight="400" font-size="37" transform="matrix(1 0 0 1 1831.98 1658)">Thermal </text><text font-family="ABBvoice,ABBvoice_MSFontService,sans-serif" font-weight="400" font-size="37" transform="matrix(1 0 0 1 1834.28 1702)">Storage</text><text font-family="ABBvoice,ABBvoice_MSFontService,sans-serif" font-weight="400" font-size="37" transform="matrix(1 0 0 1 1838.86 1746)">BTES </text><text font-family="ABBvoice,ABBvoice_MSFontService,sans-serif" font-weight="400" font-size="37" transform="matrix(1 0 0 1 1937.4 1746)">-</text><text font-family="ABBvoice,ABBvoice_MSFontService,sans-serif" font-weight="400" font-size="37" transform="matrix(1 0 0 1 1950.01 1746)">1</text><path d="M0 0 520.199 0.000360892" stroke="#EEECE1" stroke-width="13.75" stroke-linejoin="round" stroke-miterlimit="10" fill="none" fill-rule="evenodd" transform="matrix(-1 0 0 1 2299.2 1069)"/><path d="M2065 1270.5C2065 1267.46 2067.46 1265 2070.5 1265L2191.5 1265C2194.54 1265 2197 1267.46 2197 1270.5L2197 1292.5C2197 1295.54 2194.54 1298 2191.5 1298L2070.5 1298C2067.46 1298 2065 1295.54 2065 1292.5Z" fill="#00B0F0" fill-rule="evenodd"/><text fill="#FFFFFF" font-family="ABBvoice,ABBvoice_MSFontService,sans-serif" font-weight="400" font-size="37" transform="matrix(1 0 0 1 2105.59 1294)">Sel</text><path d="M0 0 405.288 0.000360892" stroke="#0070C0" stroke-width="13.75" stroke-linejoin="round" stroke-miterlimit="10" fill="none" fill-rule="evenodd" transform="matrix(-1 0 0 1 1718.29 1547)"/><path d="M895.881 1522.56 1279.73 1522.56 1279.73 1569.56 895.881 1569.56Z" fill="#FAFAFA" fill-rule="evenodd"/><text font-family="ABBvoice,ABBvoice_MSFontService,sans-serif" font-style="oblique" font-weight="400" font-size="37" transform="matrix(1 0 0 1 895.881 1560)">Other producing units</text><path d="M1939 1206 1939 1444.78" stroke="#EEECE1" stroke-width="13.75" stroke-linejoin="round" stroke-miterlimit="10" fill="none" fill-rule="evenodd"/><g><g><g><path d="M1947.5 1479.5 1947.5 1489.5 1937.5 1489.5 1935 1492 1935 1584.5 1937.5 1587 1982.5 1587 1985 1584.5 1985 1492 1982.5 1489.5 1972.5 1489.5 1972.5 1479.5 1970 1477 1950 1477 1947.5 1479.5ZM1967.5 1482 1967.5 1492 1970 1494.5 1980 1494.5 1980 1582 1940 1582 1940 1494.5 1950 1494.5 1952.5 1492 1952.5 1482 1967.5 1482Z" fill="#505046"/><path d="M1945 1574.5 1947.5 1577 1972.5 1577 1975 1574.5 1975 1564.5 1972.5 1562 1947.5 1562 1945 1564.5 1945 1574.5ZM1970 1567 1970 1572 1950 1572 1950 1567 1970 1567Z" fill="#505046"/><path d="M1945 1554.5 1947.5 1557 1972.5 1557 1975 1554.5 1975 1544.5 1972.5 1542 1947.5 1542 1945 1544.5 1945 1554.5ZM1970 1547 1970 1552 1950 1552 1950 1547 1970 1547Z" fill="#505046"/><path d="M1945 1534.5 1947.5 1537 1972.5 1537 1975 1534.5 1975 1524.5 1972.5 1522 1947.5 1522 1945 1524.5 1945 1534.5ZM1970 1527 1970 1532 1950 1532 1950 1527 1970 1527Z" fill="#505046"/></g></g></g><g><g><g><path d="M1882.5 1478.5 1882.5 1488.5 1872.5 1488.5 1870 1491 1870 1583.5 1872.5 1586 1917.5 1586 1920 1583.5 1920 1491 1917.5 1488.5 1907.5 1488.5 1907.5 1478.5 1905 1476 1885 1476 1882.5 1478.5ZM1902.5 1481 1902.5 1491 1905 1493.5 1915 1493.5 1915 1581 1875 1581 1875 1493.5 1885 1493.5 1887.5 1491 1887.5 1481 1902.5 1481Z" fill="#0070C0"/><path d="M1880 1573.5 1882.5 1576 1907.5 1576 1910 1573.5 1910 1563.5 1907.5 1561 1882.5 1561 1880 1563.5 1880 1573.5ZM1905 1566 1905 1571 1885 1571 1885 1566 1905 1566Z" fill="#0070C0"/><path d="M1880 1553.5 1882.5 1556 1907.5 1556 1910 1553.5 1910 1543.5 1907.5 1541 1882.5 1541 1880 1543.5 1880 1553.5ZM1905 1546 1905 1551 1885 1551 1885 1546 1905 1546Z" fill="#0070C0"/><path d="M1880 1533.5 1882.5 1536 1907.5 1536 1910 1533.5 1910 1523.5 1907.5 1521 1882.5 1521 1880 1523.5 1880 1533.5ZM1905 1526 1905 1531 1885 1531 1885 1526 1905 1526Z" fill="#0070C0"/></g></g></g><path d="M1861 1267.5C1861 1264.46 1863.46 1262 1866.5 1262L1988.5 1262C1991.54 1262 1994 1264.46 1994 1267.5L1994 1289.5C1994 1292.54 1991.54 1295 1988.5 1295L1866.5 1295C1863.46 1295 1861 1292.54 1861 1289.5Z" fill="#00B0F0" fill-rule="evenodd"/><text fill="#FFFFFF" font-family="ABBvoice,ABBvoice_MSFontService,sans-serif" font-weight="400" font-size="37" transform="matrix(1 0 0 1 1902.33 1291)">Sel</text><path d="M2160.45 1210.9 1946 1210" stroke="#EEECE1" stroke-width="13.75" stroke-linejoin="round" stroke-miterlimit="10" fill="none" fill-rule="evenodd"/><text font-family="ABBvoice,ABBvoice_MSFontService,sans-serif" font-weight="400" font-size="37" transform="matrix(1 0 0 1 2403.65 1582)">Heating</text><text font-family="ABBvoice,ABBvoice_MSFontService,sans-serif" font-weight="400" font-size="37" transform="matrix(1 0 0 1 2404.22 1626)">Demand</text><text font-family="ABBvoice,ABBvoice_MSFontService,sans-serif" font-weight="400" font-size="37" transform="matrix(1 0 0 1 2439.47 1670)">NUS</text></g></svg>