<svg width="48" height="48" xmlns="http://www.w3.org/2000/svg" xmlns:xlink="http://www.w3.org/1999/xlink" xml:space="preserve" overflow="hidden"><g transform="translate(-1003 -389)"><path d="M1008 423 1008 402 1009 401 1045 401 1046 402 1046 423 1045 424 1009 424 1008 423ZM1010 403 1010 422 1044 422 1044 403 1010 403Z"/><path d="M1045 406 1045 408 1010 408 1010 406Z"/><path d="M1045 418 1045 420 1010 420 1010 418Z"/><path d="M1045 414 1045 416 1010 416 1010 414Z"/><path d="M1045 410 1045 412 1010 412 1010 410Z"/><path d="M1034.29 429.71 1035.71 428.29 1038 430.59 1040.29 428.29 1041.71 429.71 1038.71 432.71 1037.29 432.71 1034.29 429.71Z"/><path d="M1039 423.6 1039 430.6 1037 430.6 1037 423.6Z"/><path d="M1023.29 431.71 1024.71 430.29 1027 432.59 1029.29 430.29 1030.71 431.71 1027.71 434.71 1026.29 434.71 1023.29 431.71Z"/><path d="M1028 423 1028 433 1026 433 1026 423Z"/><path d="M1012.29 429.71 1013.71 428.29 1016 430.59 1018.29 428.29 1019.71 429.71 1016.71 432.71 1015.29 432.71 1012.29 429.71Z"/><path d="M1017 423 1017 431 1015 431 1015 423Z"/><path d="M1028 394 1028 410 1026 410 1026 394Z"/><path d="M1039 391 1039 410 1037 410 1037 391Z"/><path d="M1017 391 1017 410 1015 410 1015 391Z"/></g></svg>