<svg width="48" height="48" xmlns="http://www.w3.org/2000/svg" xmlns:xlink="http://www.w3.org/1999/xlink" xml:space="preserve" overflow="hidden"><g transform="translate(-1161 -244)"><path d="M1188 278C1188 269.3 1178.21 256.54 1177.79 256L1176.21 256C1175.79 256.54 1166 269.3 1166 278 1166 285.07 1170.52 290 1177 290 1183.48 290 1188 285.07 1188 278ZM1177 288C1171.7 288 1168 283.89 1168 278 1168 271.35 1174.67 261.53 1177 258.29 1179.33 261.53 1186 271.35 1186 278 1186 283.89 1182.3 288 1177 288Z"/><path d="M1204 261C1204 254.82 1197 246.69 1196.76 246.35L1195.24 246.35C1195 246.69 1188 254.82 1188 261 1188 266.13 1191.44 270 1196 270 1200.56 270 1204 266.13 1204 261ZM1190 261C1190 256.68 1194.23 250.83 1196 248.59 1197.77 250.83 1202 256.68 1202 261 1202 265.06 1199.48 268 1196 268 1192.52 268 1190 265.06 1190 261Z"/></g></svg>