<svg width="48" height="48" xmlns="http://www.w3.org/2000/svg" xmlns:xlink="http://www.w3.org/1999/xlink" xml:space="preserve" overflow="hidden"><g transform="translate(-688 -389)"><path d="M6 10 5 11 5 45 6 46 34 46 35 45 35 28.41 37 26.41 37 41 39 41 39 24.41 41 22.41 41 37 43 37 43 3 42 2 14 2 14 4 25.59 4 23.59 6 10 6 10 8 21.59 8 19.59 10ZM33 12 33 27 21 27 21 12ZM7 12 19 12 19 27 7 27ZM7 44 7 29 19 29 19 44ZM21 44 21 29 33 29 33 44ZM28.41 4 41 4 41 19.59 39 21.59 39 7 38 6 26.41 6ZM24.41 8 37 8 37 23.59 35 25.59 35 11 34 10 22.41 10Z" transform="matrix(-1.83697e-16 -1 -1 1.83697e-16 736 437)"/></g></svg>