<svg width="246" height="165" xmlns="http://www.w3.org/2000/svg" xmlns:xlink="http://www.w3.org/1999/xlink" xml:space="preserve" overflow="hidden"><g transform="translate(-202 -242)"><g><g><g><path d="M348.312 252.312 348.312 266.062 334.562 266.062 331.125 269.5 331.125 396.688 334.562 400.125 396.437 400.125 399.875 396.688 399.875 269.5 396.437 266.062 382.687 266.062 382.687 252.312 379.25 248.875 351.75 248.875 348.312 252.312ZM375.812 255.75 375.812 269.5 379.25 272.938 393 272.938 393 393.25 338 393.25 338 272.938 351.75 272.938 355.187 269.5 355.187 255.75 375.812 255.75Z"/><path d="M344.875 382.938 348.312 386.375 382.687 386.375 386.125 382.938 386.125 369.188 382.687 365.75 348.312 365.75 344.875 369.188 344.875 382.938ZM379.25 372.625 379.25 379.5 351.75 379.5 351.75 372.625 379.25 372.625Z"/><path d="M344.875 355.438 348.312 358.875 382.687 358.875 386.125 355.438 386.125 341.688 382.687 338.25 348.312 338.25 344.875 341.688 344.875 355.438ZM379.25 345.125 379.25 352 351.75 352 351.75 345.125 379.25 345.125Z"/><path d="M344.875 327.938 348.312 331.375 382.687 331.375 386.125 327.938 386.125 314.188 382.687 310.75 348.312 310.75 344.875 314.188 344.875 327.938ZM379.25 317.625 379.25 324.5 351.75 324.5 351.75 317.625 379.25 317.625Z"/></g></g></g><g><g><g><path d="M267.313 252.312 267.313 266.062 253.563 266.062 250.125 269.5 250.125 396.688 253.563 400.125 315.438 400.125 318.875 396.688 318.875 269.5 315.438 266.062 301.688 266.062 301.688 252.312 298.25 248.875 270.75 248.875 267.313 252.312ZM294.813 255.75 294.813 269.5 298.25 272.938 312 272.938 312 393.25 257 393.25 257 272.938 270.75 272.938 274.188 269.5 274.188 255.75 294.813 255.75Z"/><path d="M263.875 382.938 267.313 386.375 301.688 386.375 305.125 382.938 305.125 369.188 301.688 365.75 267.313 365.75 263.875 369.188 263.875 382.938ZM298.25 372.625 298.25 379.5 270.75 379.5 270.75 372.625 298.25 372.625Z"/><path d="M263.875 355.438 267.313 358.875 301.688 358.875 305.125 355.438 305.125 341.688 301.688 338.25 267.313 338.25 263.875 341.688 263.875 355.438ZM298.25 345.125 298.25 352 270.75 352 270.75 345.125 298.25 345.125Z"/><path d="M263.875 327.938 267.313 331.375 301.688 331.375 305.125 327.938 305.125 314.188 301.688 310.75 267.313 310.75 263.875 314.188 263.875 327.938ZM298.25 317.625 298.25 324.5 270.75 324.5 270.75 317.625 298.25 317.625Z"/></g></g></g></g></svg>