<svg width="185" height="164" xmlns="http://www.w3.org/2000/svg" xmlns:xlink="http://www.w3.org/1999/xlink" xml:space="preserve" overflow="hidden"><defs><clipPath id="clip0"><rect x="214" y="235" width="185" height="164"/></clipPath></defs><g clip-path="url(#clip0)" transform="translate(-214 -235)"><path d="M260.357 293.828 260.357 281.207 256.143 277 230.857 277 226.643 281.207 226.643 293.828 218.214 293.828 214 298.035 214 394.793 218.214 399 268.786 399 273 394.793 273 298.035 268.786 293.828 260.357 293.828ZM264.572 390.586 222.429 390.586 222.429 302.241 230.857 302.241 235.072 298.035 235.072 285.414 251.929 285.414 251.929 298.035 256.143 302.241 264.572 302.241 264.572 390.586Z" fill-rule="evenodd"/><path d="M231 332 256 332 256 340 231 340Z" fill-rule="evenodd"/><path d="M231 374 256 374 256 382 231 382Z" fill-rule="evenodd"/><path d="M231 353 256 353 256 361 231 361Z" fill-rule="evenodd"/><path d="M231 311 256 311 256 319 231 319Z" fill-rule="evenodd"/><path d="M298 332 319 332 319 340 298 340Z" fill-rule="evenodd"/><path d="M298 374 319 374 319 382 298 382Z" fill-rule="evenodd"/><path d="M298 353 319 353 319 361 298 361Z" fill-rule="evenodd"/><path d="M298 311 319 311 319 319 298 319Z" fill-rule="evenodd"/><path d="M298 290 319 290 319 298 298 298Z" fill-rule="evenodd"/><path d="M394.769 251.821 386.308 251.821 386.308 239.205 382.077 235 360.923 235 356.693 239.205 356.693 251.821 348.231 251.821 344 256.026 344 394.795 348.231 399 394.769 399 399 394.795 399 256.026 394.769 251.821ZM390.539 390.59 352.462 390.59 352.462 260.231 360.923 260.231 365.154 256.026 365.154 243.41 377.847 243.41 377.847 256.026 382.077 260.231 390.539 260.231 390.539 390.59Z" fill-rule="evenodd"/><path d="M323.308 251.821 323.308 239.205 319.077 235 297.923 235 293.692 239.205 293.692 251.821 285.231 251.821 281 256.026 281 394.795 285.231 399 331.769 399 336 394.795 336 256.026 331.769 251.821 323.308 251.821ZM327.538 390.59 289.461 390.59 289.461 260.231 297.923 260.231 302.154 256.026 302.154 243.41 314.846 243.41 314.846 256.026 319.077 260.231 327.538 260.231 327.538 390.59Z" fill-rule="evenodd"/><path d="M361 290 382 290 382 298 361 298Z" fill-rule="evenodd"/><path d="M298 269 319 269 319 277 298 277Z" fill-rule="evenodd"/><path d="M361 269 382 269 382 277 361 277Z" fill-rule="evenodd"/><path d="M361 311 382 311 382 319 361 319Z" fill-rule="evenodd"/><path d="M361 353 382 353 382 361 361 361Z" fill-rule="evenodd"/><path d="M361 374 382 374 382 382 361 382Z" fill-rule="evenodd"/><path d="M361 332 382 332 382 340 361 340Z" fill-rule="evenodd"/></g></svg>