<svg width="48" height="48" xmlns="http://www.w3.org/2000/svg" xmlns:xlink="http://www.w3.org/1999/xlink" xml:space="preserve" overflow="hidden"><g transform="translate(-70 -70)"><path d="M82 106 82 83 81 82 77 82 76 82.96 75 105.96 77 106.04 77.96 84 80 84 80 106 82 106 82 106Z"/><path d="M72 106.96 84 106.96 84 104.96 72 104.96"/><path d="M81 91 89 91 89 89 81 89"/><path d="M94.14 84.49 91.14 89.49 92 91 94.23 91 92.14 94.49 93.86 95.51 96.86 90.51 96 89 93.77 89 95.86 85.51 94.14 84.49 94.14 84.49Z"/><path d="M88.37 99.1C88.37 99.1 87.75 99.6 87.15 100.37 86.56 101.15 85.89 102.25 85.88 103.64 85.88 104.68 86.31 105.81 87.29 106.76 87.95 107.43 88.1 107.93 88.11 108.41 88.11 108.73 88.02 109.07 87.87 109.4 87.64 109.9 87.27 110.37 86.94 110.7 86.78 110.87 86.63 111 86.53 111.08L86.41 111.18 86.38 111.2 86.38 111.2C86.38 111.2 86.63 111.53 86.63 111.53L86.39 111.2 86.39 111.2C86.39 111.2 86.64 111.53 86.64 111.53L86.4 111.2 87.6 112.8C87.6 112.8 88.22 112.33 88.83 111.59 89.13 111.22 89.45 110.77 89.69 110.24 89.93 109.71 90.11 109.09 90.11 108.42 90.11 107.4 89.67 106.29 88.7 105.34 88.04 104.68 87.89 104.16 87.88 103.65 87.88 103.31 87.97 102.95 88.13 102.6 88.36 102.07 88.74 101.57 89.07 101.21 89.23 101.03 89.38 100.89 89.48 100.8L89.6 100.7 89.63 100.68 89.63 100.68C89.63 100.68 89.39 100.38 89.39 100.38L89.63 100.67 89.63 100.67C89.63 100.67 89.39 100.38 89.39 100.38L89.63 100.67 88.38 99.11 88.38 99.11Z"/><path d="M94.67 98.74C94.67 98.74 94.05 99.24 93.45 100.01 92.86 100.79 92.19 101.89 92.18 103.28 92.18 104.32 92.61 105.45 93.59 106.4 94.25 107.07 94.4 107.57 94.41 108.05 94.41 108.37 94.32 108.71 94.17 109.04 93.94 109.54 93.57 110.01 93.24 110.34 93.08 110.51 92.93 110.64 92.83 110.72L92.71 110.82 92.68 110.84 92.68 110.84C92.68 110.84 92.93 111.17 92.93 111.17L92.69 110.84 92.69 110.84C92.69 110.84 92.94 111.17 92.94 111.17L92.7 110.84 93.9 112.44C93.9 112.44 94.52 111.97 95.13 111.23 95.43 110.86 95.75 110.41 95.99 109.88 96.23 109.35 96.41 108.73 96.41 108.06 96.41 107.04 95.97 105.93 95 104.98 94.34 104.32 94.19 103.8 94.18 103.29 94.18 102.95 94.27 102.59 94.43 102.24 94.66 101.71 95.04 101.21 95.37 100.85 95.53 100.67 95.68 100.53 95.78 100.44L95.9 100.34 95.93 100.32 95.93 100.32C95.93 100.32 95.69 100.02 95.69 100.02L95.93 100.31 95.93 100.31C95.93 100.31 95.69 100.02 95.69 100.02L95.93 100.31 94.68 98.75 94.68 98.75Z"/><path d="M100.67 98.74C100.67 98.74 100.05 99.24 99.45 100.01 98.86 100.79 98.19 101.89 98.18 103.28 98.18 104.32 98.61 105.45 99.59 106.4 100.25 107.07 100.4 107.57 100.41 108.05 100.41 108.37 100.32 108.71 100.17 109.04 99.94 109.54 99.57 110.01 99.24 110.34 99.08 110.51 98.93 110.64 98.83 110.72L98.71 110.82 98.68 110.84 98.68 110.84C98.68 110.84 98.93 111.17 98.93 111.17L98.69 110.84 98.69 110.84C98.69 110.84 98.94 111.17 98.94 111.17L98.7 110.84 99.9 112.44C99.9 112.44 100.52 111.97 101.13 111.23 101.43 110.86 101.75 110.41 101.99 109.88 102.23 109.35 102.41 108.73 102.41 108.06 102.41 107.04 101.97 105.93 101 104.98 100.34 104.32 100.19 103.8 100.18 103.29 100.18 102.95 100.27 102.59 100.43 102.24 100.66 101.71 101.04 101.21 101.37 100.85 101.53 100.67 101.68 100.53 101.78 100.44L101.9 100.34 101.93 100.32 101.93 100.32C101.93 100.32 101.69 100.02 101.69 100.02L101.93 100.31 101.93 100.31C101.93 100.31 101.69 100.02 101.69 100.02L101.93 100.31 100.68 98.75 100.68 98.75Z"/><path d="M99.18 91 107 91 108 90 108 84 110.04 84 110.96 105.01 108 105.03 108 90 106 90 106 106.04 107.01 107.04 112.01 107 113 105.96 112 82.96 111 82 107 82 106 83 106 89 99.18 89 99.18 91 99.18 91Z"/><path d="M104 107 116 107 116 105 104 105"/></g></svg>