<svg width="252" height="165" xmlns="http://www.w3.org/2000/svg" xmlns:xlink="http://www.w3.org/1999/xlink" xml:space="preserve" overflow="hidden"><g transform="translate(-868 -1122)"><g><g><g><path d="M152.812 64.5208 139.229 64.5208 139.229 50.9375 135.833 47.5416 10.1875 47.5416 6.79166 50.9375 6.79166 112.062 10.1875 115.458 135.833 115.458 139.229 112.062 139.229 98.4791 152.812 98.4791 156.208 95.0833 156.208 67.9166 152.812 64.5208ZM149.417 91.6875 135.833 91.6875 132.437 95.0833 132.437 108.667 13.5833 108.667 13.5833 54.3333 132.437 54.3333 132.437 67.9166 135.833 71.3125 149.417 71.3125 149.417 91.6875Z" fill="#D90000" transform="matrix(-1.84824e-16 -1.00614 1 -1.83697e-16 957 1287)"/><path d="M23.7708 61.125 20.375 64.5208 20.375 98.4791 23.7708 101.875 37.3542 101.875 40.75 98.4791 40.75 64.5208 37.3542 61.125 23.7708 61.125ZM33.9583 95.0833 27.1667 95.0833 27.1667 67.9166 33.9583 67.9166 33.9583 95.0833Z" fill="#D90000" transform="matrix(-1.84824e-16 -1.00614 1 -1.83697e-16 957 1287)"/><path d="M50.9375 61.125 47.5416 64.5208 47.5416 98.4791 50.9375 101.875 64.5208 101.875 67.9166 98.4791 67.9166 64.5208 64.5208 61.125 50.9375 61.125ZM61.125 95.0833 54.3333 95.0833 54.3333 67.9166 61.125 67.9166 61.125 95.0833Z" fill="#D90000" transform="matrix(-1.84824e-16 -1.00614 1 -1.83697e-16 957 1287)"/><path d="M78.1041 61.125 74.7083 64.5208 74.7083 98.4791 78.1041 101.875 91.6875 101.875 95.0833 98.4791 95.0833 64.5208 91.6875 61.125 78.1041 61.125ZM88.2916 95.0833 81.5 95.0833 81.5 67.9166 88.2916 67.9166 88.2916 95.0833Z" fill="#D90000" transform="matrix(-1.84824e-16 -1.00614 1 -1.83697e-16 957 1287)"/></g></g></g><g><g><g><path d="M932.521 1132.19 932.521 1145.77 918.937 1145.77 915.542 1149.17 915.542 1274.81 918.937 1278.21 980.062 1278.21 983.458 1274.81 983.458 1149.17 980.062 1145.77 966.479 1145.77 966.479 1132.19 963.083 1128.79 935.917 1128.79 932.521 1132.19ZM959.687 1135.58 959.687 1149.17 963.083 1152.56 976.667 1152.56 976.667 1271.42 922.333 1271.42 922.333 1152.56 935.917 1152.56 939.312 1149.17 939.312 1135.58 959.687 1135.58Z" fill="#0070C0"/><path d="M929.125 1261.23 932.521 1264.62 966.479 1264.62 969.875 1261.23 969.875 1247.65 966.479 1244.25 932.521 1244.25 929.125 1247.65 929.125 1261.23ZM963.083 1251.04 963.083 1257.83 935.917 1257.83 935.917 1251.04 963.083 1251.04Z" fill="#0070C0"/><path d="M929.125 1234.06 932.521 1237.46 966.479 1237.46 969.875 1234.06 969.875 1220.48 966.479 1217.08 932.521 1217.08 929.125 1220.48 929.125 1234.06ZM963.083 1223.87 963.083 1230.67 935.917 1230.67 935.917 1223.87 963.083 1223.87Z" fill="#0070C0"/><path d="M929.125 1206.9 932.521 1210.29 966.479 1210.29 969.875 1206.9 969.875 1193.31 966.479 1189.92 932.521 1189.92 929.125 1193.31 929.125 1206.9ZM963.083 1196.71 963.083 1203.5 935.917 1203.5 935.917 1196.71 963.083 1196.71Z" fill="#0070C0"/></g></g></g></g></svg>