<svg width="1019" height="334" xmlns="http://www.w3.org/2000/svg" xmlns:xlink="http://www.w3.org/1999/xlink" xml:space="preserve" overflow="hidden"><g transform="translate(-1147 -1018)"><text font-family="ABBvoice,ABBvoice_MSFontService,sans-serif" font-weight="400" font-size="9" transform="matrix(1 0 0 1 1512.27 1297)">Solvent </text><text font-family="ABBvoice,ABBvoice_MSFontService,sans-serif" font-weight="400" font-size="9" transform="matrix(1 0 0 1 1510.25 1308)">recovery</text><text font-family="ABBvoice,ABBvoice_MSFontService,sans-serif" font-weight="700" font-size="9" transform="matrix(1 0 0 1 1287.22 1319)">1.</text><text font-family="ABBvoice,ABBvoice_MSFontService,sans-serif" font-weight="700" font-size="9" transform="matrix(1 0 0 1 1296.39 1319)">Electrode Preparation</text><text font-family="ABBvoice,ABBvoice_MSFontService,sans-serif" font-weight="400" font-size="9" transform="matrix(1 0 0 1 1291.55 1297)">Mixing</text><text font-family="ABBvoice,ABBvoice_MSFontService,sans-serif" font-weight="400" font-size="9" transform="matrix(1 0 0 1 1362.73 1297)">Coating</text><text font-family="ABBvoice,ABBvoice_MSFontService,sans-serif" font-weight="400" font-size="9" transform="matrix(1 0 0 1 1440.5 1297)">Drying</text><g><g><g><path d="M0.916667 11.4583 11.9167 11.4583 11.9167 10.5417 0.916667 10.5417" transform="matrix(1 0 0 1.04546 1369 1260)"/><path d="M15.6292 11 15.1708 11C15.1708 11.7792 14.5292 12.4208 13.75 12.4208 12.9708 12.4208 12.3292 11.7792 12.3292 11 12.3292 10.2208 12.9708 9.57917 13.75 9.57917 14.5292 9.57917 15.1708 10.2208 15.1708 11L15.6292 11 16.0875 11C16.0875 9.71667 15.0333 8.6625 13.75 8.6625 12.4667 8.6625 11.4125 9.71667 11.4125 11 11.4125 12.2833 12.4667 13.3375 13.75 13.3375 15.0333 13.3375 16.0875 12.2833 16.0875 11L15.6292 11Z" transform="matrix(1 0 0 1.04546 1369 1260)"/><path d="M14.2083 9.16667 14.2083 1.83333 13.2917 1.83333 13.2917 9.16667" transform="matrix(1 0 0 1.04546 1369 1260)"/><path d="M14.2083 20.1667 14.2083 12.8333 13.2917 12.8333 13.2917 20.1667" transform="matrix(1 0 0 1.04546 1369 1260)"/><path d="M12.0542 12.0542 7.47083 16.6375 8.1125 17.2792 12.6958 12.6958" transform="matrix(1 0 0 1.04546 1369 1260)"/><path d="M19.3875 4.72083 14.8042 9.30417 15.4458 9.94583 20.0292 5.3625" transform="matrix(1 0 0 1.04546 1369 1260)"/><path d="M14.8042 12.6958 19.3875 17.2792 20.0292 16.6375 15.4458 12.0542" transform="matrix(1 0 0 1.04546 1369 1260)"/><path d="M7.47083 5.3625 12.0542 9.94583 12.6958 9.30417 8.1125 4.72083" transform="matrix(1 0 0 1.04546 1369 1260)"/><path d="M15.5833 11.4583 21.0833 11.4583 21.0833 10.5417 15.5833 10.5417" transform="matrix(1 0 0 1.04546 1369 1260)"/></g></g></g><g><g><g><path d="M1448.37 1263.64 1450.14 1266.28C1450.19 1266.37 1450.24 1266.42 1450.24 1266.52 1450.24 1266.61 1450.24 1266.66 1450.14 1266.76L1448.7 1268.86C1448.56 1269.1 1448.46 1269.34 1448.46 1269.63 1448.46 1269.92 1448.56 1270.16 1448.7 1270.4L1450.14 1272.51C1450.19 1272.6 1450.24 1272.65 1450.24 1272.75 1450.24 1272.84 1450.24 1272.89 1450.14 1272.99L1448.37 1275.62 1449.18 1276.15 1450.95 1273.51C1451.1 1273.27 1451.19 1273.03 1451.19 1272.75 1451.19 1272.46 1451.1 1272.22 1450.95 1271.98L1449.52 1269.87C1449.47 1269.77 1449.42 1269.73 1449.42 1269.63 1449.42 1269.54 1449.42 1269.49 1449.52 1269.39L1450.95 1267.28C1451.1 1267.04 1451.19 1266.8 1451.19 1266.52 1451.19 1266.23 1451.1 1265.99 1450.95 1265.75L1449.18 1263.11 1448.37 1263.64 1448.37 1263.64Z" fill="#020203"/><path d="M1457.95 1263.64 1459.72 1266.28C1459.77 1266.37 1459.82 1266.42 1459.82 1266.52 1459.82 1266.61 1459.82 1266.66 1459.72 1266.76L1458.29 1268.86C1458.14 1269.1 1458.05 1269.34 1458.05 1269.63 1458.05 1269.92 1458.14 1270.16 1458.29 1270.4L1459.72 1272.51C1459.77 1272.6 1459.82 1272.65 1459.82 1272.75 1459.82 1272.84 1459.82 1272.89 1459.72 1272.99L1457.95 1275.62 1458.76 1276.15 1460.54 1273.51C1460.68 1273.27 1460.78 1273.03 1460.78 1272.75 1460.78 1272.46 1460.68 1272.22 1460.54 1271.98L1459.1 1269.87C1459.05 1269.77 1459 1269.73 1459 1269.63 1459 1269.54 1459 1269.49 1459.1 1269.39L1460.54 1267.28C1460.68 1267.04 1460.78 1266.8 1460.78 1266.52 1460.78 1266.23 1460.68 1265.99 1460.54 1265.75L1458.76 1263.11 1457.95 1263.64 1457.95 1263.64Z" fill="#020203"/><path d="M1453.16 1263.64 1454.93 1266.28C1454.98 1266.37 1455.03 1266.42 1455.03 1266.52 1455.03 1266.61 1455.03 1266.66 1454.93 1266.76L1453.49 1268.86C1453.35 1269.1 1453.25 1269.34 1453.25 1269.63 1453.25 1269.92 1453.35 1270.16 1453.49 1270.4L1454.93 1272.51C1454.98 1272.6 1455.03 1272.65 1455.03 1272.75 1455.03 1272.84 1455.03 1272.89 1454.93 1272.99L1453.16 1275.62 1453.97 1276.15 1455.75 1273.51C1455.89 1273.27 1455.99 1273.03 1455.99 1272.75 1455.99 1272.46 1455.89 1272.22 1455.75 1271.98L1454.31 1269.87C1454.26 1269.77 1454.21 1269.73 1454.21 1269.63 1454.21 1269.54 1454.21 1269.49 1454.31 1269.39L1455.75 1267.28C1455.89 1267.04 1455.99 1266.8 1455.99 1266.52 1455.99 1266.23 1455.89 1265.99 1455.75 1265.75L1453.97 1263.11 1453.16 1263.64 1453.16 1263.64Z" fill="#020203"/><path d="M1444.44 1279.65 1444.44 1280.12 1464.56 1280.12 1465.04 1279.65 1465.04 1277.73 1464.56 1277.25 1444.44 1277.25 1443.96 1277.73 1443.96 1279.65 1444.44 1280.12 1444.44 1279.65 1444.92 1279.65 1444.92 1278.21 1464.08 1278.21 1464.08 1279.17 1444.44 1279.17 1444.44 1279.65 1444.92 1279.65Z" fill="#020203"/></g></g></g><g><g><g><path d="M1529.94 1276.29C1529.94 1272.12 1525.25 1266.01 1525.05 1265.75L1524.29 1265.75C1524.09 1266.01 1519.4 1272.12 1519.4 1276.29 1519.4 1279.68 1521.56 1282.04 1524.67 1282.04 1527.77 1282.04 1529.94 1279.68 1529.94 1276.29ZM1524.67 1281.08C1522.13 1281.08 1520.35 1279.11 1520.35 1276.29 1520.35 1273.11 1523.55 1268.4 1524.67 1266.85 1525.78 1268.4 1528.98 1273.11 1528.98 1276.29 1528.98 1279.11 1527.21 1281.08 1524.67 1281.08Z"/><path d="M1537.6 1268.15C1537.6 1265.18 1534.25 1261.29 1534.14 1261.13L1533.41 1261.13C1533.29 1261.29 1529.94 1265.18 1529.94 1268.15 1529.94 1270.6 1531.59 1272.46 1533.77 1272.46 1535.96 1272.46 1537.6 1270.6 1537.6 1268.15ZM1530.9 1268.15C1530.9 1266.08 1532.92 1263.27 1533.77 1262.2 1534.62 1263.27 1536.65 1266.08 1536.65 1268.15 1536.65 1270.09 1535.44 1271.5 1533.77 1271.5 1532.1 1271.5 1530.9 1270.09 1530.9 1268.15Z"/></g></g></g><g><g><g><path d="M1296.87 1271.5C1296.87 1274.89 1298.86 1277.97 1301.95 1279.36L1302.35 1278.49C1298.49 1276.75 1296.77 1272.21 1298.52 1268.35 1299.65 1265.84 1302.04 1264.13 1304.79 1263.87L1303.72 1264.93 1304.4 1265.61 1306.32 1263.69 1306.32 1263.01 1304.4 1261.1 1303.72 1261.78 1304.85 1262.91C1300.36 1263.25 1296.88 1266.99 1296.87 1271.5Z"/><path d="M1306.6 1277.39 1304.68 1279.31 1304.68 1279.99 1306.6 1281.9 1307.28 1281.22 1306.15 1280.09C1310.9 1279.73 1314.45 1275.58 1314.09 1270.83 1313.85 1267.69 1311.92 1264.94 1309.05 1263.64L1308.66 1264.51C1312.51 1266.26 1314.22 1270.81 1312.47 1274.66 1311.34 1277.17 1308.95 1278.87 1306.21 1279.13L1307.28 1278.07Z"/></g></g></g><path d="M1327 1269.85 1345.34 1269.85 1345.34 1272.15 1327 1272.15ZM1340.75 1261.83 1359.09 1271 1340.76 1280.17Z" fill="#FF000F"/><path d="M1401 1269.85 1419.34 1269.85 1419.34 1272.15 1401 1272.15ZM1414.76 1261.83 1433.09 1271 1414.76 1280.17Z" fill="#FF000F"/><path d="M1475 1269.85 1493.34 1269.85 1493.34 1272.15 1475 1272.15ZM1488.76 1261.83 1507.09 1271 1488.76 1280.17Z" fill="#FF000F"/><text font-family="ABBvoice,ABBvoice_MSFontService,sans-serif" font-weight="700" font-size="9" transform="matrix(1 0 0 1 1578.75 1317)">2. Cell Manufacturing</text><text font-family="ABBvoice,ABBvoice_MSFontService,sans-serif" font-weight="400" font-size="9" transform="matrix(1 0 0 1 1583.14 1296)">Stacking</text><text font-family="ABBvoice,ABBvoice_MSFontService,sans-serif" font-weight="400" font-size="9" transform="matrix(1 0 0 1 1659.2 1296)">Vacuum </text><text font-family="ABBvoice,ABBvoice_MSFontService,sans-serif" font-weight="400" font-size="9" transform="matrix(1 0 0 1 1662.93 1307)">drying</text><text font-family="ABBvoice,ABBvoice_MSFontService,sans-serif" font-weight="400" font-size="9" transform="matrix(1 0 0 1 1734.96 1296)">Slitting</text><text font-family="ABBvoice,ABBvoice_MSFontService,sans-serif" font-weight="400" font-size="9" transform="matrix(1 0 0 1 1799.27 1296)">Calendering</text><g><g><g><path d="M1814.92 1266.71 1835.08 1266.71 1835.08 1267.63 1814.92 1267.63Z" fill="#010101"/><path d="M1824.54 1269 1825.46 1269 1825.46 1269.92 1824.54 1269.92Z" fill="#010101"/><path d="M1827.29 1270.38 1828.21 1270.38 1828.21 1271.29 1827.29 1271.29Z" fill="#010101"/><path d="M1828.21 1272.67 1829.12 1272.67 1829.12 1273.58 1828.21 1273.58Z" fill="#010101"/><path d="M1821.79 1270.38 1822.71 1270.38 1822.71 1271.29 1821.79 1271.29Z" fill="#010101"/><path d="M1820.88 1272.67 1821.79 1272.67 1821.79 1273.58 1820.88 1273.58Z" fill="#010101"/><path d="M1821.79 1274.96 1822.71 1274.96 1822.71 1275.88 1821.79 1275.88Z" fill="#010101"/><path d="M1824.54 1276.33 1825.46 1276.33 1825.46 1277.25 1824.54 1277.25Z" fill="#010101"/><path d="M1825 1274.96C1823.99 1274.96 1823.17 1274.14 1823.17 1273.13 1823.17 1272.11 1823.99 1271.29 1825 1271.29 1826.01 1271.29 1826.83 1272.11 1826.83 1273.13 1826.83 1274.14 1826.01 1274.96 1825 1274.96ZM1825 1272.21C1824.5 1272.21 1824.08 1272.62 1824.08 1273.13 1824.08 1273.63 1824.5 1274.04 1825 1274.04 1825.5 1274.04 1825.92 1273.63 1825.92 1273.13 1825.92 1272.62 1825.5 1272.21 1825 1272.21Z" fill="#010101"/><path d="M1825 1264.88C1823.99 1264.88 1823.17 1264.05 1823.17 1263.04 1823.17 1262.03 1823.99 1261.21 1825 1261.21 1826.01 1261.21 1826.83 1262.03 1826.83 1263.04 1826.83 1264.05 1826.01 1264.88 1825 1264.88ZM1825 1262.13C1824.5 1262.13 1824.08 1262.54 1824.08 1263.04 1824.08 1263.55 1824.5 1263.96 1825 1263.96 1825.5 1263.96 1825.92 1263.55 1825.92 1263.04 1825.92 1262.54 1825.5 1262.13 1825 1262.13Z" fill="#010101"/><path d="M1825 1279.08C1821.71 1279.08 1819.04 1276.41 1819.04 1273.13 1819.04 1269.84 1821.71 1267.17 1825 1267.17 1828.29 1267.17 1830.96 1269.84 1830.96 1273.13 1830.96 1276.41 1828.29 1279.08 1825 1279.08ZM1825 1268.08C1822.22 1268.08 1819.96 1270.34 1819.96 1273.13 1819.96 1275.91 1822.22 1278.17 1825 1278.17 1827.78 1278.17 1830.04 1275.91 1830.04 1273.13 1830.04 1270.34 1827.78 1268.08 1825 1268.08Z" fill="#010101"/><path d="M1825 1267.17C1822.73 1267.17 1820.88 1265.32 1820.88 1263.04 1820.88 1260.77 1822.73 1258.92 1825 1258.92 1827.27 1258.92 1829.12 1260.77 1829.12 1263.04 1829.12 1265.32 1827.27 1267.17 1825 1267.17ZM1825 1259.83C1823.23 1259.83 1821.79 1261.27 1821.79 1263.04 1821.79 1264.81 1823.23 1266.25 1825 1266.25 1826.77 1266.25 1828.21 1264.81 1828.21 1263.04 1828.21 1261.27 1826.77 1259.83 1825 1259.83Z" fill="#010101"/><path d="M1827.29 1274.96 1828.21 1274.96 1828.21 1275.88 1827.29 1275.88Z" fill="#010101"/></g></g></g><g><g><g><path d="M9.39583 3.93708C9.40958 3.63 9.72583 3.29542 9.83125 3.20375L9.53792 2.85083 9.24458 2.49792C9.17125 2.5575 8.52042 3.12125 8.47917 3.88667 8.46083 4.28542 8.61208 4.66583 8.92375 4.98667 9.1025 5.16542 9.11625 5.30292 9.10708 5.38542 9.08875 5.66958 8.78625 5.97208 8.68542 6.05L9.24917 6.77417C9.3225 6.71458 9.97333 6.19208 10.0238 5.445 10.0421 5.16542 9.9825 4.74833 9.57917 4.34042 9.405 4.16167 9.39125 4.02417 9.39583 3.9325Z" transform="matrix(1.04546 0 0 1 1665 1258)"/><path d="M11.1833 3.83167C11.1971 3.52458 11.5088 3.19 11.6188 3.09833L11.3254 2.74542 11.0321 2.3925C10.9587 2.45208 10.3079 3.01583 10.2667 3.78125 10.2483 4.18 10.3996 4.56042 10.7113 4.88125 10.89 5.06 10.9038 5.1975 10.8946 5.28 10.8763 5.56417 10.5738 5.86667 10.4729 5.94458L11.0367 6.66875C11.11 6.60917 11.7608 6.08667 11.8113 5.34417 11.8296 5.06458 11.77 4.6475 11.3667 4.235 11.1925 4.05625 11.1788 3.91875 11.1833 3.82708Z" transform="matrix(1.04546 0 0 1 1665 1258)"/><path d="M12.8883 3.83167C12.9021 3.52458 13.2137 3.19 13.3238 3.09833L13.0304 2.74542 12.7371 2.3925C12.6637 2.45208 12.0129 3.01583 11.9717 3.78125 11.9533 4.18 12.1046 4.56042 12.4163 4.88125 12.595 5.06 12.6088 5.1975 12.5996 5.28458 12.5813 5.56875 12.2788 5.87125 12.1779 5.94917L12.7417 6.67333C12.815 6.61375 13.4658 6.09125 13.5163 5.34875 13.5346 5.06917 13.475 4.65208 13.0717 4.23958 12.8975 4.06083 12.8838 3.92333 12.8883 3.83167Z" transform="matrix(1.04546 0 0 1 1665 1258)"/><path d="M9.11167 11.8067C9.09333 12.0908 8.79083 12.3933 8.69 12.4712L9.25375 13.1954C9.32708 13.1358 9.97792 12.6133 10.0283 11.8663 10.0467 11.5867 9.98708 11.1696 9.58375 10.7617 9.40958 10.5829 9.39583 10.4454 9.40042 10.3538 9.41417 10.0467 9.73042 9.71208 9.83583 9.62042L9.5425 9.2675 9.24917 8.91458C9.17583 8.97417 8.525 9.53792 8.48375 10.3033 8.46542 10.7021 8.61667 11.0825 8.92833 11.4033 9.10708 11.5821 9.12083 11.7196 9.11167 11.8021Z" transform="matrix(1.04546 0 0 1 1665 1258)"/><path d="M10.8992 11.7013C10.8808 11.9854 10.5783 12.2879 10.4775 12.3658L11.0413 13.09C11.1146 13.0304 11.7654 12.5079 11.8158 11.7654 11.8342 11.4858 11.7746 11.0688 11.3713 10.6562 11.1971 10.4775 11.1833 10.34 11.1879 10.2483 11.2017 9.94125 11.5133 9.60667 11.6233 9.515L11.33 9.16208 11.0367 8.80917C10.9633 8.86875 10.3125 9.4325 10.2712 10.1979 10.2529 10.5967 10.4042 10.9771 10.7158 11.2979 10.8946 11.4767 10.9083 11.6142 10.8992 11.6967Z" transform="matrix(1.04546 0 0 1 1665 1258)"/><path d="M12.6042 11.7013C12.5858 11.9854 12.2833 12.2879 12.1825 12.3658L12.7463 13.09C12.8196 13.0304 13.4704 12.5079 13.5208 11.7654 13.5392 11.4858 13.4796 11.0688 13.0763 10.6562 12.9021 10.4775 12.8883 10.34 12.8929 10.2483 12.9067 9.94125 13.2183 9.60667 13.3283 9.515L13.035 9.16208 12.7417 8.80917C12.6683 8.86875 12.0175 9.4325 11.9762 10.1979 11.9579 10.5967 12.1092 10.9771 12.4208 11.2979 12.5996 11.4767 12.6133 11.6142 12.6042 11.7013Z" transform="matrix(1.04546 0 0 1 1665 1258)"/><path d="M9.11167 18.2233C9.09333 18.5075 8.79083 18.81 8.69 18.8879L9.25375 19.6121C9.32708 19.5525 9.97792 19.03 10.0283 18.2829 10.0467 18.0033 9.98708 17.5863 9.58375 17.1783 9.40958 16.9996 9.39583 16.8621 9.40042 16.7704 9.41417 16.4633 9.73042 16.1287 9.83583 16.0371L9.5425 15.6842 9.24917 15.3313C9.17583 15.3908 8.525 15.9546 8.48375 16.72 8.46542 17.1187 8.61667 17.4992 8.92833 17.82 9.10708 17.9988 9.12083 18.1362 9.11167 18.2188Z" transform="matrix(1.04546 0 0 1 1665 1258)"/><path d="M10.8992 18.1179C10.8808 18.4021 10.5783 18.7046 10.4775 18.7825L11.0413 19.5067C11.1146 19.4471 11.7654 18.9246 11.8158 18.1821 11.8342 17.9025 11.7746 17.4854 11.3713 17.0729 11.1971 16.8942 11.1833 16.7567 11.1879 16.665 11.2017 16.3579 11.5133 16.0233 11.6233 15.9317L11.33 15.5788 11.0367 15.2258C10.9633 15.2854 10.3125 15.8492 10.2712 16.6146 10.2529 17.0133 10.4042 17.3938 10.7158 17.7146 10.8946 17.8933 10.9083 18.0308 10.8992 18.1133Z" transform="matrix(1.04546 0 0 1 1665 1258)"/><path d="M12.6042 18.1179C12.5858 18.4021 12.2833 18.7046 12.1825 18.7825L12.7463 19.5067C12.8196 19.4471 13.4704 18.9246 13.5208 18.1821 13.5392 17.9025 13.4796 17.4854 13.0763 17.0729 12.9021 16.8942 12.8883 16.7567 12.8929 16.665 12.9067 16.3579 13.2183 16.0233 13.3283 15.9317L13.035 15.5788 12.7417 15.2258C12.6683 15.2854 12.0175 15.8492 11.9762 16.6146 11.9579 17.0133 12.1092 17.3938 12.4208 17.7146 12.5996 17.8933 12.6133 18.0308 12.6042 18.1179Z" transform="matrix(1.04546 0 0 1 1665 1258)"/><path d="M17.875 0.916667 4.125 0.916667 3.66667 1.375 3.66667 20.625 4.125 21.0833 17.875 21.0833 18.3333 20.625 18.3333 1.375 17.875 0.916667ZM4.58333 1.83333 17.4167 1.83333 17.4167 7.33333 4.58333 7.33333 4.58333 1.83333ZM17.4167 13.75 4.58333 13.75 4.58333 8.25 17.4167 8.25 17.4167 13.75ZM17.4167 20.1667 4.58333 20.1667 4.58333 14.6667 17.4167 14.6667 17.4167 20.1667Z" transform="matrix(1.04546 0 0 1 1665 1258)"/></g></g></g><g><g><g><path d="M2.75 4.58333 2.29167 5.04167 2.29167 20.625 2.75 21.0833 15.5833 21.0833 16.0417 20.625 16.0417 13.0212 16.9583 12.1046 16.9583 18.7917 17.875 18.7917 17.875 11.1879 18.7917 10.2712 18.7917 16.9583 19.7083 16.9583 19.7083 1.375 19.25 0.916667 6.41667 0.916667 6.41667 1.83333 11.7288 1.83333 10.8121 2.75 4.58333 2.75 4.58333 3.66667 9.89542 3.66667 8.97875 4.58333ZM15.125 5.5 15.125 12.375 9.625 12.375 9.625 5.5ZM3.20833 5.5 8.70833 5.5 8.70833 12.375 3.20833 12.375ZM3.20833 20.1667 3.20833 13.2917 8.70833 13.2917 8.70833 20.1667ZM9.625 20.1667 9.625 13.2917 15.125 13.2917 15.125 20.1667ZM13.0212 1.83333 18.7917 1.83333 18.7917 8.97875 17.875 9.89542 17.875 3.20833 17.4167 2.75 12.1046 2.75ZM11.1879 3.66667 16.9583 3.66667 16.9583 10.8121 16.0417 11.7288 16.0417 5.04167 15.5833 4.58333 10.2712 4.58333Z" transform="matrix(-1.83697e-16 -1 -1 1.83697e-16 1613 1280)"/></g></g></g><g><g><g><path d="M15.5833 19.7083 5.95833 19.7083 5.5 19.25 5.5 2.75 5.95833 2.29167 15.5833 2.29167 16.0417 2.75 16.0417 19.25 15.5833 19.7083ZM6.41667 18.7917 15.125 18.7917 15.125 3.20833 6.41667 3.20833 6.41667 18.7917Z" transform="matrix(6.12323e-17 1 -1.04546 6.40157e-17 1762 1258)"/><path d="M7.79167 2.75 8.70833 2.75 8.70833 18.7917 7.79167 18.7917Z" transform="matrix(6.12323e-17 1 -1.04546 6.40157e-17 1762 1258)"/><path d="M13.2917 2.75 14.2083 2.75 14.2083 18.7917 13.2917 18.7917Z" transform="matrix(6.12323e-17 1 -1.04546 6.40157e-17 1762 1258)"/><path d="M11.4583 2.75 12.375 2.75 12.375 18.7917 11.4583 18.7917Z" transform="matrix(6.12323e-17 1 -1.04546 6.40157e-17 1762 1258)"/><path d="M9.625 2.75 10.5417 2.75 10.5417 18.7917 9.625 18.7917Z" transform="matrix(6.12323e-17 1 -1.04546 6.40157e-17 1762 1258)"/><path d="M18.6588 7.65875 18.0079 7.00792 19.0621 5.95833 18.0079 4.90875 18.6588 4.25792 20.0338 5.63292 20.0338 6.28375 18.6588 7.65875Z" transform="matrix(6.12323e-17 1 -1.04546 6.40157e-17 1762 1258)"/><path d="M15.8583 5.5 19.0667 5.5 19.0667 6.41667 15.8583 6.41667Z" transform="matrix(6.12323e-17 1 -1.04546 6.40157e-17 1762 1258)"/><path d="M19.5754 12.7004 18.9246 12.0496 19.9788 11 18.9246 9.95042 19.5754 9.29958 20.9504 10.6746 20.9504 11.3254 19.5754 12.7004Z" transform="matrix(6.12323e-17 1 -1.04546 6.40157e-17 1762 1258)"/><path d="M15.5833 10.5417 20.1667 10.5417 20.1667 11.4583 15.5833 11.4583Z" transform="matrix(6.12323e-17 1 -1.04546 6.40157e-17 1762 1258)"/><path d="M18.6588 17.7421 18.0079 17.0913 19.0621 16.0417 18.0079 14.9921 18.6588 14.3413 20.0338 15.7163 20.0338 16.3671 18.6588 17.7421Z" transform="matrix(6.12323e-17 1 -1.04546 6.40157e-17 1762 1258)"/><path d="M15.5833 15.5833 19.25 15.5833 19.25 16.5 15.5833 16.5Z" transform="matrix(6.12323e-17 1 -1.04546 6.40157e-17 1762 1258)"/><path d="M2.29167 10.5417 9.625 10.5417 9.625 11.4583 2.29167 11.4583Z" transform="matrix(6.12323e-17 1 -1.04546 6.40157e-17 1762 1258)"/><path d="M0.916667 5.5 9.625 5.5 9.625 6.41667 0.916667 6.41667Z" transform="matrix(6.12323e-17 1 -1.04546 6.40157e-17 1762 1258)"/><path d="M0.916667 15.5833 9.625 15.5833 9.625 16.5 0.916667 16.5Z" transform="matrix(6.12323e-17 1 -1.04546 6.40157e-17 1762 1258)"/></g></g></g><path d="M1.14599 13.75 1.14619 32.0887-1.14547 32.0888-1.14568 13.75ZM-9.16646 18.3334 0 0 9.16687 18.3332Z" fill="#FF000F" transform="matrix(-6.12323e-17 -1 -1 6.12323e-17 1655.09 1269)"/><path d="M1.14599 13.75 1.14619 32.0887-1.14547 32.0888-1.14568 13.75ZM-9.16646 18.3334 0 0 9.16687 18.3332Z" fill="#FF000F" transform="matrix(-6.12323e-17 -1 -1 6.12323e-17 1730.09 1269)"/><path d="M1.14599 13.75 1.14619 32.0887-1.14547 32.0888-1.14568 13.75ZM-9.16646 18.3334 0 0 9.16687 18.3332Z" fill="#FF000F" transform="matrix(-6.12323e-17 -1 -1 6.12323e-17 1804.09 1269)"/><text font-family="ABBvoice,ABBvoice_MSFontService,sans-serif" font-weight="400" font-size="9" transform="matrix(1 0 0 1 1891.13 1295)">Welding</text><text font-family="ABBvoice,ABBvoice_MSFontService,sans-serif" font-weight="400" font-size="9" transform="matrix(1 0 0 1 1962.03 1295)">Enclosing</text><text font-family="ABBvoice,ABBvoice_MSFontService,sans-serif" font-weight="400" font-size="9" transform="matrix(1 0 0 1 2034.35 1295)">Formation</text><text font-family="ABBvoice,ABBvoice_MSFontService,sans-serif" font-weight="400" font-size="9" transform="matrix(1 0 0 1 2119 1295)">Aging</text><text font-family="ABBvoice,ABBvoice_MSFontService,sans-serif" font-weight="700" font-size="9" transform="matrix(1 0 0 1 1885.94 1314)">3. Pack Manufacturing &amp; Electrochemistry Activation</text><g><g><g><path d="M1897.96 1262.83 1899.35 1262.83 1901.79 1263.22 1901.79 1266.28 1899.35 1266.67 1897.96 1266.67 1897.96 1267.62 1899.4 1267.62 1899.44 1267.62 1902.32 1267.15 1902.75 1266.67 1902.75 1262.83 1902.32 1262.35 1899.44 1261.88 1899.4 1261.88 1897.96 1261.88 1897.96 1262.83Z" fill="#020203"/><path d="M1912.43 1272.99 1912.67 1273.37 1914.2 1272.32 1914.35 1271.75 1913.2 1269.06 1912.48 1268.87 1909.94 1270.64 1909.89 1271.41 1912.09 1273.37 1912.67 1273.37 1912.43 1272.99 1912.72 1272.66 1910.99 1271.07 1912.52 1269.97 1913.34 1271.75 1912.14 1272.61 1912.43 1272.99 1912.72 1272.66Z" fill="#020203"/><path d="M1902.27 1264.27 1907.78 1264.27 1911.95 1269.83 1912.72 1269.25 1908.4 1263.5 1908.02 1263.31 1902.27 1263.31 1902.27 1264.27Z" fill="#020203"/><path d="M1902.27 1266.19 1906.82 1266.19 1910.37 1270.93 1911.14 1270.36 1907.45 1265.42 1907.06 1265.23 1902.27 1265.23 1902.27 1266.19Z" fill="#020203"/><path d="M1913.1 1267.58 1917.7 1269.25 1915.83 1271.12 1915.74 1271.7 1917.51 1274.52 1914.82 1273.85 1914.25 1274.33 1914.25 1277.35 1911.71 1274.48 1911.04 1274.43 1909.31 1275.82 1908.5 1270.4 1907.54 1270.6 1908.5 1276.82 1909.27 1277.11 1911.28 1275.48 1914.35 1278.98 1915.21 1278.65 1915.21 1274.96 1918.42 1275.77 1918.95 1275.05 1916.74 1271.51 1918.9 1269.4 1918.71 1268.63 1913.44 1266.71 1913.1 1267.58Z" fill="#020203"/></g></g></g><g><g><g><path d="M7.33486 14.6606 4.58772 14.6606 4.12986 14.2027 4.12986 8.25057 4.58772 7.79272 7.33486 7.79272 7.79272 8.25057 7.79272 14.2027 7.33486 14.6606ZM5.04558 13.7448 6.877 13.7448 6.877 8.70843 5.04558 8.70843 5.04558 13.7448Z" transform="matrix(1 0 0 1.04544 2046 1259)"/><path d="M17.4077 14.6606 14.6606 14.6606 14.2027 14.2027 14.2027 8.25057 14.6606 7.79272 17.4077 7.79272 17.8656 8.25057 17.8656 14.2027 17.4077 14.6606ZM15.1184 13.7448 16.9498 13.7448 16.9498 8.70843 15.1184 8.70843 15.1184 13.7448Z" transform="matrix(1 0 0 1.04544 2046 1259)"/><path d="M9.92175 6.31384 9.33111 5.61332 11.1076 4.12986 9.62414 4.12986 9.33111 3.32404 12.0783 1.03476 12.6689 1.73528 10.8924 3.21415 12.3713 3.21415 12.6689 4.02456 9.92175 6.31384Z" transform="matrix(1 0 0 1.04544 2046 1259)"/><path d="M19.697 21.0706 2.29844 21.0706 1.84058 20.6127 1.84058 10.082 2.29844 9.62414 4.58772 9.62414 4.58772 10.5399 2.7563 10.5399 2.7563 20.1548 19.2391 20.1548 19.2391 10.5399 17.4077 10.5399 17.4077 9.62414 19.697 9.62414 20.1548 10.082 20.1548 20.6127 19.697 21.0706Z" transform="matrix(1 0 0 1.04544 2046 1259)"/><path d="M14.2027 16.9498 17.8656 16.9498 17.8656 17.8656 14.2027 17.8656Z" transform="matrix(1 0 0 1.04544 2046 1259)"/><path d="M4.12986 16.9498 7.79272 16.9498 7.79272 17.8656 4.12986 17.8656Z" transform="matrix(1 0 0 1.04544 2046 1259)"/><path d="M15.5763 15.5763 16.492 15.5763 16.492 19.2391 15.5763 19.2391Z" transform="matrix(1 0 0 1.04544 2046 1259)"/><path d="M6.877 9.62414 14.2027 9.62414 14.2027 10.5399 6.877 10.5399Z" transform="matrix(1 0 0 1.04544 2046 1259)"/><path d="M6.41915 8.25057 5.50343 8.25057 5.50343 3.67201 5.96129 3.21415 8.25057 3.21415 8.25057 4.12986 6.41915 4.12986 6.41915 8.25057Z" transform="matrix(1 0 0 1.04544 2046 1259)"/><path d="M16.492 8.25057 15.5763 8.25057 15.5763 4.12986 13.7448 4.12986 13.7448 3.21415 16.0341 3.21415 16.492 3.67201 16.492 8.25057Z" transform="matrix(1 0 0 1.04544 2046 1259)"/></g></g></g><g><g><g><path d="M3.83328 19.6456 3.83328 21.5622 4.31244 22.0414 18.6872 22.0414 19.1664 21.5622 19.1664 19.6456 19.0801 19.3676 13.5219 11.4998 19.0801 3.63203 19.1664 3.35412 19.1664 1.43748 18.6872 0.95832 4.31244 0.95832 3.83328 1.43748 3.83328 3.35412 3.91953 3.63203 9.47778 11.4998 3.91953 19.3676ZM4.7916 19.7989 10.4553 11.7777 10.4553 11.2219 4.7916 3.20079 4.7916 1.91664 18.2081 1.91664 18.2081 3.20079 12.5444 11.2219 12.5444 11.7777 18.2081 19.7989 18.2081 21.083 4.7916 21.083Z" transform="matrix(1.00002 0 0 1 2120 1259)"/><path d="M11.1021 13.1529 7.26885 18.9029 7.66656 19.6456 15.3331 19.6456 15.7308 18.9029 11.8975 13.1529ZM8.56259 18.6872 11.4998 14.279 14.4371 18.6872Z" transform="matrix(1.00002 0 0 1 2120 1259)"/><path d="M11.8975 10.3259 13.8142 7.45094 13.4165 6.70824 9.5832 6.70824 9.18549 7.45094 11.1021 10.3259ZM12.5204 7.66656 11.4998 9.19987 10.4792 7.66656Z" transform="matrix(1.00002 0 0 1 2120 1259)"/></g></g></g><g><g><g><path d="M1.43748 0.95832 0.95832 1.43748 0.95832 6.22908 1.91664 6.22908 1.91664 1.91664 21.083 1.91664 21.083 21.083 1.91664 21.083 1.91664 16.7706 0.95832 16.7706 0.95832 21.5622 1.43748 22.0414 21.5622 22.0414 22.0414 21.5622 22.0414 1.43748 21.5622 0.95832 1.43748 0.95832Z" transform="matrix(1.00002 0 0 1 1971 1259)"/><path d="M10.7284 14.4754 11.313 15.2325 15.6254 11.8784 15.6254 11.1213 11.313 7.76718 10.7284 8.52425 13.9388 11.0207 0.95832 11.0207 0.95832 11.979 13.9388 11.979 10.7284 14.4754Z" transform="matrix(1.00002 0 0 1 1971 1259)"/></g></g></g><path d="M1929 1269.85 1947.34 1269.85 1947.34 1272.15 1929 1272.15ZM1942.76 1261.83 1961.09 1271 1942.76 1280.17Z" fill="#FF000F"/><path d="M2004 1269.85 2022.34 1269.85 2022.34 1272.15 2004 1272.15ZM2017.76 1261.83 2036.09 1271 2017.76 1280.17Z" fill="#FF000F"/><path d="M2078 1269.85 2096.34 1269.85 2096.34 1272.15 2078 1272.15ZM2091.76 1261.83 2110.09 1271 2091.76 1280.17Z" fill="#FF000F"/><g><g><g><path d="M1543.58 1116.75C1547.44 1116.75 1550.58 1113.61 1550.58 1109.75 1550.58 1105.89 1547.44 1102.75 1543.58 1102.75 1539.72 1102.75 1536.58 1105.89 1536.58 1109.75 1536.58 1113.61 1539.72 1116.75 1543.58 1116.75ZM1543.58 1103.92C1546.8 1103.92 1549.42 1106.53 1549.42 1109.75 1549.42 1112.97 1546.8 1115.58 1543.58 1115.58 1540.37 1115.58 1537.75 1112.97 1537.75 1109.75 1537.75 1106.53 1540.37 1103.92 1543.58 1103.92Z"/><path d="M1543.58 1111.5C1544.55 1111.5 1545.33 1110.71 1545.33 1109.75 1545.33 1108.79 1544.55 1108 1543.58 1108 1542.62 1108 1541.83 1108.79 1541.83 1109.75 1541.83 1110.71 1542.62 1111.5 1543.58 1111.5ZM1543.58 1109.17C1543.91 1109.17 1544.17 1109.43 1544.17 1109.75 1544.17 1110.07 1543.91 1110.33 1543.58 1110.33 1543.26 1110.33 1543 1110.07 1543 1109.75 1543 1109.43 1543.26 1109.17 1543.58 1109.17Z"/><path d="M1543 1105.08 1544.17 1105.08 1544.17 1106.83 1543 1106.83Z"/><path d="M1543 1112.67 1544.17 1112.67 1544.17 1114.42 1543 1114.42Z"/><path d="M1538.92 1109.17 1540.67 1109.17 1540.67 1110.33 1538.92 1110.33Z"/><path d="M1546.5 1109.17 1548.25 1109.17 1548.25 1110.33 1546.5 1110.33Z"/><path d="M1539.67 1106.66 1540.5 1105.84 1541.66 1107 1540.84 1107.83Z"/><path d="M1545.5 1107 1546.67 1105.84 1547.5 1106.66 1546.33 1107.83Z"/><path d="M1539.67 1112.84 1540.84 1111.67 1541.66 1112.5 1540.5 1113.66Z"/><path d="M1545.5 1112.5 1546.33 1111.67 1547.5 1112.84 1546.67 1113.66Z"/><path d="M1552.92 1109.75C1552.92 1104.6 1548.73 1100.42 1543.58 1100.42 1541.96 1100.42 1540.35 1100.85 1538.94 1101.65L1538.94 1100.42 1540.67 1100.42 1541.25 1099.83 1541.25 1097.5 1540.67 1096.92 1538.92 1096.92 1538.92 1095.75 1538.33 1095.17 1534.83 1095.17 1534.25 1095.75 1534.25 1096.92 1532.5 1096.92 1531.92 1097.5 1531.92 1099.83 1532.5 1100.42 1534.25 1100.42 1534.25 1109.75C1534.25 1112.42 1535.38 1114.82 1537.18 1116.52L1534.38 1119.88 1534.83 1120.83 1552.33 1120.83 1552.78 1119.88 1549.99 1116.52C1551.79 1114.82 1552.92 1112.42 1552.92 1109.75ZM1533.08 1099.25 1533.08 1098.08 1534.25 1098.08 1534.25 1099.25 1533.08 1099.25ZM1540.08 1098.08 1540.08 1099.25 1538.93 1099.25 1538.93 1098.08 1540.08 1098.08ZM1535.42 1109.75 1535.42 1096.33 1537.75 1096.33 1537.78 1102.73 1538.71 1103.2C1540.11 1102.16 1541.84 1101.58 1543.58 1101.58 1548.09 1101.58 1551.75 1105.25 1551.75 1109.75 1551.75 1114.25 1548.09 1117.92 1543.58 1117.92 1539.08 1117.92 1535.42 1114.25 1535.42 1109.75ZM1551.09 1119.67 1536.08 1119.67 1538.08 1117.27C1539.62 1118.4 1541.52 1119.08 1543.58 1119.08 1545.64 1119.08 1547.54 1118.4 1549.09 1117.27L1551.09 1119.67Z"/></g></g></g><g><g><g><path d="M14.962 7.93048C14.3461 5.64574 12.1382 3.95831 9.69787 3.95831 7.16613 3.95831 4.96372 5.75657 4.45627 8.26337L4.40046 8.70829 3.95831 8.70829C2.2123 8.70829 0.791663 10.1289 0.791663 11.8749 0.791663 13.6209 2.2123 15.0416 3.95831 15.0416L14.6458 15.0416C16.6103 15.0416 18.2082 13.4436 18.2082 11.4791 18.2082 9.62147 16.7789 8.09079 14.962 7.93048ZM14.6458 14.2499 3.95831 14.2499C2.64851 14.2499 1.58333 13.1847 1.58333 11.8749 1.58333 10.5651 2.64851 9.49995 3.95831 9.49995L4.74998 9.49995 5.14264 9.1532 5.23685 8.39123C5.66514 6.28145 7.54138 4.74998 9.69787 4.74998 11.8761 4.74998 13.8363 6.31549 14.2578 8.39123L14.6458 8.70829C16.1733 8.70829 17.4166 9.95159 17.4166 11.4791 17.4166 13.0066 16.1733 14.2499 14.6458 14.2499Z" transform="matrix(1.05263 0 0 1 1761 1089)"/></g></g></g><g><g><g><path d="M1788.53 1106.4 1787.35 1107.15 1785.83 1099.17 1785.42 1098.83 1783.32 1098.83 1782.91 1099.18 1781.27 1108.28 1780.42 1108.87 1780.42 1106.75 1779.76 1106.41 1776.25 1108.87 1776.25 1106.75 1775.61 1106.4 1771.03 1109.31 1770.83 1109.67 1770.83 1116.75 1771.25 1117.17 1788.75 1117.17 1789.17 1116.75 1789.17 1106.75 1788.53 1106.4ZM1783.67 1099.67 1785.07 1099.67 1786.59 1107.63 1784.58 1108.91 1784.58 1106.75 1783.93 1106.41 1782.24 1107.6 1783.67 1099.67ZM1788.33 1116.33 1771.67 1116.33 1771.67 1109.9 1775.42 1107.51 1775.42 1109.67 1776.07 1110.01 1779.58 1107.55 1779.59 1109.68 1780.25 1110.02 1783.75 1107.55 1783.75 1109.67 1784.39 1110.02 1788.33 1107.51 1788.33 1116.33Z"/><path d="M1773.33 1112.17 1774.17 1112.17 1774.17 1113.83 1773.33 1113.83Z"/><path d="M1775.42 1112.17 1776.25 1112.17 1776.25 1113.83 1775.42 1113.83Z"/><path d="M1777.5 1112.17 1778.33 1112.17 1778.33 1113.83 1777.5 1113.83Z"/><path d="M1779.58 1112.17 1780.42 1112.17 1780.42 1113.83 1779.58 1113.83Z"/><path d="M1781.67 1112.17 1782.5 1112.17 1782.5 1113.83 1781.67 1113.83Z"/><path d="M1783.75 1112.17 1784.58 1112.17 1784.58 1113.83 1783.75 1113.83Z"/><path d="M1785.83 1112.17 1786.67 1112.17 1786.67 1113.83 1785.83 1113.83Z"/></g></g></g><g><g><g><path d="M9.81757 16.0768 8.84923 15.4234 9.3334 15.7501 8.84923 15.4234C8.84923 15.4234 9.91674 13.8018 9.91674 11.6667 9.91674 10.6459 9.3859 9.72423 8.8259 8.75006 8.21339 7.68839 7.58339 6.58588 7.58339 5.25004 7.58339 2.67752 8.87256 1.38834 8.92506 1.33584L9.74174 2.17002C9.70673 2.20502 8.75006 3.19669 8.75006 5.25587 8.75006 6.27671 9.2809 7.19838 9.8409 8.17256 10.4534 9.23423 11.0834 10.3367 11.0834 11.6726 11.0834 14.1809 9.87007 16.0068 9.81757 16.0826Z" transform="matrix(1.0357 0 0 1 1335 1020)"/><path d="M14.4843 16.0768 13.5159 15.4234 14.0001 15.7501 13.5159 15.4234C13.5159 15.4234 14.5834 13.8018 14.5834 11.6667 14.5834 10.6459 14.0526 9.72423 13.4926 8.75006 12.8801 7.68839 12.2501 6.58588 12.2501 5.25004 12.2501 2.67752 13.5393 1.38834 13.5918 1.33584L14.4084 2.17002C14.3734 2.20502 13.4168 3.19669 13.4168 5.25587 13.4168 6.27671 13.9476 7.19838 14.5076 8.17256 15.1201 9.23423 15.7501 10.3367 15.7501 11.6726 15.7501 14.1809 14.5368 16.0068 14.4843 16.0826Z" transform="matrix(1.0357 0 0 1 1335 1020)"/><path d="M19.151 16.0768 18.1826 15.4234 18.6668 15.7501 18.1826 15.4234C18.1826 15.4234 19.2501 13.8018 19.2501 11.6667 19.2501 10.6459 18.7193 9.72423 18.1593 8.75006 17.5468 7.68839 16.9168 6.58588 16.9168 5.25004 16.9168 2.67752 18.206 1.38834 18.2585 1.33584L19.0751 2.17002C19.0401 2.20502 18.0835 3.19669 18.0835 5.25587 18.0835 6.27671 18.6143 7.19838 19.1743 8.17256 19.7868 9.23423 20.4168 10.3367 20.4168 11.6726 20.4168 14.1809 19.2035 16.0068 19.151 16.0826Z" transform="matrix(1.0357 0 0 1 1335 1020)"/><path d="M14.8664 23.3564 18.4166 23.3564 18.4166 24.5243 14.8664 24.5243Z" transform="matrix(0.170238 -0.985403 1.02058 0.164369 1324.95 1056.38)"/><path d="M14.0001 18.0835 19.8335 26.2502" fill="#FFFFFF" transform="matrix(1.0357 0 0 1 1335 1020)"/><path d="M16.5237 17.3499 17.7039 17.3499 17.7039 27.5001 16.5237 27.5001Z" transform="matrix(0.833059 -0.574579 0.595093 0.804342 1324.92 1033.96)"/><path d="M6.14075 21.8469 16.2966 21.8469 16.2966 23.0278 6.14075 23.0278Z" transform="matrix(0.594765 -0.803899 0.8326 0.574263 1321.12 1038.3)"/><path d="M11.0892 25.7602 10.6051 22.8377 7.67672 23.3277 7.49005 22.1727 11.5617 21.496 12.2443 25.5735 11.0892 25.7602Z" transform="matrix(1.0357 0 0 1 1335 1020)"/><path d="M4.6667 17.5001 23.3335 17.5001 23.3335 18.6668 4.6667 18.6668Z" transform="matrix(1.0357 0 0 1 1335 1020)"/><path d="M19.8815 17.7806 21.0684 17.7806 21.0684 21.9764 19.8815 21.9764Z" transform="matrix(0.71984 -0.695026 0.71984 0.695026 1326.8 1039.96)"/><path d="M5.91103 19.288 10.1069 19.288 10.1069 20.475 5.91103 20.475Z" transform="matrix(0.71984 -0.695026 0.71984 0.695026 1323.08 1031.29)"/><path d="M18.1012 20.7055 19.269 20.7055 19.269 24.2556 18.1012 24.2556Z" transform="matrix(0.17006 -0.985434 1.02062 0.164198 1328.21 1057.18)"/></g></g></g><g><g><g><path d="M26.2498 11.0833 23.9165 11.0833 23.9165 8.74995 23.3332 8.16662 1.74999 8.16662 1.16666 8.74995 1.16666 19.2499 1.74999 19.8332 23.3332 19.8332 23.9165 19.2499 23.9165 16.9166 26.2498 16.9166 26.8332 16.3332 26.8332 11.6666 26.2498 11.0833ZM25.6665 15.7499 23.3332 15.7499 22.7499 16.3332 22.7499 18.6666 2.33332 18.6666 2.33332 9.33328 22.7499 9.33328 22.7499 11.6666 23.3332 12.2499 25.6665 12.2499 25.6665 15.7499Z" fill="#D90000" transform="matrix(-1.83697e-16 -1 1.00001 -1.83699e-16 1615 1198)"/><path d="M4.08331 10.4999 3.49998 11.0833 3.49998 16.9166 4.08331 17.4999 6.41663 17.4999 6.99996 16.9166 6.99996 11.0833 6.41663 10.4999 4.08331 10.4999ZM5.8333 16.3332 4.66664 16.3332 4.66664 11.6666 5.8333 11.6666 5.8333 16.3332Z" fill="#D90000" transform="matrix(-1.83697e-16 -1 1.00001 -1.83699e-16 1615 1198)"/><path d="M8.74995 10.4999 8.16662 11.0833 8.16662 16.9166 8.74995 17.4999 11.0833 17.4999 11.6666 16.9166 11.6666 11.0833 11.0833 10.4999 8.74995 10.4999ZM10.4999 16.3332 9.33328 16.3332 9.33328 11.6666 10.4999 11.6666 10.4999 16.3332Z" fill="#D90000" transform="matrix(-1.83697e-16 -1 1.00001 -1.83699e-16 1615 1198)"/><path d="M13.4166 10.4999 12.8333 11.0833 12.8333 16.9166 13.4166 17.4999 15.7499 17.4999 16.3332 16.9166 16.3332 11.0833 15.7499 10.4999 13.4166 10.4999ZM15.1666 16.3332 13.9999 16.3332 13.9999 11.6666 15.1666 11.6666 15.1666 16.3332Z" fill="#D90000" transform="matrix(-1.83697e-16 -1 1.00001 -1.83699e-16 1615 1198)"/></g></g></g><g><g><g><path d="M26.2498 11.0833 23.9165 11.0833 23.9165 8.74995 23.3332 8.16662 1.74999 8.16662 1.16666 8.74995 1.16666 19.2499 1.74999 19.8332 23.3332 19.8332 23.9165 19.2499 23.9165 16.9166 26.2498 16.9166 26.8332 16.3332 26.8332 11.6666 26.2498 11.0833ZM25.6665 15.7499 23.3332 15.7499 22.7499 16.3332 22.7499 18.6666 2.33332 18.6666 2.33332 9.33328 22.7499 9.33328 22.7499 11.6666 23.3332 12.2499 25.6665 12.2499 25.6665 15.7499Z" fill="#0070C0" transform="matrix(-1.83697e-16 -1 1.03572 -1.90258e-16 1599 1198)"/><path d="M4.08331 10.4999 3.49998 11.0833 3.49998 16.9166 4.08331 17.4999 6.41663 17.4999 6.99996 16.9166 6.99996 11.0833 6.41663 10.4999 4.08331 10.4999ZM5.8333 16.3332 4.66664 16.3332 4.66664 11.6666 5.8333 11.6666 5.8333 16.3332Z" fill="#0070C0" transform="matrix(-1.83697e-16 -1 1.03572 -1.90258e-16 1599 1198)"/><path d="M8.74995 10.4999 8.16662 11.0833 8.16662 16.9166 8.74995 17.4999 11.0833 17.4999 11.6666 16.9166 11.6666 11.0833 11.0833 10.4999 8.74995 10.4999ZM10.4999 16.3332 9.33328 16.3332 9.33328 11.6666 10.4999 11.6666 10.4999 16.3332Z" fill="#0070C0" transform="matrix(-1.83697e-16 -1 1.03572 -1.90258e-16 1599 1198)"/><path d="M13.4166 10.4999 12.8333 11.0833 12.8333 16.9166 13.4166 17.4999 15.7499 17.4999 16.3332 16.9166 16.3332 11.0833 15.7499 10.4999 13.4166 10.4999ZM15.1666 16.3332 13.9999 16.3332 13.9999 11.6666 15.1666 11.6666 15.1666 16.3332Z" fill="#0070C0" transform="matrix(-1.83697e-16 -1 1.03572 -1.90258e-16 1599 1198)"/></g></g></g><g><g><g><path d="M17.4941 6.99996 19.8274 6.99996 19.8274 9.33328 20.994 9.33328 20.994 6.99996 23.1745 6.99996 23.4545 5.90505 14.9385 1.23841 14.6585 1.16666 13.3483 1.16666 13.0683 1.23841 4.55231 5.90505 4.83231 6.99996 6.99471 6.99996 6.99471 9.33328 8.16137 9.33328 8.16137 6.99996 10.4947 6.99996 10.4947 10.8155 4.55172 14.0717 4.83231 15.1666 6.99471 15.1666 6.99471 17.4999 8.16137 17.4999 8.16137 15.1666 10.2024 15.1666 5.22955 26.0066 5.7598 26.8332 7.08921 26.8332 7.42696 26.7253 13.9941 22.0656 20.5612 26.7253 20.899 26.8332 22.2284 26.8332 22.7586 26.0066 17.7863 15.1666 19.8274 15.1666 19.8274 17.4999 20.994 17.4999 20.994 15.1666 23.1745 15.1666 23.4545 14.0717 17.4941 10.8056 17.4941 6.99996ZM17.4941 5.8333 17.4941 3.96898 20.896 5.8333 17.4941 5.8333ZM13.4977 2.33332 14.5092 2.33332 16.3274 3.32965 16.3274 5.8333 11.6608 5.8333 11.6608 3.33956 13.4977 2.33332ZM7.11021 5.8333 10.4941 3.97889 10.4941 5.8333 7.11021 5.8333ZM11.6608 6.99996 16.3274 6.99996 16.3274 10.1663 14.9385 9.40503 14.6585 9.33328 13.3483 9.33328 13.0683 9.40503 11.6613 10.1762 11.6613 6.99996ZM11.6608 13.9999 11.6608 11.5062 13.4977 10.4999 14.5092 10.4999 16.3274 11.4963 16.3274 13.9999 11.6608 13.9999ZM10.4941 12.1455 10.4941 13.9999 7.11021 13.9999 10.4941 12.1455ZM6.90313 25.6665 6.66921 25.6665 9.71419 19.0288 12.9867 21.3505 6.90313 25.6665ZM21.085 25.6665 15.0021 21.3505 18.2746 19.0288 21.319 25.6665 21.085 25.6665ZM17.7793 17.9496 13.9941 20.6353 10.2089 17.9496 11.4858 15.1666 16.503 15.1666 17.7793 17.9496ZM20.896 13.9999 17.4941 13.9999 17.4941 12.1356 20.896 13.9999Z" transform="matrix(1.21429 0 0 1 1147 1180)"/></g></g></g><g><g><g><path d="M12.393 22.1184 12.6258 22.1668 12.8334 22.1668 15.1668 22.1668 15.6305 22.1668 15.9239 22.0875C20.9616 19.1586 22.6142 13.9225 20.0359 9.05631 17.8408 4.91578 12.6637 1.60768 12.4443 1.46943L11.5489 1.96235C11.5489 5.96054 8.88831 8.9064 8.83173 8.97115 6.89971 11.4322 6.21138 13.828 6.78363 16.0919 7.7928 20.0796 12.3475 22.0986 12.393 22.1184ZM13.0831 21.0001C13.0084 20.9377 12.9209 20.8706 12.8177 20.7925 12.2513 20.362 11.1972 19.5605 11.0467 18.3862 10.9428 17.5789 11.2777 16.6753 12.0168 15.732 12.071 15.6714 13.1543 14.4545 13.4967 12.6637 14.325 13.3094 15.5862 14.4219 16.2267 15.6294 17.1309 17.335 17.2715 19.6246 15.0081 21.0001L13.0831 21.0001ZM9.71957 9.72599C9.83157 9.60465 12.2635 6.9248 12.6608 3.03044 14.2019 4.13236 17.461 6.6903 19.0045 9.6029 20.7942 12.9798 20.3106 16.4519 17.8787 19.0687 18.1873 17.8525 17.9936 16.4729 17.2575 15.0828 16.117 12.9314 13.4477 11.1773 13.3345 11.1038L12.4327 11.5927C12.4327 13.4938 11.1622 14.9358 11.1242 14.9807 10.16 16.2098 9.74407 17.4056 9.88874 18.535 9.9144 18.7345 9.95815 18.9235 10.0136 19.1049 9.10881 18.2614 8.25422 17.1536 7.91356 15.8009 7.43639 13.9068 8.05414 11.8505 9.71957 9.72599Z" transform="matrix(1 0 0 1.03572 1395 1018)"/><path d="M23.9168 23.3335 21.0001 23.3335 20.4168 23.9168 20.4168 25.6668 18.6668 25.6668 18.6668 23.9168 18.0835 23.3335 15.1668 23.3335 14.5834 23.9168 14.5834 25.6668 12.8334 25.6668 12.8334 23.9168 12.2501 23.3335 9.3334 23.3335 8.75006 23.9168 8.75006 25.6668 7.00005 25.6668 7.00005 23.9168 6.41671 23.3335 3.50002 23.3335 2.91669 23.9168 2.91669 26.8335 4.08336 26.8335 4.08336 24.5002 5.83337 24.5002 5.83337 26.2502 6.41671 26.8335 9.3334 26.8335 9.91674 26.2502 9.91674 24.5002 11.6667 24.5002 11.6667 26.2502 12.2501 26.8335 15.1668 26.8335 15.7501 26.2502 15.7501 24.5002 17.5001 24.5002 17.5001 26.2502 18.0835 26.8335 21.0001 26.8335 21.5835 26.2502 21.5835 24.5002 23.3335 24.5002 23.3335 26.8335 24.5002 26.8335 24.5002 23.9168Z" transform="matrix(1 0 0 1.03572 1395 1018)"/></g></g></g><path d="M1621 1136 1621 1163.3" stroke="#FF000F" stroke-width="2.29167" stroke-linejoin="round" stroke-miterlimit="10" fill="none" fill-rule="evenodd"/><path d="M1621 1138 1693.03 1138" stroke="#FF000F" stroke-width="2.29167" stroke-linejoin="round" stroke-miterlimit="10" fill="none" fill-rule="evenodd"/><path d="M0 0 0.000360892 122.031" stroke="#0070C0" stroke-width="2.29167" stroke-linejoin="round" stroke-miterlimit="10" fill="none" fill-rule="evenodd" transform="matrix(1 0 0 -1 1543 1244.03)"/><path d="M0 0 205.691 0.000360892" stroke="#FF000F" stroke-width="2.29167" stroke-linejoin="round" stroke-miterlimit="10" fill="none" fill-rule="evenodd" transform="matrix(1 0 0 -1 1557 1108)"/><path d="M1281 1108 1528.1 1108" stroke="#FFD100" stroke-width="2.29167" stroke-linejoin="round" stroke-miterlimit="10" fill="none" fill-rule="evenodd"/><path d="M1543 1138 1615.03 1138" stroke="#0070C0" stroke-width="2.29167" stroke-linejoin="round" stroke-miterlimit="10" fill="none" fill-rule="evenodd"/><path d="M1612 1136 1612 1163.3" stroke="#0070C0" stroke-width="2.29167" stroke-linejoin="round" stroke-miterlimit="10" fill="none" fill-rule="evenodd"/><path d="M1667 1108 1667 1135.3" stroke="#FF000F" stroke-width="2.29167" stroke-linejoin="round" stroke-miterlimit="10" fill="none" fill-rule="evenodd"/><path d="M0 0 0.000360892 244.837" stroke="#FFD100" stroke-width="2.29167" stroke-linejoin="round" stroke-miterlimit="10" fill="none" fill-rule="evenodd" transform="matrix(1 0 0 -1 1281 1350.84)"/><path d="M1471 1176 1543.03 1176" stroke="#0070C0" stroke-width="2.29167" stroke-linejoin="round" stroke-miterlimit="10" fill="none" fill-rule="evenodd"/><g><g><g><path d="M1450.75 1165.35C1450.1 1162.94 1447.78 1161.17 1445.21 1161.17 1442.54 1161.17 1440.23 1163.06 1439.69 1165.7L1439.63 1166.17 1439.17 1166.17C1437.33 1166.17 1435.83 1167.66 1435.83 1169.5 1435.83 1171.34 1437.33 1172.83 1439.17 1172.83L1450.42 1172.83C1452.48 1172.83 1454.17 1171.15 1454.17 1169.08 1454.17 1167.13 1452.66 1165.52 1450.75 1165.35ZM1450.42 1172 1439.17 1172C1437.79 1172 1436.67 1170.88 1436.67 1169.5 1436.67 1168.12 1437.79 1167 1439.17 1167L1440 1167 1440.41 1166.64 1440.51 1165.83C1440.96 1163.61 1442.94 1162 1445.21 1162 1447.5 1162 1449.56 1163.65 1450.01 1165.83L1450.42 1166.17C1452.02 1166.17 1453.33 1167.48 1453.33 1169.08 1453.33 1170.69 1452.02 1172 1450.42 1172Z"/></g></g></g><g><g><g><path d="M1462.53 1175.4 1461.35 1176.15 1459.83 1168.17 1459.42 1167.83 1457.32 1167.83 1456.91 1168.18 1455.27 1177.28 1454.42 1177.87 1454.42 1175.75 1453.76 1175.41 1450.25 1177.87 1450.25 1175.75 1449.61 1175.4 1445.03 1178.31 1444.83 1178.67 1444.83 1185.75 1445.25 1186.17 1462.75 1186.17 1463.17 1185.75 1463.17 1175.75 1462.53 1175.4ZM1457.67 1168.67 1459.07 1168.67 1460.59 1176.63 1458.58 1177.91 1458.58 1175.75 1457.93 1175.41 1456.24 1176.6 1457.67 1168.67ZM1462.33 1185.33 1445.67 1185.33 1445.67 1178.9 1449.42 1176.51 1449.42 1178.67 1450.07 1179.01 1453.59 1176.55 1453.59 1178.68 1454.25 1179.02 1457.75 1176.55 1457.75 1178.67 1458.39 1179.02 1462.33 1176.51 1462.33 1185.33Z"/><path d="M1447.33 1181.17 1448.17 1181.17 1448.17 1182.83 1447.33 1182.83Z"/><path d="M1449.42 1181.17 1450.25 1181.17 1450.25 1182.83 1449.42 1182.83Z"/><path d="M1451.5 1181.17 1452.33 1181.17 1452.33 1182.83 1451.5 1182.83Z"/><path d="M1453.58 1181.17 1454.42 1181.17 1454.42 1182.83 1453.58 1182.83Z"/><path d="M1455.67 1181.17 1456.5 1181.17 1456.5 1182.83 1455.67 1182.83Z"/><path d="M1457.75 1181.17 1458.58 1181.17 1458.58 1182.83 1457.75 1182.83Z"/><path d="M1459.83 1181.17 1460.67 1181.17 1460.67 1182.83 1459.83 1182.83Z"/></g></g></g><path d="M1693 1140 1693 1221.05" stroke="#FF000F" stroke-width="2.29167" stroke-linejoin="round" stroke-miterlimit="10" fill="none" fill-rule="evenodd"/><path d="M1281 1351 2155.69 1351" stroke="#FFD100" stroke-width="2.29167" stroke-linejoin="round" stroke-miterlimit="10" fill="none" fill-rule="evenodd"/><path d="M0 0 0.000360892 56.3176" stroke="#FFD100" stroke-width="2.29167" stroke-linejoin="round" stroke-miterlimit="10" fill="none" fill-rule="evenodd" transform="matrix(1 0 0 -1 1349 1108.32)"/><path d="M0 0 0.000360892 56.3176" stroke="#FFD100" stroke-width="2.29167" stroke-linejoin="round" stroke-miterlimit="10" fill="none" fill-rule="evenodd" transform="matrix(1 0 0 -1 1409 1108.32)"/><path d="M1547 1268.85 1565.34 1268.85 1565.34 1271.15 1547 1271.15ZM1560.75 1260.83 1579.09 1270 1560.76 1279.17Z" fill="#FF000F"/><path d="M1854 1268.85 1872.34 1268.85 1872.34 1271.15 1854 1271.15ZM1867.75 1260.83 1886.09 1270 1867.76 1279.17Z" fill="#FF000F"/><path d="M1307 1208 2148.88 1208" stroke="#0070C0" stroke-width="2.29167" stroke-linejoin="round" stroke-miterlimit="10" fill="none" fill-rule="evenodd"/><path d="M1306 1221 2147.88 1221" stroke="#FF000F" stroke-width="2.29167" stroke-linejoin="round" stroke-miterlimit="10" fill="none" fill-rule="evenodd"/><path d="M1231 1221 1281.55 1221" stroke="#FFD100" stroke-width="2.29167" stroke-linejoin="round" stroke-miterlimit="10" fill="none" fill-rule="evenodd"/><path d="M1174.6 1235.33 1172.49 1236.74 1170.93 1224.71 1170.23 1224 1167.11 1224 1166.25 1224.71 1164.53 1237.61 1162.82 1238.87 1162.82 1236.03 1161.57 1235.33 1156.5 1238.87 1156.5 1236.03 1155.33 1235.33 1148.39 1239.73 1148 1240.44 1148 1251.29 1148.94 1252 1175.06 1252 1176 1251.29 1176 1236.03 1174.6 1235.33ZM1167.81 1225.57 1169.37 1225.57 1170.93 1237.76 1169.06 1239.02 1169.06 1236.03 1167.81 1235.33 1166.41 1236.43 1167.81 1225.57ZM1174.21 1250.43 1149.79 1250.43 1149.79 1240.91 1154.94 1237.61 1154.94 1240.44 1156.19 1241.15 1161.26 1237.61 1161.26 1240.44 1162.43 1241.15 1167.5 1237.61 1167.5 1240.44 1168.67 1241.15 1174.21 1237.61 1174.21 1250.43Z" fill="#020203" fill-rule="evenodd"/><rect x="1152" y="1244" width="2.00012" height="3.00012" fill="#020203"/><rect x="1155" y="1244" width="2.00012" height="3.00012" fill="#020203"/><rect x="1158" y="1244" width="2.00012" height="3.00012" fill="#020203"/><rect x="1162" y="1244" width="1" height="3.00012" fill="#020203"/><rect x="1165" y="1244" width="1" height="3.00012" fill="#020203"/><rect x="1168" y="1244" width="1" height="3.00012" fill="#020203"/><rect x="1171" y="1244" width="1.99976" height="3.00012" fill="#020203"/><path d="M0 0 0.000360892 75.7094" stroke="#FFD100" stroke-width="2.29167" stroke-linejoin="round" stroke-miterlimit="10" fill="none" fill-rule="evenodd" transform="matrix(1 0 0 -1 1231 1258.71)"/><path d="M1181 1201 1231.55 1201" stroke="#FFD100" stroke-width="2.29167" stroke-linejoin="round" stroke-miterlimit="10" fill="none" fill-rule="evenodd"/><path d="M1181 1244 1231.55 1244" stroke="#FFD100" stroke-width="2.29167" stroke-linejoin="round" stroke-miterlimit="10" fill="none" fill-rule="evenodd"/></g></svg>