<svg width="1383" height="998" xmlns="http://www.w3.org/2000/svg" xmlns:xlink="http://www.w3.org/1999/xlink" xml:space="preserve" overflow="hidden"><g transform="translate(-2904 -683)"><text font-family="ABBvoice,ABBvoice_MSFontService,sans-serif" font-weight="400" font-size="41" transform="matrix(1 0 0 1 2993.16 1645)">Welding</text><text font-family="ABBvoice,ABBvoice_MSFontService,sans-serif" font-weight="400" font-size="41" transform="matrix(1 0 0 1 3334.76 1645)">Enclosing</text><text font-family="ABBvoice,ABBvoice_MSFontService,sans-serif" font-weight="400" font-size="41" transform="matrix(1 0 0 1 3684.1 1645)">Formation</text><text font-family="ABBvoice,ABBvoice_MSFontService,sans-serif" font-weight="400" font-size="41" transform="matrix(1 0 0 1 4086.43 1645)">Aging</text><text font-family="ABBvoice,ABBvoice_MSFontService,sans-serif" font-weight="700" font-size="41" transform="matrix(1 0 0 1 2934.82 735)">1.</text><text font-family="ABBvoice,ABBvoice_MSFontService,sans-serif" font-weight="700" font-size="41" transform="matrix(1 0 0 1 2976.64 735)">Electrode Preparation</text><text font-family="ABBvoice,ABBvoice_MSFontService,sans-serif" font-weight="700" font-size="41" transform="matrix(1 0 0 1 2934.82 1074)">2. Cell Manufacturing</text><text font-family="ABBvoice,ABBvoice_MSFontService,sans-serif" font-weight="700" font-size="41" transform="matrix(1 0 0 1 2934.82 1413)">3. Pack Manufacturing &amp; Electrochemistry Activation</text><text font-family="ABBvoice,ABBvoice_MSFontService,sans-serif" font-weight="400" font-size="41" transform="matrix(1 0 0 1 3007.19 962)">Mixing</text><text font-family="ABBvoice,ABBvoice_MSFontService,sans-serif" font-weight="400" font-size="41" transform="matrix(1 0 0 1 3351.66 962)">Coating</text><text font-family="ABBvoice,ABBvoice_MSFontService,sans-serif" font-weight="400" font-size="41" transform="matrix(1 0 0 1 3722.2 962)">Drying</text><text font-family="ABBvoice,ABBvoice_MSFontService,sans-serif" font-weight="400" font-size="41" transform="matrix(1 0 0 1 4070.66 962)">Solvent </text><text font-family="ABBvoice,ABBvoice_MSFontService,sans-serif" font-weight="400" font-size="41" transform="matrix(1 0 0 1 4060.65 1011)">recovery</text><text font-family="ABBvoice,ABBvoice_MSFontService,sans-serif" font-weight="400" font-size="41" transform="matrix(1 0 0 1 2987.14 1299)">Stacking</text><text font-family="ABBvoice,ABBvoice_MSFontService,sans-serif" font-weight="400" font-size="41" transform="matrix(1 0 0 1 3351.37 1299)">Vacuum </text><text font-family="ABBvoice,ABBvoice_MSFontService,sans-serif" font-weight="400" font-size="41" transform="matrix(1 0 0 1 3367.14 1348)">drying</text><text font-family="ABBvoice,ABBvoice_MSFontService,sans-serif" font-weight="400" font-size="41" transform="matrix(1 0 0 1 3715.04 1299)">Slitting</text><text font-family="ABBvoice,ABBvoice_MSFontService,sans-serif" font-weight="400" font-size="41" transform="matrix(1 0 0 1 4025.7 1299)">Calendering</text><g><g><g><path d="M3022.54 1495.17 3029.13 1495.17 3040.71 1496.98 3040.71 1511.52 3029.13 1513.33 3022.54 1513.33 3022.54 1517.88 3029.35 1517.88 3029.58 1517.88 3043.21 1515.6 3045.25 1513.33 3045.25 1495.17 3043.21 1492.9 3029.58 1490.63 3029.35 1490.63 3022.54 1490.63 3022.54 1495.17Z" fill="#020203"/><path d="M3091.12 1543.31 3092.26 1545.13 3099.52 1540.13 3100.2 1537.4 3094.75 1524.69 3091.35 1523.78 3079.31 1532.18 3079.09 1535.81 3089.53 1545.13 3092.26 1545.13 3091.12 1543.31 3092.48 1541.72 3084.31 1534.23 3091.58 1529 3095.44 1537.4 3089.76 1541.49 3091.12 1543.31 3092.48 1541.72Z" fill="#020203"/><path d="M3042.98 1501.98 3069.09 1501.98 3088.85 1528.32 3092.48 1525.6 3072.05 1498.35 3070.23 1497.44 3042.98 1497.44 3042.98 1501.98Z" fill="#020203"/><path d="M3042.98 1511.06 3064.55 1511.06 3081.36 1533.54 3084.99 1530.82 3067.5 1507.43 3065.69 1506.52 3042.98 1506.52 3042.98 1511.06Z" fill="#020203"/><path d="M3094.3 1517.65 3116.1 1525.6 3107.24 1534.45 3106.79 1537.18 3115.19 1550.58 3102.48 1547.4 3099.75 1549.67 3099.75 1563.97 3087.71 1550.35 3084.54 1550.12 3076.36 1556.71 3072.5 1531.05 3067.96 1531.95 3072.5 1561.48 3076.13 1562.84 3085.67 1555.12 3100.2 1571.69 3104.29 1570.1 3104.29 1552.62 3119.51 1556.48 3122 1553.07 3111.56 1536.27 3121.78 1526.28 3120.87 1522.64 3095.89 1513.56 3094.3 1517.65Z" fill="#020203"/></g></g></g><g><g><g><path d="M3768.34 1549.64 3754.73 1549.64 3752.46 1547.37 3752.46 1517.88 3754.73 1515.61 3768.34 1515.61 3770.61 1517.88 3770.61 1547.37 3768.34 1549.64ZM3757 1545.1 3766.07 1545.1 3766.07 1520.15 3757 1520.15 3757 1545.1Z"/><path d="M3818.25 1549.64 3804.64 1549.64 3802.37 1547.37 3802.37 1517.88 3804.64 1515.61 3818.25 1515.61 3820.52 1517.88 3820.52 1547.37 3818.25 1549.64ZM3806.9 1545.1 3815.98 1545.1 3815.98 1520.15 3806.9 1520.15 3806.9 1545.1Z"/><path d="M3781.16 1508.28 3778.23 1504.81 3787.03 1497.46 3779.68 1497.46 3778.23 1493.47 3791.84 1482.13 3794.77 1485.6 3785.97 1492.92 3793.29 1492.92 3794.77 1496.94 3781.16 1508.28Z"/><path d="M3829.59 1581.4 3743.39 1581.4 3741.12 1579.13 3741.12 1526.95 3743.39 1524.68 3754.73 1524.68 3754.73 1529.22 3745.66 1529.22 3745.66 1576.86 3827.32 1576.86 3827.32 1529.22 3818.25 1529.22 3818.25 1524.68 3829.59 1524.68 3831.86 1526.95 3831.86 1579.13 3829.59 1581.4Z"/><path d="M3802.37 1560.98 3820.52 1560.98 3820.52 1565.52 3802.37 1565.52Z"/><path d="M3752.46 1560.98 3770.61 1560.98 3770.61 1565.52 3752.46 1565.52Z"/><path d="M3809.17 1554.17 3813.71 1554.17 3813.71 1572.32 3809.17 1572.32Z"/><path d="M3766.07 1524.68 3802.37 1524.68 3802.37 1529.22 3766.07 1529.22Z"/><path d="M3763.8 1517.88 3759.27 1517.88 3759.27 1495.19 3761.54 1492.92 3772.88 1492.92 3772.88 1497.46 3763.8 1497.46 3763.8 1517.88Z"/><path d="M3813.71 1517.88 3809.17 1517.88 3809.17 1497.46 3800.1 1497.46 3800.1 1492.92 3811.44 1492.92 3813.71 1495.19 3813.71 1517.88Z"/></g></g></g><g><g><g><path d="M4093.54 1161.15 4193.46 1161.15 4193.46 1165.69 4093.54 1165.69Z" fill="#010101"/><path d="M4141.23 1172.5 4145.77 1172.5 4145.77 1177.04 4141.23 1177.04Z" fill="#010101"/><path d="M4154.85 1179.31 4159.4 1179.31 4159.4 1183.85 4154.85 1183.85Z" fill="#010101"/><path d="M4159.4 1190.67 4163.94 1190.67 4163.94 1195.21 4159.4 1195.21Z" fill="#010101"/><path d="M4127.6 1179.31 4132.15 1179.31 4132.15 1183.85 4127.6 1183.85Z" fill="#010101"/><path d="M4123.06 1190.67 4127.6 1190.67 4127.6 1195.21 4123.06 1195.21Z" fill="#010101"/><path d="M4127.6 1202.02 4132.15 1202.02 4132.15 1206.56 4127.6 1206.56Z" fill="#010101"/><path d="M4141.23 1208.83 4145.77 1208.83 4145.77 1213.37 4141.23 1213.37Z" fill="#010101"/><path d="M4143.5 1202.02C4138.48 1202.02 4134.42 1197.96 4134.42 1192.94 4134.42 1187.92 4138.48 1183.85 4143.5 1183.85 4148.52 1183.85 4152.58 1187.92 4152.58 1192.94 4152.58 1197.96 4148.52 1202.02 4143.5 1202.02ZM4143.5 1188.4C4141 1188.4 4138.96 1190.44 4138.96 1192.94 4138.96 1195.44 4141 1197.48 4143.5 1197.48 4146 1197.48 4148.04 1195.44 4148.04 1192.94 4148.04 1190.44 4146 1188.4 4143.5 1188.4Z" fill="#010101"/><path d="M4143.5 1152.06C4138.48 1152.06 4134.42 1148 4134.42 1142.98 4134.42 1137.96 4138.48 1133.9 4143.5 1133.9 4148.52 1133.9 4152.58 1137.96 4152.58 1142.98 4152.58 1148 4148.52 1152.06 4143.5 1152.06ZM4143.5 1138.44C4141 1138.44 4138.96 1140.48 4138.96 1142.98 4138.96 1145.48 4141 1147.52 4143.5 1147.52 4146 1147.52 4148.04 1145.48 4148.04 1142.98 4148.04 1140.48 4146 1138.44 4143.5 1138.44Z" fill="#010101"/><path d="M4143.5 1222.46C4127.22 1222.46 4113.98 1209.22 4113.98 1192.94 4113.98 1176.66 4127.22 1163.42 4143.5 1163.42 4159.78 1163.42 4173.02 1176.66 4173.02 1192.94 4173.02 1209.22 4159.78 1222.46 4143.5 1222.46ZM4143.5 1167.96C4129.72 1167.96 4118.52 1179.15 4118.52 1192.94 4118.52 1206.72 4129.72 1217.92 4143.5 1217.92 4157.28 1217.92 4168.48 1206.72 4168.48 1192.94 4168.48 1179.15 4157.28 1167.96 4143.5 1167.96Z" fill="#010101"/><path d="M4143.5 1163.42C4132.24 1163.42 4123.06 1154.24 4123.06 1142.98 4123.06 1131.72 4132.24 1122.54 4143.5 1122.54 4154.76 1122.54 4163.94 1131.72 4163.94 1142.98 4163.94 1154.24 4154.76 1163.42 4143.5 1163.42ZM4143.5 1127.08C4134.73 1127.08 4127.6 1134.21 4127.6 1142.98 4127.6 1151.74 4134.73 1158.87 4143.5 1158.87 4152.27 1158.87 4159.4 1151.74 4159.4 1142.98 4159.4 1134.21 4152.27 1127.08 4143.5 1127.08Z" fill="#010101"/><path d="M4154.85 1202.02 4159.4 1202.02 4159.4 1206.56 4154.85 1206.56Z" fill="#010101"/></g></g></g><g><g><g><path d="M4.5 56.25 58.5 56.25 58.5 51.75 4.5 51.75" transform="matrix(1.00926 0 0 1 3375 791)"/><path d="M76.7249 54 74.475 54C74.475 57.825 71.325 60.975 67.5 60.975 63.675 60.975 60.525 57.825 60.525 54 60.525 50.175 63.675 47.025 67.5 47.025 71.325 47.025 74.475 50.175 74.475 54L76.7249 54 78.9749 54C78.9749 47.7 73.7999 42.525 67.5 42.525 61.2 42.525 56.025 47.7 56.025 54 56.025 60.3 61.2 65.475 67.5 65.475 73.7999 65.475 78.9749 60.3 78.9749 54L76.7249 54Z" transform="matrix(1.00926 0 0 1 3375 791)"/><path d="M69.75 45 69.75 8.99999 65.25 8.99999 65.25 45" transform="matrix(1.00926 0 0 1 3375 791)"/><path d="M69.75 98.9999 69.75 63 65.25 63 65.25 98.9999" transform="matrix(1.00926 0 0 1 3375 791)"/><path d="M59.175 59.175 36.675 81.6749 39.825 84.825 62.325 62.325" transform="matrix(1.00926 0 0 1 3375 791)"/><path d="M95.1749 23.175 72.6749 45.675 75.825 48.825 98.3249 26.325" transform="matrix(1.00926 0 0 1 3375 791)"/><path d="M72.6749 62.325 95.1749 84.825 98.3249 81.6749 75.825 59.175" transform="matrix(1.00926 0 0 1 3375 791)"/><path d="M36.675 26.325 59.175 48.825 62.325 45.675 39.825 23.175" transform="matrix(1.00926 0 0 1 3375 791)"/><path d="M76.5 56.25 103.5 56.25 103.5 51.75 76.5 51.75" transform="matrix(1.00926 0 0 1 3375 791)"/></g></g></g><g><g><g><path d="M3421.55 1137.51C3421.62 1135.98 3423.19 1134.33 3423.71 1133.87L3422.26 1132.12 3420.8 1130.38C3420.44 1130.67 3417.21 1133.46 3417.01 1137.26 3416.92 1139.23 3417.67 1141.12 3419.21 1142.71 3420.1 1143.59 3420.17 1144.27 3420.12 1144.68 3420.03 1146.09 3418.53 1147.59 3418.03 1147.97L3420.83 1151.56C3421.19 1151.27 3424.41 1148.68 3424.66 1144.98 3424.75 1143.59 3424.46 1141.53 3422.46 1139.5 3421.6 1138.62 3421.53 1137.94 3421.55 1137.48Z"/><path d="M3430.41 1136.98C3430.48 1135.46 3432.02 1133.8 3432.57 1133.35L3431.11 1131.6 3429.66 1129.85C3429.3 1130.15 3426.07 1132.94 3425.87 1136.73 3425.78 1138.71 3426.53 1140.59 3428.07 1142.18 3428.96 1143.07 3429.02 1143.75 3428.98 1144.16 3428.89 1145.57 3427.39 1147.07 3426.89 1147.45L3429.68 1151.04C3430.04 1150.75 3433.27 1148.16 3433.52 1144.48 3433.61 1143.09 3433.31 1141.03 3431.32 1138.98 3430.45 1138.1 3430.39 1137.42 3430.41 1136.96Z"/><path d="M3438.86 1136.98C3438.92 1135.46 3440.47 1133.8 3441.01 1133.35L3439.56 1131.6 3438.11 1129.85C3437.74 1130.15 3434.52 1132.94 3434.31 1136.73 3434.22 1138.71 3434.97 1140.59 3436.52 1142.18 3437.4 1143.07 3437.47 1143.75 3437.43 1144.18 3437.33 1145.59 3435.84 1147.09 3435.34 1147.48L3438.13 1151.06C3438.49 1150.77 3441.72 1148.18 3441.97 1144.5 3442.06 1143.12 3441.76 1141.05 3439.76 1139.01 3438.9 1138.12 3438.83 1137.44 3438.86 1136.98Z"/><path d="M3420.14 1176.5C3420.05 1177.9 3418.55 1179.4 3418.05 1179.79L3420.85 1183.38C3421.21 1183.08 3424.44 1180.49 3424.69 1176.79 3424.78 1175.41 3424.48 1173.34 3422.48 1171.32 3421.62 1170.43 3421.55 1169.75 3421.57 1169.3 3421.64 1167.78 3423.21 1166.12 3423.73 1165.66L3422.28 1163.92 3420.83 1162.17C3420.46 1162.46 3417.24 1165.26 3417.03 1169.05 3416.94 1171.02 3417.69 1172.91 3419.24 1174.5 3420.12 1175.38 3420.19 1176.07 3420.14 1176.47Z"/><path d="M3429 1175.97C3428.91 1177.38 3427.41 1178.88 3426.91 1179.27L3429.7 1182.85C3430.07 1182.56 3433.29 1179.97 3433.54 1176.29 3433.63 1174.91 3433.34 1172.84 3431.34 1170.8 3430.48 1169.91 3430.41 1169.23 3430.43 1168.78 3430.5 1167.25 3432.04 1165.6 3432.59 1165.14L3431.14 1163.39 3429.68 1161.65C3429.32 1161.94 3426.09 1164.73 3425.89 1168.53 3425.8 1170.5 3426.55 1172.39 3428.09 1173.98 3428.98 1174.86 3429.05 1175.54 3429 1175.95Z"/><path d="M3437.45 1175.97C3437.36 1177.38 3435.86 1178.88 3435.36 1179.27L3438.15 1182.85C3438.52 1182.56 3441.74 1179.97 3441.99 1176.29 3442.08 1174.91 3441.79 1172.84 3439.79 1170.8 3438.92 1169.91 3438.86 1169.23 3438.88 1168.78 3438.95 1167.25 3440.49 1165.6 3441.04 1165.14L3439.58 1163.39 3438.13 1161.65C3437.77 1161.94 3434.54 1164.73 3434.34 1168.53 3434.25 1170.5 3435 1172.39 3436.54 1173.98 3437.43 1174.86 3437.49 1175.54 3437.45 1175.97Z"/><path d="M3420.14 1208.29C3420.05 1209.7 3418.55 1211.19 3418.05 1211.58L3420.85 1215.17C3421.21 1214.87 3424.44 1212.28 3424.69 1208.58 3424.78 1207.2 3424.48 1205.13 3422.48 1203.11 3421.62 1202.23 3421.55 1201.54 3421.57 1201.09 3421.64 1199.57 3423.21 1197.91 3423.73 1197.46L3422.28 1195.71 3420.83 1193.96C3420.46 1194.25 3417.24 1197.05 3417.03 1200.84 3416.94 1202.82 3417.69 1204.7 3419.24 1206.29 3420.12 1207.18 3420.19 1207.86 3420.14 1208.27Z"/><path d="M3429 1207.77C3428.91 1209.17 3427.41 1210.67 3426.91 1211.06L3429.7 1214.65C3430.07 1214.35 3433.29 1211.76 3433.54 1208.08 3433.63 1206.7 3433.34 1204.63 3431.34 1202.59 3430.48 1201.7 3430.41 1201.02 3430.43 1200.57 3430.5 1199.05 3432.04 1197.39 3432.59 1196.93L3431.14 1195.19 3429.68 1193.44C3429.32 1193.73 3426.09 1196.53 3425.89 1200.32 3425.8 1202.29 3426.55 1204.18 3428.09 1205.77 3428.98 1206.65 3429.05 1207.33 3429 1207.74Z"/><path d="M3437.45 1207.77C3437.36 1209.17 3435.86 1210.67 3435.36 1211.06L3438.15 1214.65C3438.52 1214.35 3441.74 1211.76 3441.99 1208.08 3442.08 1206.7 3441.79 1204.63 3439.79 1202.59 3438.92 1201.7 3438.86 1201.02 3438.88 1200.57 3438.95 1199.05 3440.49 1197.39 3441.04 1196.93L3439.58 1195.19 3438.13 1193.44C3437.77 1193.73 3434.54 1196.53 3434.34 1200.32 3434.25 1202.29 3435 1204.18 3436.54 1205.77 3437.43 1206.65 3437.49 1207.33 3437.45 1207.77Z"/><path d="M3463.56 1122.54 3395.44 1122.54 3393.17 1124.81 3393.17 1220.19 3395.44 1222.46 3463.56 1222.46 3465.83 1220.19 3465.83 1124.81 3463.56 1122.54ZM3397.71 1127.08 3461.29 1127.08 3461.29 1154.33 3397.71 1154.33 3397.71 1127.08ZM3461.29 1186.12 3397.71 1186.12 3397.71 1158.87 3461.29 1158.87 3461.29 1186.12ZM3461.29 1217.92 3397.71 1217.92 3397.71 1190.67 3461.29 1190.67 3461.29 1217.92Z"/></g></g></g><g><g><g><path d="M13.625 22.7083 11.3542 24.9792 11.3542 102.187 13.625 104.458 77.2083 104.458 79.4791 102.187 79.4791 64.5144 84.0208 59.9727 84.0208 93.1041 88.5625 93.1041 88.5625 55.431 93.1041 50.8894 93.1041 84.0208 97.6458 84.0208 97.6458 6.8125 95.375 4.54167 31.7917 4.54167 31.7917 9.08333 58.1106 9.08333 53.5689 13.625 22.7083 13.625 22.7083 18.1667 49.0273 18.1667 44.4856 22.7083ZM74.9375 27.25 74.9375 61.3125 47.6875 61.3125 47.6875 27.25ZM15.8958 27.25 43.1458 27.25 43.1458 61.3125 15.8958 61.3125ZM15.8958 99.9166 15.8958 65.8541 43.1458 65.8541 43.1458 99.9166ZM47.6875 99.9166 47.6875 65.8541 74.9375 65.8541 74.9375 99.9166ZM64.5144 9.08333 93.1041 9.08333 93.1041 44.4856 88.5625 49.0273 88.5625 15.8958 86.2916 13.625 59.9727 13.625ZM55.431 18.1667 84.0208 18.1667 84.0208 53.5689 79.4791 58.1106 79.4791 24.9792 77.2083 22.7083 50.8894 22.7083Z" transform="matrix(-1.83697e-16 -1 -1 1.83697e-16 3127 1227)"/></g></g></g><g><g><g><path d="M25.2 17.1 33.525 29.475C33.75 29.925 33.975 30.15 33.975 30.6 33.975 31.05 33.975 31.275 33.525 31.725L26.775 41.625C26.1 42.75 25.65 43.875 25.65 45.225 25.65 46.575 26.1 47.7 26.775 48.825L33.525 58.725C33.75 59.175 33.975 59.4 33.975 59.85 33.975 60.3 33.975 60.525 33.525 60.975L25.2 73.35 29.025 75.825 37.35 63.45C38.025 62.325 38.475 61.2 38.475 59.85 38.475 58.5 38.025 57.375 37.35 56.25L30.6 46.35C30.375 45.9 30.15 45.675 30.15 45.225 30.15 44.775 30.15 44.55 30.6 44.1L37.35 34.2C38.025 33.075 38.475 31.95 38.475 30.6 38.475 29.25 38.025 28.125 37.35 27L29.025 14.625 25.2 17.1 25.2 17.1Z" fill="#020203" transform="matrix(1.00926 0 0 1 3732 791)"/><path d="M70.2 17.1 78.525 29.475C78.7499 29.925 78.9749 30.15 78.9749 30.6 78.9749 31.05 78.9749 31.275 78.525 31.725L71.775 41.625C71.1 42.75 70.65 43.875 70.65 45.225 70.65 46.575 71.1 47.7 71.775 48.825L78.525 58.725C78.7499 59.175 78.9749 59.4 78.9749 59.85 78.9749 60.3 78.9749 60.525 78.525 60.975L70.2 73.35 74.025 75.825 82.3499 63.45C83.0249 62.325 83.4749 61.2 83.4749 59.85 83.4749 58.5 83.0249 57.375 82.3499 56.25L75.5999 46.35C75.375 45.9 75.15 45.675 75.15 45.225 75.15 44.775 75.15 44.55 75.5999 44.1L82.3499 34.2C83.0249 33.075 83.4749 31.95 83.4749 30.6 83.4749 29.25 83.0249 28.125 82.3499 27L74.025 14.625 70.2 17.1 70.2 17.1Z" fill="#020203" transform="matrix(1.00926 0 0 1 3732 791)"/><path d="M47.7 17.1 56.025 29.475C56.25 29.925 56.475 30.15 56.475 30.6 56.475 31.05 56.475 31.275 56.025 31.725L49.275 41.625C48.6 42.75 48.15 43.875 48.15 45.225 48.15 46.575 48.6 47.7 49.275 48.825L56.025 58.725C56.25 59.175 56.475 59.4 56.475 59.85 56.475 60.3 56.475 60.525 56.025 60.975L47.7 73.35 51.525 75.825 59.85 63.45C60.525 62.325 60.975 61.2 60.975 59.85 60.975 58.5 60.525 57.375 59.85 56.25L53.1 46.35C52.875 45.9 52.65 45.675 52.65 45.225 52.65 44.775 52.65 44.55 53.1 44.1L59.85 34.2C60.525 33.075 60.975 31.95 60.975 30.6 60.975 29.25 60.525 28.125 59.85 27L51.525 14.625 47.7 17.1 47.7 17.1Z" fill="#020203" transform="matrix(1.00926 0 0 1 3732 791)"/><path d="M6.75 92.2499 6.75 94.4999 101.25 94.4999 103.5 92.2499 103.5 83.2499 101.25 80.9999 6.75 80.9999 4.5 83.2499 4.5 92.2499 6.75 94.4999 6.75 92.2499 8.99999 92.2499 8.99999 85.4999 98.9999 85.4999 98.9999 89.9999 6.75 89.9999 6.75 92.2499 8.99999 92.2499Z" fill="#020203" transform="matrix(1.00926 0 0 1 3732 791)"/></g></g></g><g><g><g><path d="M60.75 76.5C60.75 56.925 38.7225 28.215 37.7775 27L34.2225 27C33.2775 28.215 11.25 56.925 11.25 76.5 11.25 92.4074 21.42 103.5 36 103.5 50.58 103.5 60.75 92.4074 60.75 76.5ZM36 98.9999C24.075 98.9999 15.75 89.7524 15.75 76.5 15.75 61.5375 30.7575 39.4425 36 32.1525 41.2425 39.4425 56.25 61.5375 56.25 76.5 56.25 89.7524 47.925 98.9999 36 98.9999Z" transform="matrix(1.00926 0 0 1 4089 791)"/><path d="M96.7499 38.25C96.7499 24.345 80.9999 6.0525 80.4599 5.2875L77.04 5.2875C76.5 6.0525 60.75 24.345 60.75 38.25 60.75 49.7925 68.49 58.5 78.7499 58.5 89.0099 58.5 96.7499 49.7925 96.7499 38.25ZM65.25 38.25C65.25 28.53 74.7674 15.3675 78.7499 10.3275 82.7324 15.3675 92.2499 28.53 92.2499 38.25 92.2499 47.385 86.5799 54 78.7499 54 70.92 54 65.25 47.385 65.25 38.25Z" transform="matrix(1.00926 0 0 1 4089 791)"/></g></g></g><g><g><g><path d="M13.5 54C13.4947 69.921 22.8181 84.3682 37.3275 90.9224L39.195 86.8274C21.0768 78.6399 13.0265 57.3149 21.2141 39.1968 26.539 27.4135 37.7739 19.3913 50.6475 18.18L45.6525 23.1525 48.8475 26.3475 57.8475 17.3475 57.8475 14.1525 48.8475 5.1525 45.6525 8.3475 50.9625 13.6575C29.8496 15.2454 13.5227 32.8275 13.5 54Z" transform="matrix(1.00926 0 0 1 3018 791)"/><path d="M59.1525 81.6525 50.1525 90.6524 50.1525 93.8474 59.1525 102.847 62.3475 99.6524 57.0375 94.3424C79.3397 92.6336 96.0338 73.1688 94.3249 50.8666 93.1958 36.1318 84.1308 23.1817 70.6725 17.0775L68.8275 21.195C86.9343 29.4075 94.9553 50.7435 86.7428 68.8504 81.4126 80.6026 70.1995 88.6029 57.3525 89.8199L62.3475 84.8474Z" transform="matrix(1.00926 0 0 1 3018 791)"/></g></g></g><g><g><g><path d="M3743.35 1195.21 3743.35 1147.52 3745.62 1145.25 3827.38 1145.25 3829.65 1147.52 3829.65 1195.21 3827.38 1197.48 3745.62 1197.48 3743.35 1195.21ZM3747.9 1149.79 3747.9 1192.94 3825.1 1192.94 3825.1 1149.79 3747.9 1149.79Z"/><path d="M3827.38 1156.6 3827.38 1161.15 3747.9 1161.15 3747.9 1156.6Z"/><path d="M3827.38 1183.85 3827.38 1188.4 3747.9 1188.4 3747.9 1183.85Z"/><path d="M3827.38 1174.77 3827.38 1179.31 3747.9 1179.31 3747.9 1174.77Z"/><path d="M3827.38 1165.69 3827.38 1170.23 3747.9 1170.23 3747.9 1165.69Z"/><path d="M3803.05 1210.45 3806.28 1207.22 3811.48 1212.44 3816.68 1207.22 3819.9 1210.45 3813.09 1217.26 3809.87 1217.26 3803.05 1210.45Z"/><path d="M3813.75 1196.57 3813.75 1212.47 3809.21 1212.47 3809.21 1196.57Z"/><path d="M3778.08 1214.99 3781.3 1211.76 3786.5 1216.99 3791.7 1211.76 3794.92 1214.99 3788.11 1221.8 3784.89 1221.8 3778.08 1214.99Z"/><path d="M3788.77 1195.21 3788.77 1217.92 3784.23 1217.92 3784.23 1195.21Z"/><path d="M3753.1 1210.45 3756.32 1207.22 3761.52 1212.44 3766.72 1207.22 3769.95 1210.45 3763.13 1217.26 3759.91 1217.26 3753.1 1210.45Z"/><path d="M3763.79 1195.21 3763.79 1213.37 3759.25 1213.37 3759.25 1195.21Z"/><path d="M3788.77 1129.35 3788.77 1165.69 3784.23 1165.69 3784.23 1129.35Z"/><path d="M3813.75 1122.54 3813.75 1165.69 3809.21 1165.69 3809.21 1122.54Z"/><path d="M3763.79 1122.54 3763.79 1165.69 3759.25 1165.69 3759.25 1122.54Z"/></g></g></g><g><g><g><path d="M4107.17 1570.1 4107.17 1579.19 4109.44 1581.46 4177.56 1581.46 4179.83 1579.19 4179.83 1570.1 4179.42 1568.79 4153.08 1531.5 4179.42 1494.21 4179.83 1492.9 4179.83 1483.81 4177.56 1481.54 4109.44 1481.54 4107.17 1483.81 4107.17 1492.9 4107.58 1494.21 4133.92 1531.5 4107.58 1568.79ZM4111.71 1570.83 4138.55 1532.82 4138.55 1530.18 4111.71 1492.17 4111.71 1486.08 4175.29 1486.08 4175.29 1492.17 4148.45 1530.18 4148.45 1532.82 4175.29 1570.83 4175.29 1576.92 4111.71 1576.92Z"/><path d="M4141.62 1539.33 4123.45 1566.58 4125.33 1570.1 4161.67 1570.1 4163.55 1566.58 4145.38 1539.33ZM4129.58 1565.56 4143.5 1544.67 4157.42 1565.56Z"/><path d="M4145.38 1525.94 4154.47 1512.31 4152.58 1508.79 4134.42 1508.79 4132.53 1512.31 4141.62 1525.94ZM4148.34 1513.33 4143.5 1520.6 4138.66 1513.33Z"/></g></g></g><g><g><g><path d="M3381.81 1481.54 3379.54 1483.81 3379.54 1506.52 3384.08 1506.52 3384.08 1486.08 3474.92 1486.08 3474.92 1576.92 3384.08 1576.92 3384.08 1556.48 3379.54 1556.48 3379.54 1579.19 3381.81 1581.46 3477.19 1581.46 3479.46 1579.19 3479.46 1483.81 3477.19 1481.54 3381.81 1481.54Z"/><path d="M3425.84 1545.6 3428.61 1549.19 3449.05 1533.29 3449.05 1529.71 3428.61 1513.81 3425.84 1517.4 3441.06 1529.23 3379.54 1529.23 3379.54 1533.77 3441.06 1533.77 3425.84 1545.6Z"/></g></g></g><path d="M3174.5 843.208 3305.73 843.208 3305.73 847.792 3174.5 847.792ZM3301.14 831.75 3328.64 845.5 3301.14 859.25Z" fill="#FF000F"/><path d="M3531.5 843.208 3662.73 843.208 3662.73 847.792 3531.5 847.792ZM3658.14 831.75 3685.64 845.5 3658.14 859.25Z" fill="#FF000F"/><path d="M3888.5 843.208 4019.73 843.208 4019.73 847.792 3888.5 847.792ZM4015.14 831.75 4042.64 845.5 4015.14 859.25Z" fill="#FF000F"/><path d="M2.29167-5.36539e-06 2.29197 131.228-2.29136 131.228-2.29167 5.36539e-06ZM13.7503 126.644 0.000360892 154.144-13.7497 126.644Z" fill="#FF000F" transform="matrix(-6.12323e-17 -1 -1 6.12323e-17 3328.64 1173.5)"/><path d="M2.29167-5.36539e-06 2.29197 131.228-2.29136 131.228-2.29167 5.36539e-06ZM13.7503 126.644 0.000360892 154.144-13.7497 126.644Z" fill="#FF000F" transform="matrix(-6.12323e-17 -1 -1 6.12323e-17 3685.64 1173.5)"/><path d="M2.29167-5.36539e-06 2.29197 131.228-2.29136 131.228-2.29167 5.36539e-06ZM13.7503 126.644 0.000360892 154.144-13.7497 126.644Z" fill="#FF000F" transform="matrix(-6.12323e-17 -1 -1 6.12323e-17 4042.64 1173.5)"/><path d="M3174.5 1530.21 3305.73 1530.21 3305.73 1534.79 3174.5 1534.79ZM3301.14 1518.75 3328.64 1532.5 3301.14 1546.25Z" fill="#FF000F"/><path d="M3531.5 1530.21 3662.73 1530.21 3662.73 1534.79 3531.5 1534.79ZM3658.14 1518.75 3685.64 1532.5 3658.14 1546.25Z" fill="#FF000F"/><path d="M3888.5 1530.21 4019.73 1530.21 4019.73 1534.79 3888.5 1534.79ZM4015.14 1518.75 4042.64 1532.5 4015.14 1546.25Z" fill="#FF000F"/><path d="M4230.5 843.208 4280.5 843.208C4281.77 843.208 4282.79 844.234 4282.79 845.5L4282.79 1173.5C4282.79 1174.77 4281.77 1175.79 4280.5 1175.79L4253.42 1175.79 4253.42 1171.21 4280.5 1171.21 4278.21 1173.5 4278.21 845.5 4280.5 847.792 4230.5 847.792ZM4258 1187.25 4230.5 1173.5 4258 1159.75Z" fill="#FF000F"/><path d="M2933.58 1534.79 2906.5 1534.79C2905.23 1534.79 2904.21 1533.77 2904.21 1532.5L2904.21 1173.5C2904.21 1172.23 2905.23 1171.21 2906.5 1171.21L2956.5 1171.21 2956.5 1175.79 2906.5 1175.79 2908.79 1173.5 2908.79 1532.5 2906.5 1530.21 2933.58 1530.21ZM2929 1518.75 2956.5 1532.5 2929 1546.25Z" fill="#FF000F"/></g></svg>