<svg width="1094" height="343" xmlns="http://www.w3.org/2000/svg" xmlns:xlink="http://www.w3.org/1999/xlink" xml:space="preserve" overflow="hidden"><g transform="translate(-1276 -1279)"><text font-family="ABBvoice,ABBvoice_MSFontService,sans-serif" font-weight="400" font-size="9" transform="matrix(1 0 0 1 1655.27 1550)">Solvent </text><text font-family="ABBvoice,ABBvoice_MSFontService,sans-serif" font-weight="400" font-size="9" transform="matrix(1 0 0 1 1653.25 1561)">recovery</text><text font-family="ABBvoice,ABBvoice_MSFontService,sans-serif" font-weight="400" font-size="9" transform="matrix(1 0 0 1 1434.55 1550)">Mixing</text><text font-family="ABBvoice,ABBvoice_MSFontService,sans-serif" font-weight="400" font-size="9" transform="matrix(1 0 0 1 1505.73 1550)">Coating</text><text font-family="ABBvoice,ABBvoice_MSFontService,sans-serif" font-weight="400" font-size="9" transform="matrix(1 0 0 1 1583.5 1550)">Drying</text><g><g><g><path d="M0.916667 11.4583 11.9167 11.4583 11.9167 10.5417 0.916667 10.5417" transform="matrix(1 0 0 1.04546 1512 1513)"/><path d="M15.6292 11 15.1708 11C15.1708 11.7792 14.5292 12.4208 13.75 12.4208 12.9708 12.4208 12.3292 11.7792 12.3292 11 12.3292 10.2208 12.9708 9.57917 13.75 9.57917 14.5292 9.57917 15.1708 10.2208 15.1708 11L15.6292 11 16.0875 11C16.0875 9.71667 15.0333 8.6625 13.75 8.6625 12.4667 8.6625 11.4125 9.71667 11.4125 11 11.4125 12.2833 12.4667 13.3375 13.75 13.3375 15.0333 13.3375 16.0875 12.2833 16.0875 11L15.6292 11Z" transform="matrix(1 0 0 1.04546 1512 1513)"/><path d="M14.2083 9.16667 14.2083 1.83333 13.2917 1.83333 13.2917 9.16667" transform="matrix(1 0 0 1.04546 1512 1513)"/><path d="M14.2083 20.1667 14.2083 12.8333 13.2917 12.8333 13.2917 20.1667" transform="matrix(1 0 0 1.04546 1512 1513)"/><path d="M12.0542 12.0542 7.47083 16.6375 8.1125 17.2792 12.6958 12.6958" transform="matrix(1 0 0 1.04546 1512 1513)"/><path d="M19.3875 4.72083 14.8042 9.30417 15.4458 9.94583 20.0292 5.3625" transform="matrix(1 0 0 1.04546 1512 1513)"/><path d="M14.8042 12.6958 19.3875 17.2792 20.0292 16.6375 15.4458 12.0542" transform="matrix(1 0 0 1.04546 1512 1513)"/><path d="M7.47083 5.3625 12.0542 9.94583 12.6958 9.30417 8.1125 4.72083" transform="matrix(1 0 0 1.04546 1512 1513)"/><path d="M15.5833 11.4583 21.0833 11.4583 21.0833 10.5417 15.5833 10.5417" transform="matrix(1 0 0 1.04546 1512 1513)"/></g></g></g><g><g><g><path d="M1591.37 1516.64 1593.14 1519.28C1593.19 1519.37 1593.24 1519.42 1593.24 1519.52 1593.24 1519.61 1593.24 1519.66 1593.14 1519.76L1591.7 1521.86C1591.56 1522.1 1591.46 1522.34 1591.46 1522.63 1591.46 1522.92 1591.56 1523.16 1591.7 1523.4L1593.14 1525.51C1593.19 1525.6 1593.24 1525.65 1593.24 1525.75 1593.24 1525.84 1593.24 1525.89 1593.14 1525.99L1591.37 1528.62 1592.18 1529.15 1593.95 1526.51C1594.1 1526.27 1594.19 1526.03 1594.19 1525.75 1594.19 1525.46 1594.1 1525.22 1593.95 1524.98L1592.52 1522.87C1592.47 1522.77 1592.42 1522.73 1592.42 1522.63 1592.42 1522.54 1592.42 1522.49 1592.52 1522.39L1593.95 1520.28C1594.1 1520.04 1594.19 1519.8 1594.19 1519.52 1594.19 1519.23 1594.1 1518.99 1593.95 1518.75L1592.18 1516.11 1591.37 1516.64 1591.37 1516.64Z" fill="#FFFFFF"/><path d="M1600.95 1516.64 1602.72 1519.28C1602.77 1519.37 1602.82 1519.42 1602.82 1519.52 1602.82 1519.61 1602.82 1519.66 1602.72 1519.76L1601.29 1521.86C1601.14 1522.1 1601.05 1522.34 1601.05 1522.63 1601.05 1522.92 1601.14 1523.16 1601.29 1523.4L1602.72 1525.51C1602.77 1525.6 1602.82 1525.65 1602.82 1525.75 1602.82 1525.84 1602.82 1525.89 1602.72 1525.99L1600.95 1528.62 1601.76 1529.15 1603.54 1526.51C1603.68 1526.27 1603.78 1526.03 1603.78 1525.75 1603.78 1525.46 1603.68 1525.22 1603.54 1524.98L1602.1 1522.87C1602.05 1522.77 1602 1522.73 1602 1522.63 1602 1522.54 1602 1522.49 1602.1 1522.39L1603.54 1520.28C1603.68 1520.04 1603.78 1519.8 1603.78 1519.52 1603.78 1519.23 1603.68 1518.99 1603.54 1518.75L1601.76 1516.11 1600.95 1516.64 1600.95 1516.64Z" fill="#FFFFFF"/><path d="M1596.16 1516.64 1597.93 1519.28C1597.98 1519.37 1598.03 1519.42 1598.03 1519.52 1598.03 1519.61 1598.03 1519.66 1597.93 1519.76L1596.49 1521.86C1596.35 1522.1 1596.25 1522.34 1596.25 1522.63 1596.25 1522.92 1596.35 1523.16 1596.49 1523.4L1597.93 1525.51C1597.98 1525.6 1598.03 1525.65 1598.03 1525.75 1598.03 1525.84 1598.03 1525.89 1597.93 1525.99L1596.16 1528.62 1596.97 1529.15 1598.75 1526.51C1598.89 1526.27 1598.99 1526.03 1598.99 1525.75 1598.99 1525.46 1598.89 1525.22 1598.75 1524.98L1597.31 1522.87C1597.26 1522.77 1597.21 1522.73 1597.21 1522.63 1597.21 1522.54 1597.21 1522.49 1597.31 1522.39L1598.75 1520.28C1598.89 1520.04 1598.99 1519.8 1598.99 1519.52 1598.99 1519.23 1598.89 1518.99 1598.75 1518.75L1596.97 1516.11 1596.16 1516.64 1596.16 1516.64Z" fill="#FFFFFF"/><path d="M1587.44 1532.65 1587.44 1533.12 1607.56 1533.12 1608.04 1532.65 1608.04 1530.73 1607.56 1530.25 1587.44 1530.25 1586.96 1530.73 1586.96 1532.65 1587.44 1533.12 1587.44 1532.65 1587.92 1532.65 1587.92 1531.21 1607.08 1531.21 1607.08 1532.17 1587.44 1532.17 1587.44 1532.65 1587.92 1532.65Z" fill="#FFFFFF"/></g></g></g><g><g><g><path d="M1672.94 1529.29C1672.94 1525.12 1668.25 1519.01 1668.05 1518.75L1667.29 1518.75C1667.09 1519.01 1662.4 1525.12 1662.4 1529.29 1662.4 1532.68 1664.56 1535.04 1667.67 1535.04 1670.77 1535.04 1672.94 1532.68 1672.94 1529.29ZM1667.67 1534.08C1665.13 1534.08 1663.35 1532.11 1663.35 1529.29 1663.35 1526.11 1666.55 1521.4 1667.67 1519.85 1668.78 1521.4 1671.98 1526.11 1671.98 1529.29 1671.98 1532.11 1670.21 1534.08 1667.67 1534.08Z"/><path d="M1680.6 1521.15C1680.6 1518.18 1677.25 1514.29 1677.14 1514.13L1676.41 1514.13C1676.29 1514.29 1672.94 1518.18 1672.94 1521.15 1672.94 1523.6 1674.59 1525.46 1676.77 1525.46 1678.96 1525.46 1680.6 1523.6 1680.6 1521.15ZM1673.9 1521.15C1673.9 1519.08 1675.92 1516.27 1676.77 1515.2 1677.62 1516.27 1679.65 1519.08 1679.65 1521.15 1679.65 1523.09 1678.44 1524.5 1676.77 1524.5 1675.1 1524.5 1673.9 1523.09 1673.9 1521.15Z"/></g></g></g><g><g><g><path d="M1439.87 1524.5C1439.87 1527.89 1441.86 1530.97 1444.95 1532.36L1445.35 1531.49C1441.49 1529.75 1439.77 1525.21 1441.52 1521.35 1442.65 1518.84 1445.04 1517.13 1447.79 1516.87L1446.72 1517.93 1447.4 1518.61 1449.32 1516.69 1449.32 1516.01 1447.4 1514.1 1446.72 1514.78 1447.85 1515.91C1443.36 1516.25 1439.88 1519.99 1439.87 1524.5Z"/><path d="M1449.6 1530.39 1447.68 1532.31 1447.68 1532.99 1449.6 1534.9 1450.28 1534.22 1449.15 1533.09C1453.9 1532.73 1457.45 1528.58 1457.09 1523.83 1456.85 1520.69 1454.92 1517.94 1452.05 1516.64L1451.66 1517.51C1455.51 1519.26 1457.22 1523.81 1455.47 1527.66 1454.34 1530.17 1451.95 1531.87 1449.21 1532.13L1450.28 1531.07Z"/></g></g></g><path d="M1470 1522.85 1488.34 1522.85 1488.34 1525.15 1470 1525.15ZM1483.75 1514.83 1502.09 1524 1483.76 1533.17Z" fill="#817275"/><path d="M1544 1522.85 1562.34 1522.85 1562.34 1525.15 1544 1525.15ZM1557.76 1514.83 1576.09 1524 1557.76 1533.17Z" fill="#817275"/><path d="M1618 1522.85 1636.34 1522.85 1636.34 1525.15 1618 1525.15ZM1631.76 1514.83 1650.09 1524 1631.76 1533.17Z" fill="#817275"/><text font-family="ABBvoice,ABBvoice_MSFontService,sans-serif" font-weight="400" font-size="9" transform="matrix(1 0 0 1 1726.14 1549)">Stacking</text><text font-family="ABBvoice,ABBvoice_MSFontService,sans-serif" font-weight="400" font-size="9" transform="matrix(1 0 0 1 1802.2 1549)">Vacuum </text><text font-family="ABBvoice,ABBvoice_MSFontService,sans-serif" font-weight="400" font-size="9" transform="matrix(1 0 0 1 1805.93 1560)">drying</text><text font-family="ABBvoice,ABBvoice_MSFontService,sans-serif" font-weight="400" font-size="9" transform="matrix(1 0 0 1 1877.96 1549)">Slitting</text><text font-family="ABBvoice,ABBvoice_MSFontService,sans-serif" font-weight="400" font-size="9" transform="matrix(1 0 0 1 1942.27 1549)">Calendering</text><g><g><g><path d="M1957.92 1519.71 1978.08 1519.71 1978.08 1520.63 1957.92 1520.63Z" fill="#FFFFFF"/><path d="M1967.54 1522 1968.46 1522 1968.46 1522.92 1967.54 1522.92Z" fill="#FFFFFF"/><path d="M1970.29 1523.38 1971.21 1523.38 1971.21 1524.29 1970.29 1524.29Z" fill="#FFFFFF"/><path d="M1971.21 1525.67 1972.12 1525.67 1972.12 1526.58 1971.21 1526.58Z" fill="#FFFFFF"/><path d="M1964.79 1523.38 1965.71 1523.38 1965.71 1524.29 1964.79 1524.29Z" fill="#FFFFFF"/><path d="M1963.88 1525.67 1964.79 1525.67 1964.79 1526.58 1963.88 1526.58Z" fill="#FFFFFF"/><path d="M1964.79 1527.96 1965.71 1527.96 1965.71 1528.88 1964.79 1528.88Z" fill="#FFFFFF"/><path d="M1967.54 1529.33 1968.46 1529.33 1968.46 1530.25 1967.54 1530.25Z" fill="#FFFFFF"/><path d="M1968 1527.96C1966.99 1527.96 1966.17 1527.14 1966.17 1526.13 1966.17 1525.11 1966.99 1524.29 1968 1524.29 1969.01 1524.29 1969.83 1525.11 1969.83 1526.13 1969.83 1527.14 1969.01 1527.96 1968 1527.96ZM1968 1525.21C1967.5 1525.21 1967.08 1525.62 1967.08 1526.13 1967.08 1526.63 1967.5 1527.04 1968 1527.04 1968.5 1527.04 1968.92 1526.63 1968.92 1526.13 1968.92 1525.62 1968.5 1525.21 1968 1525.21Z" fill="#FFFFFF"/><path d="M1968 1517.88C1966.99 1517.88 1966.17 1517.05 1966.17 1516.04 1966.17 1515.03 1966.99 1514.21 1968 1514.21 1969.01 1514.21 1969.83 1515.03 1969.83 1516.04 1969.83 1517.05 1969.01 1517.88 1968 1517.88ZM1968 1515.13C1967.5 1515.13 1967.08 1515.54 1967.08 1516.04 1967.08 1516.55 1967.5 1516.96 1968 1516.96 1968.5 1516.96 1968.92 1516.55 1968.92 1516.04 1968.92 1515.54 1968.5 1515.13 1968 1515.13Z" fill="#FFFFFF"/><path d="M1968 1532.08C1964.71 1532.08 1962.04 1529.41 1962.04 1526.13 1962.04 1522.84 1964.71 1520.17 1968 1520.17 1971.29 1520.17 1973.96 1522.84 1973.96 1526.13 1973.96 1529.41 1971.29 1532.08 1968 1532.08ZM1968 1521.08C1965.22 1521.08 1962.96 1523.34 1962.96 1526.13 1962.96 1528.91 1965.22 1531.17 1968 1531.17 1970.78 1531.17 1973.04 1528.91 1973.04 1526.13 1973.04 1523.34 1970.78 1521.08 1968 1521.08Z" fill="#FFFFFF"/><path d="M1968 1520.17C1965.73 1520.17 1963.88 1518.32 1963.88 1516.04 1963.88 1513.77 1965.73 1511.92 1968 1511.92 1970.27 1511.92 1972.12 1513.77 1972.12 1516.04 1972.12 1518.32 1970.27 1520.17 1968 1520.17ZM1968 1512.83C1966.23 1512.83 1964.79 1514.27 1964.79 1516.04 1964.79 1517.81 1966.23 1519.25 1968 1519.25 1969.77 1519.25 1971.21 1517.81 1971.21 1516.04 1971.21 1514.27 1969.77 1512.83 1968 1512.83Z" fill="#FFFFFF"/><path d="M1970.29 1527.96 1971.21 1527.96 1971.21 1528.88 1970.29 1528.88Z" fill="#FFFFFF"/></g></g></g><g><g><g><path d="M9.39583 3.93708C9.40958 3.63 9.72583 3.29542 9.83125 3.20375L9.53792 2.85083 9.24458 2.49792C9.17125 2.5575 8.52042 3.12125 8.47917 3.88667 8.46083 4.28542 8.61208 4.66583 8.92375 4.98667 9.1025 5.16542 9.11625 5.30292 9.10708 5.38542 9.08875 5.66958 8.78625 5.97208 8.68542 6.05L9.24917 6.77417C9.3225 6.71458 9.97333 6.19208 10.0238 5.445 10.0421 5.16542 9.9825 4.74833 9.57917 4.34042 9.405 4.16167 9.39125 4.02417 9.39583 3.9325Z" transform="matrix(1.04546 0 0 1 1808 1511)"/><path d="M11.1833 3.83167C11.1971 3.52458 11.5088 3.19 11.6188 3.09833L11.3254 2.74542 11.0321 2.3925C10.9587 2.45208 10.3079 3.01583 10.2667 3.78125 10.2483 4.18 10.3996 4.56042 10.7113 4.88125 10.89 5.06 10.9038 5.1975 10.8946 5.28 10.8763 5.56417 10.5738 5.86667 10.4729 5.94458L11.0367 6.66875C11.11 6.60917 11.7608 6.08667 11.8113 5.34417 11.8296 5.06458 11.77 4.6475 11.3667 4.235 11.1925 4.05625 11.1788 3.91875 11.1833 3.82708Z" transform="matrix(1.04546 0 0 1 1808 1511)"/><path d="M12.8883 3.83167C12.9021 3.52458 13.2137 3.19 13.3238 3.09833L13.0304 2.74542 12.7371 2.3925C12.6637 2.45208 12.0129 3.01583 11.9717 3.78125 11.9533 4.18 12.1046 4.56042 12.4163 4.88125 12.595 5.06 12.6088 5.1975 12.5996 5.28458 12.5813 5.56875 12.2788 5.87125 12.1779 5.94917L12.7417 6.67333C12.815 6.61375 13.4658 6.09125 13.5163 5.34875 13.5346 5.06917 13.475 4.65208 13.0717 4.23958 12.8975 4.06083 12.8838 3.92333 12.8883 3.83167Z" transform="matrix(1.04546 0 0 1 1808 1511)"/><path d="M9.11167 11.8067C9.09333 12.0908 8.79083 12.3933 8.69 12.4712L9.25375 13.1954C9.32708 13.1358 9.97792 12.6133 10.0283 11.8663 10.0467 11.5867 9.98708 11.1696 9.58375 10.7617 9.40958 10.5829 9.39583 10.4454 9.40042 10.3538 9.41417 10.0467 9.73042 9.71208 9.83583 9.62042L9.5425 9.2675 9.24917 8.91458C9.17583 8.97417 8.525 9.53792 8.48375 10.3033 8.46542 10.7021 8.61667 11.0825 8.92833 11.4033 9.10708 11.5821 9.12083 11.7196 9.11167 11.8021Z" transform="matrix(1.04546 0 0 1 1808 1511)"/><path d="M10.8992 11.7013C10.8808 11.9854 10.5783 12.2879 10.4775 12.3658L11.0413 13.09C11.1146 13.0304 11.7654 12.5079 11.8158 11.7654 11.8342 11.4858 11.7746 11.0688 11.3713 10.6562 11.1971 10.4775 11.1833 10.34 11.1879 10.2483 11.2017 9.94125 11.5133 9.60667 11.6233 9.515L11.33 9.16208 11.0367 8.80917C10.9633 8.86875 10.3125 9.4325 10.2712 10.1979 10.2529 10.5967 10.4042 10.9771 10.7158 11.2979 10.8946 11.4767 10.9083 11.6142 10.8992 11.6967Z" transform="matrix(1.04546 0 0 1 1808 1511)"/><path d="M12.6042 11.7013C12.5858 11.9854 12.2833 12.2879 12.1825 12.3658L12.7463 13.09C12.8196 13.0304 13.4704 12.5079 13.5208 11.7654 13.5392 11.4858 13.4796 11.0688 13.0763 10.6562 12.9021 10.4775 12.8883 10.34 12.8929 10.2483 12.9067 9.94125 13.2183 9.60667 13.3283 9.515L13.035 9.16208 12.7417 8.80917C12.6683 8.86875 12.0175 9.4325 11.9762 10.1979 11.9579 10.5967 12.1092 10.9771 12.4208 11.2979 12.5996 11.4767 12.6133 11.6142 12.6042 11.7013Z" transform="matrix(1.04546 0 0 1 1808 1511)"/><path d="M9.11167 18.2233C9.09333 18.5075 8.79083 18.81 8.69 18.8879L9.25375 19.6121C9.32708 19.5525 9.97792 19.03 10.0283 18.2829 10.0467 18.0033 9.98708 17.5863 9.58375 17.1783 9.40958 16.9996 9.39583 16.8621 9.40042 16.7704 9.41417 16.4633 9.73042 16.1287 9.83583 16.0371L9.5425 15.6842 9.24917 15.3313C9.17583 15.3908 8.525 15.9546 8.48375 16.72 8.46542 17.1187 8.61667 17.4992 8.92833 17.82 9.10708 17.9988 9.12083 18.1362 9.11167 18.2188Z" transform="matrix(1.04546 0 0 1 1808 1511)"/><path d="M10.8992 18.1179C10.8808 18.4021 10.5783 18.7046 10.4775 18.7825L11.0413 19.5067C11.1146 19.4471 11.7654 18.9246 11.8158 18.1821 11.8342 17.9025 11.7746 17.4854 11.3713 17.0729 11.1971 16.8942 11.1833 16.7567 11.1879 16.665 11.2017 16.3579 11.5133 16.0233 11.6233 15.9317L11.33 15.5788 11.0367 15.2258C10.9633 15.2854 10.3125 15.8492 10.2712 16.6146 10.2529 17.0133 10.4042 17.3938 10.7158 17.7146 10.8946 17.8933 10.9083 18.0308 10.8992 18.1133Z" transform="matrix(1.04546 0 0 1 1808 1511)"/><path d="M12.6042 18.1179C12.5858 18.4021 12.2833 18.7046 12.1825 18.7825L12.7463 19.5067C12.8196 19.4471 13.4704 18.9246 13.5208 18.1821 13.5392 17.9025 13.4796 17.4854 13.0763 17.0729 12.9021 16.8942 12.8883 16.7567 12.8929 16.665 12.9067 16.3579 13.2183 16.0233 13.3283 15.9317L13.035 15.5788 12.7417 15.2258C12.6683 15.2854 12.0175 15.8492 11.9762 16.6146 11.9579 17.0133 12.1092 17.3938 12.4208 17.7146 12.5996 17.8933 12.6133 18.0308 12.6042 18.1179Z" transform="matrix(1.04546 0 0 1 1808 1511)"/><path d="M17.875 0.916667 4.125 0.916667 3.66667 1.375 3.66667 20.625 4.125 21.0833 17.875 21.0833 18.3333 20.625 18.3333 1.375 17.875 0.916667ZM4.58333 1.83333 17.4167 1.83333 17.4167 7.33333 4.58333 7.33333 4.58333 1.83333ZM17.4167 13.75 4.58333 13.75 4.58333 8.25 17.4167 8.25 17.4167 13.75ZM17.4167 20.1667 4.58333 20.1667 4.58333 14.6667 17.4167 14.6667 17.4167 20.1667Z" transform="matrix(1.04546 0 0 1 1808 1511)"/></g></g></g><g><g><g><path d="M2.75 4.58333 2.29167 5.04167 2.29167 20.625 2.75 21.0833 15.5833 21.0833 16.0417 20.625 16.0417 13.0212 16.9583 12.1046 16.9583 18.7917 17.875 18.7917 17.875 11.1879 18.7917 10.2712 18.7917 16.9583 19.7083 16.9583 19.7083 1.375 19.25 0.916667 6.41667 0.916667 6.41667 1.83333 11.7288 1.83333 10.8121 2.75 4.58333 2.75 4.58333 3.66667 9.89542 3.66667 8.97875 4.58333ZM15.125 5.5 15.125 12.375 9.625 12.375 9.625 5.5ZM3.20833 5.5 8.70833 5.5 8.70833 12.375 3.20833 12.375ZM3.20833 20.1667 3.20833 13.2917 8.70833 13.2917 8.70833 20.1667ZM9.625 20.1667 9.625 13.2917 15.125 13.2917 15.125 20.1667ZM13.0212 1.83333 18.7917 1.83333 18.7917 8.97875 17.875 9.89542 17.875 3.20833 17.4167 2.75 12.1046 2.75ZM11.1879 3.66667 16.9583 3.66667 16.9583 10.8121 16.0417 11.7288 16.0417 5.04167 15.5833 4.58333 10.2712 4.58333Z" transform="matrix(-1.83697e-16 -1 -1 1.83697e-16 1756 1533)"/></g></g></g><g><g><g><path d="M15.5833 19.7083 5.95833 19.7083 5.5 19.25 5.5 2.75 5.95833 2.29167 15.5833 2.29167 16.0417 2.75 16.0417 19.25 15.5833 19.7083ZM6.41667 18.7917 15.125 18.7917 15.125 3.20833 6.41667 3.20833 6.41667 18.7917Z" transform="matrix(6.12323e-17 1 -1.04546 6.40157e-17 1905 1511)"/><path d="M7.79167 2.75 8.70833 2.75 8.70833 18.7917 7.79167 18.7917Z" transform="matrix(6.12323e-17 1 -1.04546 6.40157e-17 1905 1511)"/><path d="M13.2917 2.75 14.2083 2.75 14.2083 18.7917 13.2917 18.7917Z" transform="matrix(6.12323e-17 1 -1.04546 6.40157e-17 1905 1511)"/><path d="M11.4583 2.75 12.375 2.75 12.375 18.7917 11.4583 18.7917Z" transform="matrix(6.12323e-17 1 -1.04546 6.40157e-17 1905 1511)"/><path d="M9.625 2.75 10.5417 2.75 10.5417 18.7917 9.625 18.7917Z" transform="matrix(6.12323e-17 1 -1.04546 6.40157e-17 1905 1511)"/><path d="M18.6588 7.65875 18.0079 7.00792 19.0621 5.95833 18.0079 4.90875 18.6588 4.25792 20.0338 5.63292 20.0338 6.28375 18.6588 7.65875Z" transform="matrix(6.12323e-17 1 -1.04546 6.40157e-17 1905 1511)"/><path d="M15.8583 5.5 19.0667 5.5 19.0667 6.41667 15.8583 6.41667Z" transform="matrix(6.12323e-17 1 -1.04546 6.40157e-17 1905 1511)"/><path d="M19.5754 12.7004 18.9246 12.0496 19.9788 11 18.9246 9.95042 19.5754 9.29958 20.9504 10.6746 20.9504 11.3254 19.5754 12.7004Z" transform="matrix(6.12323e-17 1 -1.04546 6.40157e-17 1905 1511)"/><path d="M15.5833 10.5417 20.1667 10.5417 20.1667 11.4583 15.5833 11.4583Z" transform="matrix(6.12323e-17 1 -1.04546 6.40157e-17 1905 1511)"/><path d="M18.6588 17.7421 18.0079 17.0913 19.0621 16.0417 18.0079 14.9921 18.6588 14.3413 20.0338 15.7163 20.0338 16.3671 18.6588 17.7421Z" transform="matrix(6.12323e-17 1 -1.04546 6.40157e-17 1905 1511)"/><path d="M15.5833 15.5833 19.25 15.5833 19.25 16.5 15.5833 16.5Z" transform="matrix(6.12323e-17 1 -1.04546 6.40157e-17 1905 1511)"/><path d="M2.29167 10.5417 9.625 10.5417 9.625 11.4583 2.29167 11.4583Z" transform="matrix(6.12323e-17 1 -1.04546 6.40157e-17 1905 1511)"/><path d="M0.916667 5.5 9.625 5.5 9.625 6.41667 0.916667 6.41667Z" transform="matrix(6.12323e-17 1 -1.04546 6.40157e-17 1905 1511)"/><path d="M0.916667 15.5833 9.625 15.5833 9.625 16.5 0.916667 16.5Z" transform="matrix(6.12323e-17 1 -1.04546 6.40157e-17 1905 1511)"/></g></g></g><path d="M1.14599 13.75 1.14619 32.0887-1.14547 32.0888-1.14568 13.75ZM-9.16646 18.3334 0 0 9.16687 18.3332Z" fill="#817275" transform="matrix(-6.12323e-17 -1 -1 6.12323e-17 1798.09 1522)"/><path d="M1.14599 13.75 1.14619 32.0887-1.14547 32.0888-1.14568 13.75ZM-9.16646 18.3334 0 0 9.16687 18.3332Z" fill="#817275" transform="matrix(-6.12323e-17 -1 -1 6.12323e-17 1873.09 1522)"/><path d="M1.14599 13.75 1.14619 32.0887-1.14547 32.0888-1.14568 13.75ZM-9.16646 18.3334 0 0 9.16687 18.3332Z" fill="#817275" transform="matrix(-6.12323e-17 -1 -1 6.12323e-17 1947.09 1522)"/><text font-family="ABBvoice,ABBvoice_MSFontService,sans-serif" font-weight="400" font-size="9" transform="matrix(1 0 0 1 2034.13 1548)">Welding</text><text font-family="ABBvoice,ABBvoice_MSFontService,sans-serif" font-weight="400" font-size="9" transform="matrix(1 0 0 1 2105.03 1548)">Enclosing</text><text font-family="ABBvoice,ABBvoice_MSFontService,sans-serif" font-weight="400" font-size="9" transform="matrix(1 0 0 1 2177.35 1548)">Formation</text><text font-family="ABBvoice,ABBvoice_MSFontService,sans-serif" font-weight="400" font-size="9" transform="matrix(1 0 0 1 2262 1548)">Aging</text><g><g><g><path d="M2040.96 1515.83 2042.35 1515.83 2044.79 1516.22 2044.79 1519.28 2042.35 1519.67 2040.96 1519.67 2040.96 1520.62 2042.4 1520.62 2042.44 1520.62 2045.32 1520.15 2045.75 1519.67 2045.75 1515.83 2045.32 1515.35 2042.44 1514.88 2042.4 1514.88 2040.96 1514.88 2040.96 1515.83Z" fill="#FFFFFF"/><path d="M2055.43 1525.99 2055.67 1526.37 2057.2 1525.32 2057.35 1524.75 2056.2 1522.06 2055.48 1521.87 2052.94 1523.64 2052.89 1524.41 2055.09 1526.37 2055.67 1526.37 2055.43 1525.99 2055.72 1525.66 2053.99 1524.07 2055.52 1522.97 2056.34 1524.75 2055.14 1525.61 2055.43 1525.99 2055.72 1525.66Z" fill="#FFFFFF"/><path d="M2045.27 1517.27 2050.78 1517.27 2054.95 1522.83 2055.72 1522.25 2051.4 1516.5 2051.02 1516.31 2045.27 1516.31 2045.27 1517.27Z" fill="#FFFFFF"/><path d="M2045.27 1519.19 2049.82 1519.19 2053.37 1523.93 2054.14 1523.36 2050.45 1518.42 2050.06 1518.23 2045.27 1518.23 2045.27 1519.19Z" fill="#FFFFFF"/><path d="M2056.1 1520.58 2060.7 1522.25 2058.83 1524.12 2058.74 1524.7 2060.51 1527.52 2057.82 1526.85 2057.25 1527.33 2057.25 1530.35 2054.71 1527.48 2054.04 1527.43 2052.31 1528.82 2051.5 1523.4 2050.54 1523.6 2051.5 1529.82 2052.27 1530.11 2054.28 1528.48 2057.35 1531.98 2058.21 1531.65 2058.21 1527.96 2061.42 1528.77 2061.95 1528.05 2059.74 1524.51 2061.9 1522.4 2061.71 1521.63 2056.44 1519.71 2056.1 1520.58Z" fill="#FFFFFF"/></g></g></g><g><g><g><path d="M7.33486 14.6606 4.58772 14.6606 4.12986 14.2027 4.12986 8.25057 4.58772 7.79272 7.33486 7.79272 7.79272 8.25057 7.79272 14.2027 7.33486 14.6606ZM5.04558 13.7448 6.877 13.7448 6.877 8.70843 5.04558 8.70843 5.04558 13.7448Z" transform="matrix(1 0 0 1.04544 2189 1512)"/><path d="M17.4077 14.6606 14.6606 14.6606 14.2027 14.2027 14.2027 8.25057 14.6606 7.79272 17.4077 7.79272 17.8656 8.25057 17.8656 14.2027 17.4077 14.6606ZM15.1184 13.7448 16.9498 13.7448 16.9498 8.70843 15.1184 8.70843 15.1184 13.7448Z" transform="matrix(1 0 0 1.04544 2189 1512)"/><path d="M9.92175 6.31384 9.33111 5.61332 11.1076 4.12986 9.62414 4.12986 9.33111 3.32404 12.0783 1.03476 12.6689 1.73528 10.8924 3.21415 12.3713 3.21415 12.6689 4.02456 9.92175 6.31384Z" transform="matrix(1 0 0 1.04544 2189 1512)"/><path d="M19.697 21.0706 2.29844 21.0706 1.84058 20.6127 1.84058 10.082 2.29844 9.62414 4.58772 9.62414 4.58772 10.5399 2.7563 10.5399 2.7563 20.1548 19.2391 20.1548 19.2391 10.5399 17.4077 10.5399 17.4077 9.62414 19.697 9.62414 20.1548 10.082 20.1548 20.6127 19.697 21.0706Z" transform="matrix(1 0 0 1.04544 2189 1512)"/><path d="M14.2027 16.9498 17.8656 16.9498 17.8656 17.8656 14.2027 17.8656Z" transform="matrix(1 0 0 1.04544 2189 1512)"/><path d="M4.12986 16.9498 7.79272 16.9498 7.79272 17.8656 4.12986 17.8656Z" transform="matrix(1 0 0 1.04544 2189 1512)"/><path d="M15.5763 15.5763 16.492 15.5763 16.492 19.2391 15.5763 19.2391Z" transform="matrix(1 0 0 1.04544 2189 1512)"/><path d="M6.877 9.62414 14.2027 9.62414 14.2027 10.5399 6.877 10.5399Z" transform="matrix(1 0 0 1.04544 2189 1512)"/><path d="M6.41915 8.25057 5.50343 8.25057 5.50343 3.67201 5.96129 3.21415 8.25057 3.21415 8.25057 4.12986 6.41915 4.12986 6.41915 8.25057Z" transform="matrix(1 0 0 1.04544 2189 1512)"/><path d="M16.492 8.25057 15.5763 8.25057 15.5763 4.12986 13.7448 4.12986 13.7448 3.21415 16.0341 3.21415 16.492 3.67201 16.492 8.25057Z" transform="matrix(1 0 0 1.04544 2189 1512)"/></g></g></g><g><g><g><path d="M3.83328 19.6456 3.83328 21.5622 4.31244 22.0414 18.6872 22.0414 19.1664 21.5622 19.1664 19.6456 19.0801 19.3676 13.5219 11.4998 19.0801 3.63203 19.1664 3.35412 19.1664 1.43748 18.6872 0.95832 4.31244 0.95832 3.83328 1.43748 3.83328 3.35412 3.91953 3.63203 9.47778 11.4998 3.91953 19.3676ZM4.7916 19.7989 10.4553 11.7777 10.4553 11.2219 4.7916 3.20079 4.7916 1.91664 18.2081 1.91664 18.2081 3.20079 12.5444 11.2219 12.5444 11.7777 18.2081 19.7989 18.2081 21.083 4.7916 21.083Z" transform="matrix(1.00002 0 0 1 2263 1512)"/><path d="M11.1021 13.1529 7.26885 18.9029 7.66656 19.6456 15.3331 19.6456 15.7308 18.9029 11.8975 13.1529ZM8.56259 18.6872 11.4998 14.279 14.4371 18.6872Z" transform="matrix(1.00002 0 0 1 2263 1512)"/><path d="M11.8975 10.3259 13.8142 7.45094 13.4165 6.70824 9.5832 6.70824 9.18549 7.45094 11.1021 10.3259ZM12.5204 7.66656 11.4998 9.19987 10.4792 7.66656Z" transform="matrix(1.00002 0 0 1 2263 1512)"/></g></g></g><g><g><g><path d="M1.43748 0.95832 0.95832 1.43748 0.95832 6.22908 1.91664 6.22908 1.91664 1.91664 21.083 1.91664 21.083 21.083 1.91664 21.083 1.91664 16.7706 0.95832 16.7706 0.95832 21.5622 1.43748 22.0414 21.5622 22.0414 22.0414 21.5622 22.0414 1.43748 21.5622 0.95832 1.43748 0.95832Z" transform="matrix(1.00002 0 0 1 2114 1512)"/><path d="M10.7284 14.4754 11.313 15.2325 15.6254 11.8784 15.6254 11.1213 11.313 7.76718 10.7284 8.52425 13.9388 11.0207 0.95832 11.0207 0.95832 11.979 13.9388 11.979 10.7284 14.4754Z" transform="matrix(1.00002 0 0 1 2114 1512)"/></g></g></g><path d="M2072 1522.85 2090.34 1522.85 2090.34 1525.15 2072 1525.15ZM2085.76 1514.83 2104.09 1524 2085.76 1533.17Z" fill="#817275"/><path d="M2147 1522.85 2165.34 1522.85 2165.34 1525.15 2147 1525.15ZM2160.76 1514.83 2179.09 1524 2160.76 1533.17Z" fill="#817275"/><path d="M2221 1522.85 2239.34 1522.85 2239.34 1525.15 2221 1525.15ZM2234.76 1514.83 2253.09 1524 2234.76 1533.17Z" fill="#817275"/><g><g><g><path d="M1686.58 1369.75C1690.44 1369.75 1693.58 1366.61 1693.58 1362.75 1693.58 1358.89 1690.44 1355.75 1686.58 1355.75 1682.72 1355.75 1679.58 1358.89 1679.58 1362.75 1679.58 1366.61 1682.72 1369.75 1686.58 1369.75ZM1686.58 1356.92C1689.8 1356.92 1692.42 1359.53 1692.42 1362.75 1692.42 1365.97 1689.8 1368.58 1686.58 1368.58 1683.37 1368.58 1680.75 1365.97 1680.75 1362.75 1680.75 1359.53 1683.37 1356.92 1686.58 1356.92Z"/><path d="M1686.58 1364.5C1687.55 1364.5 1688.33 1363.71 1688.33 1362.75 1688.33 1361.79 1687.55 1361 1686.58 1361 1685.62 1361 1684.83 1361.79 1684.83 1362.75 1684.83 1363.71 1685.62 1364.5 1686.58 1364.5ZM1686.58 1362.17C1686.91 1362.17 1687.17 1362.43 1687.17 1362.75 1687.17 1363.07 1686.91 1363.33 1686.58 1363.33 1686.26 1363.33 1686 1363.07 1686 1362.75 1686 1362.43 1686.26 1362.17 1686.58 1362.17Z"/><path d="M1686 1358.08 1687.17 1358.08 1687.17 1359.83 1686 1359.83Z"/><path d="M1686 1365.67 1687.17 1365.67 1687.17 1367.42 1686 1367.42Z"/><path d="M1681.92 1362.17 1683.67 1362.17 1683.67 1363.33 1681.92 1363.33Z"/><path d="M1689.5 1362.17 1691.25 1362.17 1691.25 1363.33 1689.5 1363.33Z"/><path d="M1682.67 1359.66 1683.5 1358.84 1684.66 1360 1683.84 1360.83Z"/><path d="M1688.5 1360 1689.67 1358.84 1690.5 1359.66 1689.33 1360.83Z"/><path d="M1682.67 1365.84 1683.84 1364.67 1684.66 1365.5 1683.5 1366.66Z"/><path d="M1688.5 1365.5 1689.33 1364.67 1690.5 1365.84 1689.67 1366.66Z"/><path d="M1695.92 1362.75C1695.92 1357.6 1691.73 1353.42 1686.58 1353.42 1684.96 1353.42 1683.35 1353.85 1681.94 1354.65L1681.94 1353.42 1683.67 1353.42 1684.25 1352.83 1684.25 1350.5 1683.67 1349.92 1681.92 1349.92 1681.92 1348.75 1681.33 1348.17 1677.83 1348.17 1677.25 1348.75 1677.25 1349.92 1675.5 1349.92 1674.92 1350.5 1674.92 1352.83 1675.5 1353.42 1677.25 1353.42 1677.25 1362.75C1677.25 1365.42 1678.38 1367.82 1680.18 1369.52L1677.38 1372.88 1677.83 1373.83 1695.33 1373.83 1695.78 1372.88 1692.99 1369.52C1694.79 1367.82 1695.92 1365.42 1695.92 1362.75ZM1676.08 1352.25 1676.08 1351.08 1677.25 1351.08 1677.25 1352.25 1676.08 1352.25ZM1683.08 1351.08 1683.08 1352.25 1681.93 1352.25 1681.93 1351.08 1683.08 1351.08ZM1678.42 1362.75 1678.42 1349.33 1680.75 1349.33 1680.78 1355.73 1681.71 1356.2C1683.11 1355.16 1684.84 1354.58 1686.58 1354.58 1691.09 1354.58 1694.75 1358.25 1694.75 1362.75 1694.75 1367.25 1691.09 1370.92 1686.58 1370.92 1682.08 1370.92 1678.42 1367.25 1678.42 1362.75ZM1694.09 1372.67 1679.08 1372.67 1681.08 1370.27C1682.62 1371.4 1684.52 1372.08 1686.58 1372.08 1688.64 1372.08 1690.54 1371.4 1692.09 1370.27L1694.09 1372.67Z"/></g></g></g><g><g><g><path d="M14.962 7.93048C14.3461 5.64574 12.1382 3.95831 9.69787 3.95831 7.16613 3.95831 4.96372 5.75657 4.45627 8.26337L4.40046 8.70829 3.95831 8.70829C2.2123 8.70829 0.791663 10.1289 0.791663 11.8749 0.791663 13.6209 2.2123 15.0416 3.95831 15.0416L14.6458 15.0416C16.6103 15.0416 18.2082 13.4436 18.2082 11.4791 18.2082 9.62147 16.7789 8.09079 14.962 7.93048ZM14.6458 14.2499 3.95831 14.2499C2.64851 14.2499 1.58333 13.1847 1.58333 11.8749 1.58333 10.5651 2.64851 9.49995 3.95831 9.49995L4.74998 9.49995 5.14264 9.1532 5.23685 8.39123C5.66514 6.28145 7.54138 4.74998 9.69787 4.74998 11.8761 4.74998 13.8363 6.31549 14.2578 8.39123L14.6458 8.70829C16.1733 8.70829 17.4166 9.95159 17.4166 11.4791 17.4166 13.0066 16.1733 14.2499 14.6458 14.2499Z" transform="matrix(1.05263 0 0 1 1904 1342)"/></g></g></g><g><g><g><path d="M1931.53 1359.4 1930.35 1360.15 1928.83 1352.17 1928.42 1351.83 1926.32 1351.83 1925.91 1352.18 1924.27 1361.28 1923.42 1361.87 1923.42 1359.75 1922.76 1359.41 1919.25 1361.87 1919.25 1359.75 1918.61 1359.4 1914.03 1362.31 1913.83 1362.67 1913.83 1369.75 1914.25 1370.17 1931.75 1370.17 1932.17 1369.75 1932.17 1359.75 1931.53 1359.4ZM1926.67 1352.67 1928.07 1352.67 1929.59 1360.63 1927.58 1361.91 1927.58 1359.75 1926.93 1359.41 1925.24 1360.6 1926.67 1352.67ZM1931.33 1369.33 1914.67 1369.33 1914.67 1362.9 1918.42 1360.51 1918.42 1362.67 1919.07 1363.01 1922.58 1360.55 1922.59 1362.68 1923.25 1363.02 1926.75 1360.55 1926.75 1362.67 1927.39 1363.02 1931.33 1360.51 1931.33 1369.33Z"/><path d="M1916.33 1365.17 1917.17 1365.17 1917.17 1366.83 1916.33 1366.83Z"/><path d="M1918.42 1365.17 1919.25 1365.17 1919.25 1366.83 1918.42 1366.83Z"/><path d="M1920.5 1365.17 1921.33 1365.17 1921.33 1366.83 1920.5 1366.83Z"/><path d="M1922.58 1365.17 1923.42 1365.17 1923.42 1366.83 1922.58 1366.83Z"/><path d="M1924.67 1365.17 1925.5 1365.17 1925.5 1366.83 1924.67 1366.83Z"/><path d="M1926.75 1365.17 1927.58 1365.17 1927.58 1366.83 1926.75 1366.83Z"/><path d="M1928.83 1365.17 1929.67 1365.17 1929.67 1366.83 1928.83 1366.83Z"/></g></g></g><g><g><g><path d="M1769.08 1415.75 1769.08 1418.08 1766.75 1418.08 1766.17 1418.67 1766.17 1440.25 1766.75 1440.83 1777.25 1440.83 1777.83 1440.25 1777.83 1418.67 1777.25 1418.08 1774.92 1418.08 1774.92 1415.75 1774.33 1415.17 1769.67 1415.17 1769.08 1415.75ZM1773.75 1416.33 1773.75 1418.67 1774.33 1419.25 1776.67 1419.25 1776.67 1439.67 1767.33 1439.67 1767.33 1419.25 1769.67 1419.25 1770.25 1418.67 1770.25 1416.33 1773.75 1416.33Z" fill="#D90000"/><path d="M1768.5 1437.92 1769.08 1438.5 1774.92 1438.5 1775.5 1437.92 1775.5 1435.58 1774.92 1435 1769.08 1435 1768.5 1435.58 1768.5 1437.92ZM1774.33 1436.17 1774.33 1437.33 1769.67 1437.33 1769.67 1436.17 1774.33 1436.17Z" fill="#D90000"/><path d="M1768.5 1433.25 1769.08 1433.83 1774.92 1433.83 1775.5 1433.25 1775.5 1430.92 1774.92 1430.33 1769.08 1430.33 1768.5 1430.92 1768.5 1433.25ZM1774.33 1431.5 1774.33 1432.67 1769.67 1432.67 1769.67 1431.5 1774.33 1431.5Z" fill="#D90000"/><path d="M1768.5 1428.58 1769.08 1429.17 1774.92 1429.17 1775.5 1428.58 1775.5 1426.25 1774.92 1425.67 1769.08 1425.67 1768.5 1426.25 1768.5 1428.58ZM1774.33 1426.83 1774.33 1428 1769.67 1428 1769.67 1426.83 1774.33 1426.83Z" fill="#D90000"/></g></g></g><g><g><g><path d="M26.2498 11.0833 23.9165 11.0833 23.9165 8.74995 23.3332 8.16662 1.74999 8.16662 1.16666 8.74995 1.16666 19.2499 1.74999 19.8332 23.3332 19.8332 23.9165 19.2499 23.9165 16.9166 26.2498 16.9166 26.8332 16.3332 26.8332 11.6666 26.2498 11.0833ZM25.6665 15.7499 23.3332 15.7499 22.7499 16.3332 22.7499 18.6666 2.33332 18.6666 2.33332 9.33328 22.7499 9.33328 22.7499 11.6666 23.3332 12.2499 25.6665 12.2499 25.6665 15.7499Z" fill="#0070C0" transform="matrix(-1.83697e-16 -1 1.03572 -1.90258e-16 1742 1441)"/><path d="M4.08331 10.4999 3.49998 11.0833 3.49998 16.9166 4.08331 17.4999 6.41663 17.4999 6.99996 16.9166 6.99996 11.0833 6.41663 10.4999 4.08331 10.4999ZM5.8333 16.3332 4.66664 16.3332 4.66664 11.6666 5.8333 11.6666 5.8333 16.3332Z" fill="#0070C0" transform="matrix(-1.83697e-16 -1 1.03572 -1.90258e-16 1742 1441)"/><path d="M8.74995 10.4999 8.16662 11.0833 8.16662 16.9166 8.74995 17.4999 11.0833 17.4999 11.6666 16.9166 11.6666 11.0833 11.0833 10.4999 8.74995 10.4999ZM10.4999 16.3332 9.33328 16.3332 9.33328 11.6666 10.4999 11.6666 10.4999 16.3332Z" fill="#0070C0" transform="matrix(-1.83697e-16 -1 1.03572 -1.90258e-16 1742 1441)"/><path d="M13.4166 10.4999 12.8333 11.0833 12.8333 16.9166 13.4166 17.4999 15.7499 17.4999 16.3332 16.9166 16.3332 11.0833 15.7499 10.4999 13.4166 10.4999ZM15.1666 16.3332 13.9999 16.3332 13.9999 11.6666 15.1666 11.6666 15.1666 16.3332Z" fill="#0070C0" transform="matrix(-1.83697e-16 -1 1.03572 -1.90258e-16 1742 1441)"/></g></g></g><g><g><g><path d="M17.4941 6.99996 19.8274 6.99996 19.8274 9.33328 20.994 9.33328 20.994 6.99996 23.1745 6.99996 23.4545 5.90505 14.9385 1.23841 14.6585 1.16666 13.3483 1.16666 13.0683 1.23841 4.55231 5.90505 4.83231 6.99996 6.99471 6.99996 6.99471 9.33328 8.16137 9.33328 8.16137 6.99996 10.4947 6.99996 10.4947 10.8155 4.55172 14.0717 4.83231 15.1666 6.99471 15.1666 6.99471 17.4999 8.16137 17.4999 8.16137 15.1666 10.2024 15.1666 5.22955 26.0066 5.7598 26.8332 7.08921 26.8332 7.42696 26.7253 13.9941 22.0656 20.5612 26.7253 20.899 26.8332 22.2284 26.8332 22.7586 26.0066 17.7863 15.1666 19.8274 15.1666 19.8274 17.4999 20.994 17.4999 20.994 15.1666 23.1745 15.1666 23.4545 14.0717 17.4941 10.8056 17.4941 6.99996ZM17.4941 5.8333 17.4941 3.96898 20.896 5.8333 17.4941 5.8333ZM13.4977 2.33332 14.5092 2.33332 16.3274 3.32965 16.3274 5.8333 11.6608 5.8333 11.6608 3.33956 13.4977 2.33332ZM7.11021 5.8333 10.4941 3.97889 10.4941 5.8333 7.11021 5.8333ZM11.6608 6.99996 16.3274 6.99996 16.3274 10.1663 14.9385 9.40503 14.6585 9.33328 13.3483 9.33328 13.0683 9.40503 11.6613 10.1762 11.6613 6.99996ZM11.6608 13.9999 11.6608 11.5062 13.4977 10.4999 14.5092 10.4999 16.3274 11.4963 16.3274 13.9999 11.6608 13.9999ZM10.4941 12.1455 10.4941 13.9999 7.11021 13.9999 10.4941 12.1455ZM6.90313 25.6665 6.66921 25.6665 9.71419 19.0288 12.9867 21.3505 6.90313 25.6665ZM21.085 25.6665 15.0021 21.3505 18.2746 19.0288 21.319 25.6665 21.085 25.6665ZM17.7793 17.9496 13.9941 20.6353 10.2089 17.9496 11.4858 15.1666 16.503 15.1666 17.7793 17.9496ZM20.896 13.9999 17.4941 13.9999 17.4941 12.1356 20.896 13.9999Z" transform="matrix(1.21429 0 0 1 1290 1433)"/></g></g></g><path d="M1764 1388 1764 1406.42" stroke="#FF000F" stroke-width="2.29167" stroke-linejoin="round" stroke-miterlimit="10" fill="none" fill-rule="evenodd"/><path d="M1764 1388 1837.75 1388" stroke="#FF000F" stroke-width="2.29167" stroke-linejoin="round" stroke-miterlimit="10" fill="none" fill-rule="evenodd"/><path d="M0 0 0.000360892 85.9382" stroke="#0070C0" stroke-width="2.29167" stroke-linejoin="round" stroke-miterlimit="10" fill="none" fill-rule="evenodd" transform="matrix(1 0 0 -1 1686 1460.94)"/><path d="M0 0 205.691 0.000360892" stroke="#FF000F" stroke-width="2.29167" stroke-linejoin="round" stroke-miterlimit="10" fill="none" fill-rule="evenodd" transform="matrix(1 0 0 -1 1700 1361)"/><path d="M1406 1361 1671.15 1361" stroke="#FFD100" stroke-width="2.29167" stroke-linejoin="round" stroke-miterlimit="10" fill="none" fill-rule="evenodd"/><path d="M0 0 68.9911 0.288353" stroke="#0070C0" stroke-width="2.29167" stroke-linejoin="round" stroke-miterlimit="10" fill="none" fill-rule="evenodd" transform="matrix(1 0 0 -1 1686 1388.29)"/><path d="M1755 1388 1755 1406.42" stroke="#0070C0" stroke-width="2.29167" stroke-linejoin="round" stroke-miterlimit="10" fill="none" fill-rule="evenodd"/><path d="M1810 1361 1810 1388.3" stroke="#FF000F" stroke-width="2.29167" stroke-linejoin="round" stroke-miterlimit="10" fill="none" fill-rule="evenodd"/><path d="M0 0 0.000360892 223.031" stroke="#FFD100" stroke-width="2.29167" stroke-linejoin="round" stroke-miterlimit="10" fill="none" fill-rule="evenodd" transform="matrix(1 0 0 -1 1406 1584.03)"/><path d="M1614 1429 1686.03 1429" stroke="#0070C0" stroke-width="2.29167" stroke-linejoin="round" stroke-miterlimit="10" fill="none" fill-rule="evenodd"/><g><g><g><path d="M1593.75 1418.35C1593.1 1415.94 1590.78 1414.17 1588.21 1414.17 1585.54 1414.17 1583.23 1416.06 1582.69 1418.7L1582.63 1419.17 1582.17 1419.17C1580.33 1419.17 1578.83 1420.66 1578.83 1422.5 1578.83 1424.34 1580.33 1425.83 1582.17 1425.83L1593.42 1425.83C1595.48 1425.83 1597.17 1424.15 1597.17 1422.08 1597.17 1420.13 1595.66 1418.52 1593.75 1418.35ZM1593.42 1425 1582.17 1425C1580.79 1425 1579.67 1423.88 1579.67 1422.5 1579.67 1421.12 1580.79 1420 1582.17 1420L1583 1420 1583.41 1419.64 1583.51 1418.83C1583.96 1416.61 1585.94 1415 1588.21 1415 1590.5 1415 1592.56 1416.65 1593.01 1418.83L1593.42 1419.17C1595.02 1419.17 1596.33 1420.48 1596.33 1422.08 1596.33 1423.69 1595.02 1425 1593.42 1425Z"/></g></g></g><g><g><g><path d="M1605.53 1428.4 1604.35 1429.15 1602.83 1421.17 1602.42 1420.83 1600.32 1420.83 1599.91 1421.18 1598.27 1430.28 1597.42 1430.87 1597.42 1428.75 1596.76 1428.41 1593.25 1430.87 1593.25 1428.75 1592.61 1428.4 1588.03 1431.31 1587.83 1431.67 1587.83 1438.75 1588.25 1439.17 1605.75 1439.17 1606.17 1438.75 1606.17 1428.75 1605.53 1428.4ZM1600.67 1421.67 1602.07 1421.67 1603.59 1429.63 1601.58 1430.91 1601.58 1428.75 1600.93 1428.41 1599.24 1429.6 1600.67 1421.67ZM1605.33 1438.33 1588.67 1438.33 1588.67 1431.9 1592.42 1429.51 1592.42 1431.67 1593.07 1432.01 1596.59 1429.55 1596.59 1431.68 1597.25 1432.02 1600.75 1429.55 1600.75 1431.67 1601.39 1432.02 1605.33 1429.51 1605.33 1438.33Z"/><path d="M1590.33 1434.17 1591.17 1434.17 1591.17 1435.83 1590.33 1435.83Z"/><path d="M1592.42 1434.17 1593.25 1434.17 1593.25 1435.83 1592.42 1435.83Z"/><path d="M1594.5 1434.17 1595.33 1434.17 1595.33 1435.83 1594.5 1435.83Z"/><path d="M1596.58 1434.17 1597.42 1434.17 1597.42 1435.83 1596.58 1435.83Z"/><path d="M1598.67 1434.17 1599.5 1434.17 1599.5 1435.83 1598.67 1435.83Z"/><path d="M1600.75 1434.17 1601.58 1434.17 1601.58 1435.83 1600.75 1435.83Z"/><path d="M1602.83 1434.17 1603.67 1434.17 1603.67 1435.83 1602.83 1435.83Z"/></g></g></g><path d="M1837 1388 1837 1474.22" stroke="#FF000F" stroke-width="2.29167" stroke-linejoin="round" stroke-miterlimit="10" fill="none" fill-rule="evenodd"/><path d="M1406 1584 2368.34 1584" stroke="#FFD100" stroke-width="2.29167" stroke-linejoin="round" stroke-miterlimit="10" fill="none" fill-rule="evenodd"/><path d="M1690 1521.85 1708.34 1521.85 1708.34 1524.15 1690 1524.15ZM1703.75 1513.83 1722.09 1523 1703.76 1532.17Z" fill="#817275"/><path d="M1997 1521.85 2015.34 1521.85 2015.34 1524.15 1997 1524.15ZM2010.75 1513.83 2029.09 1523 2010.76 1532.17Z" fill="#817275"/><path d="M1450 1461 2368.3 1461" stroke="#0070C0" stroke-width="2.29167" stroke-linejoin="round" stroke-miterlimit="10" fill="none" fill-rule="evenodd"/><path d="M1449 1474 2368.87 1474" stroke="#FF000F" stroke-width="2.29167" stroke-linejoin="round" stroke-miterlimit="10" fill="none" fill-rule="evenodd"/><path d="M1374 1474 1406.5 1474" stroke="#FFD100" stroke-width="2.29167" stroke-linejoin="round" stroke-miterlimit="10" fill="none" fill-rule="evenodd"/><path d="M0 0 0.000360892 75.7094" stroke="#FFD100" stroke-width="2.29167" stroke-linejoin="round" stroke-miterlimit="10" fill="none" fill-rule="evenodd" transform="matrix(1 0 0 -1 1374 1511.71)"/><path d="M1324 1454 1374.55 1454" stroke="#FFD100" stroke-width="2.29167" stroke-linejoin="round" stroke-miterlimit="10" fill="none" fill-rule="evenodd"/><path d="M1324 1497 1374.55 1497" stroke="#FFD100" stroke-width="2.29167" stroke-linejoin="round" stroke-miterlimit="10" fill="none" fill-rule="evenodd"/><text font-family="ABBvoice,ABBvoice_MSFontService,sans-serif" font-weight="400" font-size="9" transform="matrix(1 0 0 1 1559.87 1451)">District Cooling</text><text font-family="ABBvoice,ABBvoice_MSFontService,sans-serif" font-weight="400" font-size="9" transform="matrix(1 0 0 1 1729.76 1452)">Borehole Storage</text><text font-family="ABBvoice,ABBvoice_MSFontService,sans-serif" font-weight="400" font-size="9" transform="matrix(1 0 0 1 1886.91 1380)">District Heating</text><path d="M0 0 0.000360892 21.013" stroke="#FFD100" stroke-width="2.29167" stroke-linejoin="round" stroke-miterlimit="10" fill="none" fill-rule="evenodd" transform="matrix(1 0 0 -1 1671 1584.01)"/><path d="M0 0 0.000360892 31.8" stroke="#FF000F" stroke-width="2.29167" stroke-linejoin="round" stroke-miterlimit="10" fill="none" fill-rule="evenodd" transform="matrix(1 0 0 -1 1596 1505.8)"/><path d="M0 0 0.000360892 21.013" stroke="#FFD100" stroke-width="2.29167" stroke-linejoin="round" stroke-miterlimit="10" fill="none" fill-rule="evenodd" transform="matrix(1 0 0 -1 1521 1584.01)"/><path d="M0 0 0.000360892 21.013" stroke="#FFD100" stroke-width="2.29167" stroke-linejoin="round" stroke-miterlimit="10" fill="none" fill-rule="evenodd" transform="matrix(1 0 0 -1 1446 1584.01)"/><path d="M0 0 0.000360892 21.013" stroke="#FFD100" stroke-width="2.29167" stroke-linejoin="round" stroke-miterlimit="10" fill="none" fill-rule="evenodd" transform="matrix(1 0 0 -1 1746 1584.01)"/><path d="M0 0 0.000360892 21.013" stroke="#FFD100" stroke-width="2.29167" stroke-linejoin="round" stroke-miterlimit="10" fill="none" fill-rule="evenodd" transform="matrix(1 0 0 -1 1821 1584.01)"/><path d="M0 0 0.000360892 45.6504" stroke="#0070C0" stroke-width="2.29167" stroke-linejoin="round" stroke-miterlimit="10" fill="none" fill-rule="evenodd" transform="matrix(1 0 0 -1 1677 1505.65)"/><path d="M0 0 0.000360892 21.013" stroke="#FFD100" stroke-width="2.29167" stroke-linejoin="round" stroke-miterlimit="10" fill="none" fill-rule="evenodd" transform="matrix(1 0 0 -1 1896 1584.01)"/><path d="M0 0 0.000360892 21.013" stroke="#FFD100" stroke-width="2.29167" stroke-linejoin="round" stroke-miterlimit="10" fill="none" fill-rule="evenodd" transform="matrix(1 0 0 -1 1970 1584.01)"/><path d="M0 0 0.000360892 21.013" stroke="#FFD100" stroke-width="2.29167" stroke-linejoin="round" stroke-miterlimit="10" fill="none" fill-rule="evenodd" transform="matrix(1 0 0 -1 2045 1584.01)"/><path d="M0 0 0.000360892 21.013" stroke="#FFD100" stroke-width="2.29167" stroke-linejoin="round" stroke-miterlimit="10" fill="none" fill-rule="evenodd" transform="matrix(1 0 0 -1 2120 1584.01)"/><path d="M0 0 0.000360892 21.013" stroke="#FFD100" stroke-width="2.29167" stroke-linejoin="round" stroke-miterlimit="10" fill="none" fill-rule="evenodd" transform="matrix(1 0 0 -1 2195 1584.01)"/><path d="M0 0 0.000360892 21.013" stroke="#FFD100" stroke-width="2.29167" stroke-linejoin="round" stroke-miterlimit="10" fill="none" fill-rule="evenodd" transform="matrix(1 0 0 -1 2270 1584.01)"/><path d="M0 0 0.000360892 21.013" stroke="#FFD100" stroke-width="2.29167" stroke-linejoin="round" stroke-miterlimit="10" fill="none" fill-rule="evenodd" transform="matrix(1 0 0 -1 1596 1584.01)"/><g><g><g><path d="M1308 1496.45C1311.12 1496.45 1313.67 1493.9 1313.67 1490.78 1313.67 1487.65 1311.12 1485.11 1308 1485.11 1304.88 1485.11 1302.33 1487.65 1302.33 1490.78 1302.33 1493.9 1304.88 1496.45 1308 1496.45ZM1308 1486.53C1310.34 1486.53 1312.25 1488.44 1312.25 1490.78 1312.25 1493.12 1310.34 1495.03 1308 1495.03 1305.66 1495.03 1303.75 1493.12 1303.75 1490.78 1303.75 1488.44 1305.66 1486.53 1308 1486.53Z"/><path d="M1307.29 1479.45 1308.71 1479.45 1308.71 1483.7 1307.29 1483.7Z"/><path d="M1312.51 1485.27 1315.51 1482.26 1316.51 1483.27 1313.51 1486.27Z"/><path d="M1315.08 1490.07 1319.33 1490.07 1319.33 1491.49 1315.08 1491.49Z"/><path d="M1312.51 1496.29 1313.51 1495.29 1316.51 1498.29 1315.51 1499.29Z"/><path d="M1299.49 1498.29 1302.49 1495.29 1303.49 1496.29 1300.49 1499.29Z"/><path d="M1296.67 1490.07 1300.92 1490.07 1300.92 1491.49 1296.67 1491.49Z"/><path d="M1299.49 1483.27 1300.49 1482.26 1303.49 1485.27 1302.49 1486.27Z"/><path d="M1307.08 1504.74 1309.92 1501.91 1309.42 1500.7 1307.59 1500.7 1309.21 1499.07 1308.21 1498.07 1305.37 1500.9 1305.88 1502.11 1307.71 1502.11 1306.08 1503.74Z"/><path d="M1317 1506.57 1316.5 1506.36 1299.5 1506.36 1299 1506.57 1296.17 1509.4 1296.67 1510.61 1319.33 1510.61 1319.83 1509.4 1317 1506.57ZM1298.38 1509.2 1299.79 1507.78 1316.21 1507.78 1317.62 1509.2 1298.38 1509.2Z"/></g></g></g><g><g><g><path d="M13.0605 22.5001 15.5303 20.0303 14.4698 18.9698 10.7198 22.7198 11.25 24.0001 13.9395 24.0001 11.4698 26.4698 12.5303 27.5303 16.2803 23.7803 15.75 22.5001Z" transform="matrix(1.00819 0 0 1 1474.49 1300)"/><path d="M9.75003 4.50001 9.00002 5.25001 9.00002 12 9.75003 12.75 17.25 12.75 18 12 18 5.25001 17.25 4.50001 9.75003 4.50001ZM16.5 11.25 10.5 11.25 10.5 6.00002 16.5 6.00002 16.5 11.25Z" transform="matrix(1.00819 0 0 1 1474.49 1300)"/><path d="M9.75003 15.75 17.25 15.75 17.25 17.25 9.75003 17.25Z" transform="matrix(1.00819 0 0 1 1474.49 1300)"/><path d="M30.0001 10.5 30.0001 9.00002 28.5001 9.00002 28.5001 10.5 27.0001 10.5 27.0001 9.00002 25.5001 9.00002 25.5001 10.5 24.7501 11.25 24.7501 12C24.7501 13.4213 25.6943 14.5718 27.0001 14.898L27.0001 30.0001 24.7501 30.0001 24.7501 16.5 24.0001 15.75 21.0001 15.75 21.0001 4.12501C21.0001 2.65276 19.8473 1.5 18.375 1.5L8.62502 1.5C7.15277 1.5 6.00002 2.65276 6.00002 4.12501L6.00002 33.7501 6.75002 34.5001 20.2501 34.5001 21.0001 33.7501 21.0001 17.25 23.2501 17.25 23.2501 30.7501 24.0001 31.5001 27.7501 31.5001 28.5001 30.7501 28.5001 14.898C29.8058 14.5718 30.7501 13.4205 30.7501 12L30.7501 11.25 30.0001 10.5ZM19.5001 33.0001 7.50002 33.0001 7.50002 31.5001 19.5001 31.5001 19.5001 33.0001ZM19.5001 30.0001 7.50002 30.0001 7.50002 4.12501C7.50002 3.49426 7.99427 3.00001 8.62502 3.00001L18.375 3.00001C19.0058 3.00001 19.5001 3.49426 19.5001 4.12501L19.5001 30.0001ZM27.7501 13.5C26.8943 13.5 26.2501 12.8558 26.2501 12L29.2501 12C29.2501 12.8558 28.6058 13.5 27.7501 13.5Z" transform="matrix(1.00819 0 0 1 1474.49 1300)"/></g></g></g><g><g><g><path d="M33.7501 14.25 30.7501 14.25 30.7501 11.25 30.0001 10.5 2.25001 10.5 1.5 11.25 1.5 24.7501 2.25001 25.5001 30.0001 25.5001 30.7501 24.7501 30.7501 21.7501 33.7501 21.7501 34.5001 21.0001 34.5001 15 33.7501 14.25ZM33.0001 20.2501 30.0001 20.2501 29.2501 21.0001 29.2501 24.0001 3.00001 24.0001 3.00001 12 29.2501 12 29.2501 15 30.0001 15.75 33.0001 15.75 33.0001 20.2501Z" transform="matrix(-1.83697e-16 -1 1.02389 -1.88085e-16 1545.07 1336)"/><path d="M5.25001 13.5 4.50001 14.25 4.50001 21.7501 5.25001 22.5001 8.25002 22.5001 9.00002 21.7501 9.00002 14.25 8.25002 13.5 5.25001 13.5ZM7.50002 21.0001 6.00002 21.0001 6.00002 15 7.50002 15 7.50002 21.0001Z" transform="matrix(-1.83697e-16 -1 1.02389 -1.88085e-16 1545.07 1336)"/><path d="M11.25 13.5 10.5 14.25 10.5 21.7501 11.25 22.5001 14.25 22.5001 15 21.7501 15 14.25 14.25 13.5 11.25 13.5ZM13.5 21.0001 12 21.0001 12 15 13.5 15 13.5 21.0001Z" transform="matrix(-1.83697e-16 -1 1.02389 -1.88085e-16 1545.07 1336)"/><path d="M17.25 13.5 16.5 14.25 16.5 21.7501 17.25 22.5001 20.2501 22.5001 21.0001 21.7501 21.0001 14.25 20.2501 13.5 17.25 13.5ZM19.5001 21.0001 18 21.0001 18 15 19.5001 15 19.5001 21.0001Z" transform="matrix(-1.83697e-16 -1 1.02389 -1.88085e-16 1545.07 1336)"/></g></g></g><text font-family="ABBvoice,ABBvoice_MSFontService,sans-serif" font-weight="400" font-size="9" transform="matrix(1 0 0 1 1463.64 1291)">EV Chargers</text><text font-family="ABBvoice,ABBvoice_MSFontService,sans-serif" font-weight="400" font-size="9" transform="matrix(1 0 0 1 1550.82 1295)">BESS</text><path d="M0 0 0.000360892 21.013" stroke="#FFD100" stroke-width="2.29167" stroke-linejoin="round" stroke-miterlimit="10" fill="none" fill-rule="evenodd" transform="matrix(1 0 0 -1 1490 1361.01)"/><path d="M0 0 0.000360892 21.013" stroke="#FFD100" stroke-width="2.29167" stroke-linejoin="round" stroke-miterlimit="10" fill="none" fill-rule="evenodd" transform="matrix(1 0 0 -1 1562 1361.01)"/><path d="M0 0 0.000360892 45.6504" stroke="#0070C0" stroke-width="2.29167" stroke-linejoin="round" stroke-miterlimit="10" fill="none" fill-rule="evenodd" transform="matrix(1 0 0 -1 2275 1506.65)"/><path d="M0 0 0.000360892 31.8" stroke="#FF000F" stroke-width="2.29167" stroke-linejoin="round" stroke-miterlimit="10" fill="none" fill-rule="evenodd" transform="matrix(1 0 0 -1 1667 1506.8)"/><text font-family="ABBvoice,ABBvoice_MSFontService,sans-serif" font-weight="400" font-size="9" transform="matrix(1 0 0 1 1298.93 1475)">Grid</text><text font-family="ABBvoice,ABBvoice_MSFontService,sans-serif" font-weight="400" font-size="9" transform="matrix(1 0 0 1 1282.03 1528)">Renewables </text><text font-family="ABBvoice,ABBvoice_MSFontService,sans-serif" font-weight="400" font-size="9" transform="matrix(1 0 0 1 1739.55 1384)">Arbitrage</text><text font-family="ABBvoice,ABBvoice_MSFontService,sans-serif" font-weight="400" font-size="9" transform="matrix(1 0 0 1 1541.94 1346)">Arbitrage</text><rect x="1500" y="1496" width="648" height="125" stroke="#7F7F7F" stroke-width="2.29167" stroke-linecap="square" stroke-linejoin="round" stroke-miterlimit="10" stroke-dasharray="6.875 2.29167" stroke-opacity="0.34902" fill="#FFFFFF" fill-opacity="0"/><text font-family="ABBvoice,ABBvoice_MSFontService,sans-serif" font-weight="400" font-size="9" transform="matrix(1 0 0 1 1532.95 1603)">Dry room</text><path d="M0 0 0.000360892 21.013" stroke="#FFD100" stroke-width="2.29167" stroke-linejoin="round" stroke-miterlimit="10" fill="none" fill-rule="evenodd" transform="matrix(1 0 0 -1 2342 1583.01)"/><path d="M2344.75 1521.71 2342.87 1522.92 2341.47 1512.61 2340.85 1512 2338.06 1512 2337.3 1512.61 2335.76 1523.66 2334.23 1524.74 2334.23 1522.31 2333.12 1521.71 2328.59 1524.74 2328.59 1522.31 2327.55 1521.71 2321.35 1525.48 2321 1526.09 2321 1535.39 2321.84 1536 2345.16 1536 2346 1535.39 2346 1522.31 2344.75 1521.71ZM2338.69 1513.35 2340.08 1513.35 2341.47 1523.8 2339.8 1524.88 2339.8 1522.31 2338.69 1521.71 2337.43 1522.65 2338.69 1513.35ZM2344.4 1534.65 2322.6 1534.65 2322.6 1526.49 2327.2 1523.66 2327.2 1526.09 2328.31 1526.7 2332.84 1523.66 2332.84 1526.09 2333.88 1526.7 2338.41 1523.66 2338.41 1526.09 2339.45 1526.7 2344.4 1523.66 2344.4 1534.65Z" fill="#FFFFFF" fill-rule="evenodd"/><rect x="2325" y="1530" width="1" height="2.00012" fill="#FFFFFF"/><rect x="2327" y="1530" width="2" height="2.00012" fill="#FFFFFF"/><rect x="2330" y="1530" width="1" height="2.00012" fill="#FFFFFF"/><rect x="2333" y="1530" width="1" height="2.00012" fill="#FFFFFF"/><rect x="2335" y="1530" width="2" height="2.00012" fill="#FFFFFF"/><rect x="2338" y="1530" width="2" height="2.00012" fill="#FFFFFF"/><rect x="2341" y="1530" width="1" height="2.00012" fill="#FFFFFF"/><text font-family="ABBvoice,ABBvoice_MSFontService,sans-serif" font-weight="400" font-size="9" transform="matrix(1 0 0 1 2317.12 1546)">Building</text><path d="M0 0 0.000360892 45.6504" stroke="#0070C0" stroke-width="2.29167" stroke-linejoin="round" stroke-miterlimit="10" fill="none" fill-rule="evenodd" transform="matrix(1 0 0 -1 2342 1504.65)"/><path d="M0 0 0.000360892 31.8" stroke="#FF000F" stroke-width="2.29167" stroke-linejoin="round" stroke-miterlimit="10" fill="none" fill-rule="evenodd" transform="matrix(1 0 0 -1 2330 1505.8)"/></g></svg>