<svg width="729" height="498" xmlns="http://www.w3.org/2000/svg" xmlns:xlink="http://www.w3.org/1999/xlink" xml:space="preserve" overflow="hidden"><g transform="translate(-3081 -703)"><text font-family="ABBvoice,ABBvoice_MSFontService,sans-serif" font-weight="400" font-size="18" transform="matrix(1 0 0 1 3149.71 1183)">Welding</text><text font-family="ABBvoice,ABBvoice_MSFontService,sans-serif" font-weight="400" font-size="18" transform="matrix(1 0 0 1 3322.31 1183)">Enclosing</text><text font-family="ABBvoice,ABBvoice_MSFontService,sans-serif" font-weight="400" font-size="18" transform="matrix(1 0 0 1 3498.06 1183)">Formation</text><text font-family="ABBvoice,ABBvoice_MSFontService,sans-serif" font-weight="400" font-size="18" transform="matrix(1 0 0 1 3698.16 1183)">Aging</text><text font-family="ABBvoice,ABBvoice_MSFontService,sans-serif" font-weight="700" font-size="18" transform="matrix(1 0 0 1 3115.89 726)">1.</text><text font-family="ABBvoice,ABBvoice_MSFontService,sans-serif" font-weight="700" font-size="18" transform="matrix(1 0 0 1 3134.8 726)">Electrode Preparation</text><text font-family="ABBvoice,ABBvoice_MSFontService,sans-serif" font-weight="700" font-size="18" transform="matrix(1 0 0 1 3115.89 897)">2. Cell Manufacturing</text><text font-family="ABBvoice,ABBvoice_MSFontService,sans-serif" font-weight="700" font-size="18" transform="matrix(1 0 0 1 3115.89 1067)">3. Pack Manufacturing &amp; Electrochemistry Activation</text><text font-family="ABBvoice,ABBvoice_MSFontService,sans-serif" font-weight="400" font-size="18" transform="matrix(1 0 0 1 3156.02 840)">Mixing</text><text font-family="ABBvoice,ABBvoice_MSFontService,sans-serif" font-weight="400" font-size="18" transform="matrix(1 0 0 1 3329.76 840)">Coating</text><text font-family="ABBvoice,ABBvoice_MSFontService,sans-serif" font-weight="400" font-size="18" transform="matrix(1 0 0 1 3515.25 840)">Drying</text><text font-family="ABBvoice,ABBvoice_MSFontService,sans-serif" font-weight="400" font-size="18" transform="matrix(1 0 0 1 3691.01 840)">Solvent </text><text font-family="ABBvoice,ABBvoice_MSFontService,sans-serif" font-weight="400" font-size="18" transform="matrix(1 0 0 1 3686.13 862)">recovery</text><text font-family="ABBvoice,ABBvoice_MSFontService,sans-serif" font-weight="400" font-size="18" transform="matrix(1 0 0 1 3147.42 1010)">Stacking</text><text font-family="ABBvoice,ABBvoice_MSFontService,sans-serif" font-weight="400" font-size="18" transform="matrix(1 0 0 1 3299.68 1010)">Vacuum drying</text><text font-family="ABBvoice,ABBvoice_MSFontService,sans-serif" font-weight="400" font-size="18" transform="matrix(1 0 0 1 3512.38 1010)">Slitting</text><text font-family="ABBvoice,ABBvoice_MSFontService,sans-serif" font-weight="400" font-size="18" transform="matrix(1 0 0 1 3670.66 1010)">Calendering</text><g><g><g><path d="M2.25 8.99999 5.5125 8.99999 11.25 9.89999 11.25 17.1 5.5125 18 2.25 18 2.25 20.25 5.625 20.25 5.7375 20.25 12.4875 19.125 13.5 18 13.5 8.99999 12.4875 7.875 5.7375 6.75 5.625 6.75 2.25 6.75 2.25 8.99999Z" fill="#020203" transform="matrix(1 0 0 1.01852 3158 1102)"/><path d="M36.225 32.85 36.7875 33.75 40.3875 31.275 40.725 29.925 38.025 23.625 36.3375 23.175 30.375 27.3375 30.2625 29.1375 35.4375 33.75 36.7875 33.75 36.225 32.85 36.9 32.0625 32.85 28.35 36.45 25.7625 38.3625 29.925 35.55 31.95 36.225 32.85 36.9 32.0625Z" fill="#020203" transform="matrix(1 0 0 1.01852 3158 1102)"/><path d="M12.375 12.375 25.3125 12.375 35.1 25.425 36.9 24.075 26.775 10.575 25.875 10.125 12.375 10.125 12.375 12.375Z" fill="#020203" transform="matrix(1 0 0 1.01852 3158 1102)"/><path d="M12.375 16.875 23.0625 16.875 31.3875 28.0125 33.1875 26.6625 24.525 15.075 23.625 14.625 12.375 14.625 12.375 16.875Z" fill="#020203" transform="matrix(1 0 0 1.01852 3158 1102)"/><path d="M37.8 20.1375 48.6 24.075 44.2125 28.4625 43.9875 29.8125 48.15 36.45 41.85 34.875 40.5 36 40.5 43.0875 34.5375 36.3375 32.9625 36.225 28.9125 39.4875 27 26.775 24.75 27.225 27 41.85 28.8 42.525 33.525 38.7 40.725 46.9125 42.75 46.125 42.75 37.4625 50.2875 39.375 51.525 37.6875 46.35 29.3625 51.4125 24.4125 50.9625 22.6125 38.5875 18.1125 37.8 20.1375Z" fill="#020203" transform="matrix(1 0 0 1.01852 3158 1102)"/></g></g></g><g><g><g><path d="M18.0037 35.985 11.2608 35.985 10.1369 34.8612 10.1369 20.2514 11.2608 19.1276 18.0037 19.1276 19.1276 20.2514 19.1276 34.8612 18.0037 35.985ZM12.3846 33.7373 16.8799 33.7373 16.8799 21.3752 12.3846 21.3752 12.3846 33.7373Z" transform="matrix(1 0 0 1.01852 3517 1102)"/><path d="M42.728 35.985 35.985 35.985 34.8612 34.8612 34.8612 20.2514 35.985 19.1276 42.728 19.1276 43.8518 20.2514 43.8518 34.8612 42.728 35.985ZM37.1088 33.7373 41.6041 33.7373 41.6041 21.3752 37.1088 21.3752 37.1088 33.7373Z" transform="matrix(1 0 0 1.01852 3517 1102)"/><path d="M24.3534 15.4976 22.9036 13.7781 27.2641 10.1369 23.6229 10.1369 22.9036 8.159 29.6466 2.53985 31.0963 4.25931 26.7359 7.88928 30.3659 7.88928 31.0963 9.87845 24.3534 15.4976Z" transform="matrix(1 0 0 1.01852 3517 1102)"/><path d="M48.3471 51.7186 5.64162 51.7186 4.51779 50.5948 4.51779 24.7467 5.64162 23.6229 11.2608 23.6229 11.2608 25.8705 6.76545 25.8705 6.76545 49.4709 47.2233 49.4709 47.2233 25.8705 42.728 25.8705 42.728 23.6229 48.3471 23.6229 49.4709 24.7467 49.4709 50.5948 48.3471 51.7186Z" transform="matrix(1 0 0 1.01852 3517 1102)"/><path d="M34.8612 41.6041 43.8518 41.6041 43.8518 43.8518 34.8612 43.8518Z" transform="matrix(1 0 0 1.01852 3517 1102)"/><path d="M10.1369 41.6041 19.1276 41.6041 19.1276 43.8518 10.1369 43.8518Z" transform="matrix(1 0 0 1.01852 3517 1102)"/><path d="M38.2327 38.2327 40.4803 38.2327 40.4803 47.2233 38.2327 47.2233Z" transform="matrix(1 0 0 1.01852 3517 1102)"/><path d="M16.8799 23.6229 34.8612 23.6229 34.8612 25.8705 16.8799 25.8705Z" transform="matrix(1 0 0 1.01852 3517 1102)"/><path d="M15.7561 20.2514 13.5084 20.2514 13.5084 9.01311 14.6322 7.88928 20.2514 7.88928 20.2514 10.1369 15.7561 10.1369 15.7561 20.2514Z" transform="matrix(1 0 0 1.01852 3517 1102)"/><path d="M40.4803 20.2514 38.2327 20.2514 38.2327 10.1369 33.7373 10.1369 33.7373 7.88928 39.3565 7.88928 40.4803 9.01311 40.4803 20.2514Z" transform="matrix(1 0 0 1.01852 3517 1102)"/></g></g></g><g><g><g><path d="M3698.29 942.771 3748.71 942.771 3748.71 945.062 3698.29 945.062Z" fill="#010101"/><path d="M3722.35 948.5 3724.65 948.5 3724.65 950.792 3722.35 950.792Z" fill="#010101"/><path d="M3729.23 951.937 3731.52 951.937 3731.52 954.229 3729.23 954.229Z" fill="#010101"/><path d="M3731.52 957.667 3733.81 957.667 3733.81 959.958 3731.52 959.958Z" fill="#010101"/><path d="M3715.48 951.937 3717.77 951.937 3717.77 954.229 3715.48 954.229Z" fill="#010101"/><path d="M3713.19 957.667 3715.48 957.667 3715.48 959.958 3713.19 959.958Z" fill="#010101"/><path d="M3715.48 963.396 3717.77 963.396 3717.77 965.687 3715.48 965.687Z" fill="#010101"/><path d="M3722.35 966.833 3724.65 966.833 3724.65 969.125 3722.35 969.125Z" fill="#010101"/><path d="M3723.5 963.396C3720.97 963.396 3718.92 961.345 3718.92 958.812 3718.92 956.28 3720.97 954.229 3723.5 954.229 3726.03 954.229 3728.08 956.28 3728.08 958.812 3728.08 961.345 3726.03 963.396 3723.5 963.396ZM3723.5 956.521C3722.24 956.521 3721.21 957.552 3721.21 958.812 3721.21 960.073 3722.24 961.104 3723.5 961.104 3724.76 961.104 3725.79 960.073 3725.79 958.812 3725.79 957.552 3724.76 956.521 3723.5 956.521Z" fill="#010101"/><path d="M3723.5 938.187C3720.97 938.187 3718.92 936.136 3718.92 933.604 3718.92 931.072 3720.97 929.021 3723.5 929.021 3726.03 929.021 3728.08 931.072 3728.08 933.604 3728.08 936.136 3726.03 938.187 3723.5 938.187ZM3723.5 931.312C3722.24 931.312 3721.21 932.344 3721.21 933.604 3721.21 934.864 3722.24 935.896 3723.5 935.896 3724.76 935.896 3725.79 934.864 3725.79 933.604 3725.79 932.344 3724.76 931.312 3723.5 931.312Z" fill="#010101"/><path d="M3723.5 973.708C3715.28 973.708 3708.6 967.028 3708.6 958.812 3708.6 950.597 3715.28 943.917 3723.5 943.917 3731.72 943.917 3738.4 950.597 3738.4 958.812 3738.4 967.028 3731.72 973.708 3723.5 973.708ZM3723.5 946.208C3716.54 946.208 3710.9 951.857 3710.9 958.812 3710.9 965.768 3716.54 971.417 3723.5 971.417 3730.46 971.417 3736.1 965.768 3736.1 958.812 3736.1 951.857 3730.46 946.208 3723.5 946.208Z" fill="#010101"/><path d="M3723.5 943.917C3717.82 943.917 3713.19 939.287 3713.19 933.604 3713.19 927.921 3717.82 923.292 3723.5 923.292 3729.18 923.292 3733.81 927.921 3733.81 933.604 3733.81 939.287 3729.18 943.917 3723.5 943.917ZM3723.5 925.583C3719.08 925.583 3715.48 929.181 3715.48 933.604 3715.48 938.027 3719.08 941.625 3723.5 941.625 3727.92 941.625 3731.52 938.027 3731.52 933.604 3731.52 929.181 3727.92 925.583 3723.5 925.583Z" fill="#010101"/><path d="M3729.23 963.396 3731.52 963.396 3731.52 965.687 3729.23 965.687Z" fill="#010101"/></g></g></g><g><g><g><path d="M2.25 28.125 29.25 28.125 29.25 25.875 2.25 25.875" transform="matrix(1.01852 0 0 1 3337 757)"/><path d="M38.3625 27 37.2375 27C37.2375 28.9125 35.6625 30.4875 33.75 30.4875 31.8375 30.4875 30.2625 28.9125 30.2625 27 30.2625 25.0875 31.8375 23.5125 33.75 23.5125 35.6625 23.5125 37.2375 25.0875 37.2375 27L38.3625 27 39.4875 27C39.4875 23.85 36.9 21.2625 33.75 21.2625 30.6 21.2625 28.0125 23.85 28.0125 27 28.0125 30.15 30.6 32.7375 33.75 32.7375 36.9 32.7375 39.4875 30.15 39.4875 27L38.3625 27Z" transform="matrix(1.01852 0 0 1 3337 757)"/><path d="M34.875 22.5 34.875 4.5 32.625 4.5 32.625 22.5" transform="matrix(1.01852 0 0 1 3337 757)"/><path d="M34.875 49.5 34.875 31.5 32.625 31.5 32.625 49.5" transform="matrix(1.01852 0 0 1 3337 757)"/><path d="M29.5875 29.5875 18.3375 40.8375 19.9125 42.4125 31.1625 31.1625" transform="matrix(1.01852 0 0 1 3337 757)"/><path d="M47.5875 11.5875 36.3375 22.8375 37.9125 24.4125 49.1625 13.1625" transform="matrix(1.01852 0 0 1 3337 757)"/><path d="M36.3375 31.1625 47.5875 42.4125 49.1625 40.8375 37.9125 29.5875" transform="matrix(1.01852 0 0 1 3337 757)"/><path d="M18.3375 13.1625 29.5875 24.4125 31.1625 22.8375 19.9125 11.5875" transform="matrix(1.01852 0 0 1 3337 757)"/><path d="M38.25 28.125 51.75 28.125 51.75 25.875 38.25 25.875" transform="matrix(1.01852 0 0 1 3337 757)"/></g></g></g><g><g><g><path d="M3360.49 930.843C3360.52 930.075 3361.31 929.238 3361.58 929.009L3360.84 928.127 3360.11 927.245C3359.93 927.394 3358.3 928.803 3358.2 930.717 3358.15 931.713 3358.53 932.664 3359.31 933.467 3359.76 933.913 3359.79 934.257 3359.77 934.463 3359.72 935.174 3358.97 935.93 3358.71 936.125L3360.12 937.935C3360.31 937.786 3361.93 936.48 3362.06 934.612 3362.11 933.913 3361.96 932.871 3360.95 931.851 3360.51 931.404 3360.48 931.06 3360.49 930.831Z"/><path d="M3364.96 930.579C3364.99 929.811 3365.77 928.975 3366.05 928.746L3365.31 927.863 3364.58 926.981C3364.4 927.13 3362.77 928.539 3362.67 930.453 3362.62 931.45 3363 932.401 3363.78 933.203 3364.23 933.65 3364.26 933.994 3364.24 934.2 3364.19 934.91 3363.43 935.667 3363.18 935.861L3364.59 937.672C3364.78 937.523 3366.4 936.217 3366.53 934.36 3366.57 933.661 3366.43 932.619 3365.42 931.587 3364.98 931.141 3364.95 930.797 3364.96 930.568Z"/><path d="M3369.22 930.579C3369.26 929.811 3370.03 928.975 3370.31 928.746L3369.58 927.863 3368.84 926.981C3368.66 927.13 3367.03 928.539 3366.93 930.453 3366.88 931.45 3367.26 932.401 3368.04 933.203 3368.49 933.65 3368.52 933.994 3368.5 934.211 3368.45 934.922 3367.7 935.678 3367.45 935.873L3368.85 937.683C3369.04 937.534 3370.66 936.228 3370.79 934.372 3370.84 933.673 3370.69 932.63 3369.68 931.599 3369.24 931.152 3369.21 930.808 3369.22 930.579Z"/><path d="M3359.78 950.517C3359.73 951.227 3358.98 951.983 3358.73 952.178L3360.13 953.988C3360.32 953.839 3361.95 952.533 3362.07 950.666 3362.12 949.967 3361.97 948.924 3360.96 947.904 3360.52 947.457 3360.49 947.113 3360.5 946.884 3360.54 946.117 3361.33 945.28 3361.59 945.051L3360.86 944.169 3360.12 943.286C3359.94 943.435 3358.31 944.845 3358.21 946.758 3358.16 947.755 3358.54 948.706 3359.32 949.508 3359.77 949.955 3359.8 950.299 3359.78 950.505Z"/><path d="M3364.25 950.253C3364.2 950.963 3363.45 951.72 3363.19 951.914L3364.6 953.725C3364.79 953.576 3366.41 952.27 3366.54 950.413 3366.59 949.714 3366.44 948.672 3365.43 947.641 3364.99 947.194 3364.96 946.85 3364.97 946.621 3365 945.853 3365.78 945.017 3366.06 944.787L3365.33 943.905 3364.59 943.023C3364.41 943.172 3362.78 944.581 3362.68 946.495 3362.63 947.492 3363.01 948.443 3363.79 949.245 3364.24 949.692 3364.27 950.035 3364.25 950.242Z"/><path d="M3368.51 950.253C3368.46 950.963 3367.71 951.72 3367.46 951.914L3368.87 953.725C3369.05 953.576 3370.68 952.27 3370.8 950.413 3370.85 949.714 3370.7 948.672 3369.69 947.641 3369.26 947.194 3369.22 946.85 3369.23 946.621 3369.27 945.853 3370.05 945.017 3370.32 944.787L3369.59 943.905 3368.85 943.023C3368.67 943.172 3367.04 944.581 3366.94 946.495 3366.9 947.492 3367.27 948.443 3368.05 949.245 3368.5 949.692 3368.53 950.035 3368.51 950.253Z"/><path d="M3359.78 966.558C3359.73 967.269 3358.98 968.025 3358.73 968.22L3360.13 970.03C3360.32 969.881 3361.95 968.575 3362.07 966.707 3362.12 966.008 3361.97 964.966 3360.96 963.946 3360.52 963.499 3360.49 963.155 3360.5 962.926 3360.54 962.158 3361.33 961.322 3361.59 961.093L3360.86 960.21 3360.12 959.328C3359.94 959.477 3358.31 960.886 3358.21 962.8 3358.16 963.797 3358.54 964.748 3359.32 965.55 3359.77 965.997 3359.8 966.341 3359.78 966.547Z"/><path d="M3364.25 966.295C3364.2 967.005 3363.45 967.761 3363.19 967.956L3364.6 969.767C3364.79 969.618 3366.41 968.311 3366.54 966.455 3366.59 965.756 3366.44 964.713 3365.43 963.682 3364.99 963.235 3364.96 962.892 3364.97 962.662 3365 961.895 3365.78 961.058 3366.06 960.829L3365.33 959.947 3364.59 959.064C3364.41 959.213 3362.78 960.623 3362.68 962.536 3362.63 963.533 3363.01 964.484 3363.79 965.286 3364.24 965.733 3364.27 966.077 3364.25 966.283Z"/><path d="M3368.51 966.295C3368.46 967.005 3367.71 967.761 3367.46 967.956L3368.87 969.767C3369.05 969.618 3370.68 968.311 3370.8 966.455 3370.85 965.756 3370.7 964.713 3369.69 963.682 3369.26 963.235 3369.22 962.892 3369.23 962.662 3369.27 961.895 3370.05 961.058 3370.32 960.829L3369.59 959.947 3368.85 959.064C3368.67 959.213 3367.04 960.623 3366.94 962.536 3366.9 963.533 3367.27 964.484 3368.05 965.286 3368.5 965.733 3368.53 966.077 3368.51 966.295Z"/><path d="M3381.69 923.292 3347.31 923.292 3346.17 924.437 3346.17 972.562 3347.31 973.708 3381.69 973.708 3382.83 972.562 3382.83 924.437 3381.69 923.292ZM3348.46 925.583 3380.54 925.583 3380.54 939.333 3348.46 939.333 3348.46 925.583ZM3380.54 955.375 3348.46 955.375 3348.46 941.625 3380.54 941.625 3380.54 955.375ZM3380.54 971.417 3348.46 971.417 3348.46 957.667 3380.54 957.667 3380.54 971.417Z"/></g></g></g><g><g><g><path d="M6.75 11.25 5.625 12.375 5.625 50.625 6.75 51.75 38.25 51.75 39.375 50.625 39.375 31.9612 41.625 29.7112 41.625 46.125 43.875 46.125 43.875 27.4612 46.125 25.2112 46.125 41.625 48.375 41.625 48.375 3.375 47.25 2.25 15.75 2.25 15.75 4.5 28.7887 4.5 26.5387 6.75 11.25 6.75 11.25 8.99999 24.2887 8.99999 22.0387 11.25ZM37.125 13.5 37.125 30.375 23.625 30.375 23.625 13.5ZM7.875 13.5 21.375 13.5 21.375 30.375 7.875 30.375ZM7.875 49.5 7.875 32.625 21.375 32.625 21.375 49.5ZM23.625 49.5 23.625 32.625 37.125 32.625 37.125 49.5ZM31.9612 4.5 46.125 4.5 46.125 22.0387 43.875 24.2887 43.875 7.875 42.75 6.75 29.7112 6.75ZM27.4612 8.99999 41.625 8.99999 41.625 26.5387 39.375 28.7887 39.375 12.375 38.25 11.25 25.2112 11.25Z" transform="matrix(-1.87099e-16 -1.01852 -1 1.83697e-16 3212 976)"/></g></g></g><g><g><g><path d="M3529.6 765.55 3533.76 771.737C3533.88 771.962 3533.99 772.075 3533.99 772.3 3533.99 772.525 3533.99 772.637 3533.76 772.862L3530.39 777.812C3530.05 778.375 3529.82 778.937 3529.82 779.612 3529.82 780.287 3530.05 780.85 3530.39 781.412L3533.76 786.362C3533.88 786.587 3533.99 786.7 3533.99 786.925 3533.99 787.15 3533.99 787.262 3533.76 787.487L3529.6 793.675 3531.51 794.912 3535.68 788.725C3536.01 788.162 3536.24 787.6 3536.24 786.925 3536.24 786.25 3536.01 785.687 3535.68 785.125L3532.3 780.175C3532.19 779.95 3532.07 779.837 3532.07 779.612 3532.07 779.387 3532.07 779.275 3532.3 779.05L3535.68 774.1C3536.01 773.537 3536.24 772.975 3536.24 772.3 3536.24 771.625 3536.01 771.062 3535.68 770.5L3531.51 764.312 3529.6 765.55 3529.6 765.55Z" fill="#020203"/><path d="M3552.1 765.55 3556.26 771.737C3556.38 771.962 3556.49 772.075 3556.49 772.3 3556.49 772.525 3556.49 772.637 3556.26 772.862L3552.89 777.812C3552.55 778.375 3552.32 778.937 3552.32 779.612 3552.32 780.287 3552.55 780.85 3552.89 781.412L3556.26 786.362C3556.38 786.587 3556.49 786.7 3556.49 786.925 3556.49 787.15 3556.49 787.262 3556.26 787.487L3552.1 793.675 3554.01 794.912 3558.18 788.725C3558.51 788.162 3558.74 787.6 3558.74 786.925 3558.74 786.25 3558.51 785.687 3558.18 785.125L3554.8 780.175C3554.69 779.95 3554.57 779.837 3554.57 779.612 3554.57 779.387 3554.57 779.275 3554.8 779.05L3558.18 774.1C3558.51 773.537 3558.74 772.975 3558.74 772.3 3558.74 771.625 3558.51 771.062 3558.18 770.5L3554.01 764.312 3552.1 765.55 3552.1 765.55Z" fill="#020203"/><path d="M3540.85 765.55 3545.01 771.737C3545.12 771.962 3545.24 772.075 3545.24 772.3 3545.24 772.525 3545.24 772.637 3545.01 772.862L3541.64 777.812C3541.3 778.375 3541.07 778.937 3541.07 779.612 3541.07 780.287 3541.3 780.85 3541.64 781.412L3545.01 786.362C3545.12 786.587 3545.24 786.7 3545.24 786.925 3545.24 787.15 3545.24 787.262 3545.01 787.487L3540.85 793.675 3542.76 794.912 3546.93 788.725C3547.26 788.162 3547.49 787.6 3547.49 786.925 3547.49 786.25 3547.26 785.687 3546.93 785.125L3543.55 780.175C3543.44 779.95 3543.32 779.837 3543.32 779.612 3543.32 779.387 3543.32 779.275 3543.55 779.05L3546.93 774.1C3547.26 773.537 3547.49 772.975 3547.49 772.3 3547.49 771.625 3547.26 771.062 3546.93 770.5L3542.76 764.312 3540.85 765.55 3540.85 765.55Z" fill="#020203"/><path d="M3520.38 803.125 3520.38 804.25 3567.62 804.25 3568.75 803.125 3568.75 798.625 3567.62 797.5 3520.38 797.5 3519.25 798.625 3519.25 803.125 3520.38 804.25 3520.38 803.125 3521.5 803.125 3521.5 799.75 3566.5 799.75 3566.5 802 3520.38 802 3520.38 803.125 3521.5 803.125Z" fill="#020203"/></g></g></g><g><g><g><path d="M30.375 38.25C30.375 28.4625 19.3612 14.1075 18.8887 13.5L17.1112 13.5C16.6387 14.1075 5.625 28.4625 5.625 38.25 5.625 46.2037 10.71 51.75 18 51.75 25.29 51.75 30.375 46.2037 30.375 38.25ZM18 49.5C12.0375 49.5 7.875 44.8762 7.875 38.25 7.875 30.7687 15.3787 19.7212 18 16.0762 20.6212 19.7212 28.125 30.7687 28.125 38.25 28.125 44.8762 23.9625 49.5 18 49.5Z" transform="matrix(1.01852 0 0 1 3696 757)"/><path d="M48.375 19.125C48.375 12.1725 40.5 3.02625 40.23 2.64375L38.52 2.64375C38.25 3.02625 30.375 12.1725 30.375 19.125 30.375 24.8962 34.245 29.25 39.375 29.25 44.505 29.25 48.375 24.8962 48.375 19.125ZM32.625 19.125C32.625 14.265 37.3837 7.68374 39.375 5.16375 41.3662 7.68374 46.125 14.265 46.125 19.125 46.125 23.6925 43.29 27 39.375 27 35.46 27 32.625 23.6925 32.625 19.125Z" transform="matrix(1.01852 0 0 1 3696 757)"/></g></g></g><g><g><g><path d="M3164.75 784C3164.75 791.96 3169.41 799.184 3176.66 802.461L3177.6 800.414C3168.54 796.32 3164.51 785.657 3168.61 776.598 3171.27 770.707 3176.89 766.696 3183.32 766.09L3180.83 768.576 3182.42 770.174 3186.92 765.674 3186.92 764.076 3182.42 759.576 3180.83 761.174 3183.48 763.829C3172.92 764.623 3164.76 773.414 3164.75 784Z"/><path d="M3187.58 797.826 3183.08 802.326 3183.08 803.924 3187.58 808.424 3189.17 806.826 3186.52 804.171C3197.67 803.317 3206.02 793.584 3205.16 782.433 3204.6 775.066 3200.07 768.591 3193.34 765.539L3192.41 767.597C3201.47 771.704 3205.48 782.372 3201.37 791.425 3198.71 797.301 3193.1 801.301 3186.68 801.91L3189.17 799.424Z"/></g></g></g><g><g><g><path d="M38.25 48.375 14.625 48.375 13.5 47.25 13.5 6.75 14.625 5.625 38.25 5.625 39.375 6.75 39.375 47.25 38.25 48.375ZM15.75 46.125 37.125 46.125 37.125 7.875 15.75 7.875 15.75 46.125Z" transform="matrix(6.23663e-17 1.01852 -1 6.12323e-17 3571 921)"/><path d="M19.125 6.75 21.375 6.75 21.375 46.125 19.125 46.125Z" transform="matrix(6.23663e-17 1.01852 -1 6.12323e-17 3571 921)"/><path d="M32.625 6.75 34.875 6.75 34.875 46.125 32.625 46.125Z" transform="matrix(6.23663e-17 1.01852 -1 6.12323e-17 3571 921)"/><path d="M28.125 6.75 30.375 6.75 30.375 46.125 28.125 46.125Z" transform="matrix(6.23663e-17 1.01852 -1 6.12323e-17 3571 921)"/><path d="M23.625 6.75 25.875 6.75 25.875 46.125 23.625 46.125Z" transform="matrix(6.23663e-17 1.01852 -1 6.12323e-17 3571 921)"/><path d="M45.7987 18.7987 44.2012 17.2012 46.7887 14.625 44.2012 12.0487 45.7987 10.4512 49.1737 13.8262 49.1737 15.4237 45.7987 18.7987Z" transform="matrix(6.23663e-17 1.01852 -1 6.12323e-17 3571 921)"/><path d="M38.925 13.5 46.8 13.5 46.8 15.75 38.925 15.75Z" transform="matrix(6.23663e-17 1.01852 -1 6.12323e-17 3571 921)"/><path d="M48.0487 31.1737 46.4512 29.5762 49.0387 27 46.4512 24.4237 48.0487 22.8262 51.4237 26.2012 51.4237 27.7987 48.0487 31.1737Z" transform="matrix(6.23663e-17 1.01852 -1 6.12323e-17 3571 921)"/><path d="M38.25 25.875 49.5 25.875 49.5 28.125 38.25 28.125Z" transform="matrix(6.23663e-17 1.01852 -1 6.12323e-17 3571 921)"/><path d="M45.7987 43.5487 44.2012 41.9512 46.7887 39.375 44.2012 36.7987 45.7987 35.2012 49.1737 38.5762 49.1737 40.1737 45.7987 43.5487Z" transform="matrix(6.23663e-17 1.01852 -1 6.12323e-17 3571 921)"/><path d="M38.25 38.25 47.25 38.25 47.25 40.5 38.25 40.5Z" transform="matrix(6.23663e-17 1.01852 -1 6.12323e-17 3571 921)"/><path d="M5.625 25.875 23.625 25.875 23.625 28.125 5.625 28.125Z" transform="matrix(6.23663e-17 1.01852 -1 6.12323e-17 3571 921)"/><path d="M2.25 13.5 23.625 13.5 23.625 15.75 2.25 15.75Z" transform="matrix(6.23663e-17 1.01852 -1 6.12323e-17 3571 921)"/><path d="M2.25 38.25 23.625 38.25 23.625 40.5 2.25 40.5Z" transform="matrix(6.23663e-17 1.01852 -1 6.12323e-17 3571 921)"/></g></g></g><g><g><g><path d="M3705.17 1148.98 3705.17 1153.56 3706.31 1154.71 3740.69 1154.71 3741.83 1153.56 3741.83 1148.98 3741.63 1148.31 3728.34 1129.5 3741.63 1110.69 3741.83 1110.02 3741.83 1105.44 3740.69 1104.29 3706.31 1104.29 3705.17 1105.44 3705.17 1110.02 3705.37 1110.69 3718.66 1129.5 3705.37 1148.31ZM3707.46 1149.35 3721 1130.16 3721 1128.84 3707.46 1109.65 3707.46 1106.58 3739.54 1106.58 3739.54 1109.65 3726 1128.84 3726 1130.16 3739.54 1149.35 3739.54 1152.42 3707.46 1152.42Z"/><path d="M3722.55 1133.45 3713.38 1147.2 3714.33 1148.98 3732.67 1148.98 3733.62 1147.2 3724.45 1133.45ZM3716.48 1146.69 3723.5 1136.15 3730.52 1146.69Z"/><path d="M3724.45 1126.69 3729.03 1119.82 3728.08 1118.04 3718.92 1118.04 3717.97 1119.82 3722.55 1126.69ZM3725.94 1120.33 3723.5 1124 3721.06 1120.33Z"/></g></g></g><g><g><g><path d="M3340.44 1104.29 3339.29 1105.44 3339.29 1116.9 3341.58 1116.9 3341.58 1106.58 3387.42 1106.58 3387.42 1152.42 3341.58 1152.42 3341.58 1142.1 3339.29 1142.1 3339.29 1153.56 3340.44 1154.71 3388.56 1154.71 3389.71 1153.56 3389.71 1105.44 3388.56 1104.29 3340.44 1104.29Z"/><path d="M3362.66 1136.62 3364.05 1138.43 3374.37 1130.41 3374.37 1128.59 3364.05 1120.57 3362.66 1122.38 3370.33 1128.35 3339.29 1128.35 3339.29 1130.65 3370.33 1130.65 3362.66 1136.62Z"/></g></g></g><path d="M3236.5 782.208 3291.06 782.208 3291.06 786.791 3236.5 786.792ZM3286.48 770.75 3313.98 784.5 3286.48 798.25Z" fill="#FF000F"/><path d="M3415.5 782.208 3470.06 782.208 3470.06 786.791 3415.5 786.792ZM3465.48 770.75 3492.98 784.5 3465.48 798.25Z" fill="#FF000F"/><path d="M3595.5 782.208 3650.06 782.208 3650.06 786.791 3595.5 786.792ZM3645.48 770.75 3672.98 784.5 3645.48 798.25Z" fill="#FF000F"/><path d="M2.29167-1.06748e-05 2.29192 54.5597-2.29141 54.5597-2.29167 1.06748e-05ZM13.7502 49.9763 0.000360892 77.4764-13.7498 49.9764Z" fill="#FF000F" transform="matrix(-6.12323e-17 -1 -1 6.12323e-17 3313.98 949.5)"/><path d="M2.29167-1.06748e-05 2.29192 54.5597-2.29141 54.5597-2.29167 1.06748e-05ZM13.7502 49.9763 0.000360892 77.4764-13.7498 49.9764Z" fill="#FF000F" transform="matrix(-6.12323e-17 -1 -1 6.12323e-17 3492.98 949.5)"/><path d="M2.29167-1.06748e-05 2.29192 54.5597-2.29141 54.5597-2.29167 1.06748e-05ZM13.7502 49.9763 0.000360892 77.4764-13.7498 49.9764Z" fill="#FF000F" transform="matrix(-6.12323e-17 -1 -1 6.12323e-17 3672.98 949.5)"/><path d="M3236.5 1127.21 3291.06 1127.21 3291.06 1131.79 3236.5 1131.79ZM3286.48 1115.75 3313.98 1129.5 3286.48 1143.25Z" fill="#FF000F"/><path d="M3415.5 1127.21 3470.06 1127.21 3470.06 1131.79 3415.5 1131.79ZM3465.48 1115.75 3492.98 1129.5 3465.48 1143.25Z" fill="#FF000F"/><path d="M3595.5 1127.21 3650.06 1127.21 3650.06 1131.79 3595.5 1131.79ZM3645.48 1115.75 3672.98 1129.5 3645.48 1143.25Z" fill="#FF000F"/><path d="M3767.5 782.208 3807.5 782.208C3808.77 782.208 3809.79 783.234 3809.79 784.5L3809.79 949.5C3809.79 950.766 3808.77 951.792 3807.5 951.792L3790.42 951.792 3790.42 947.208 3807.5 947.208 3805.21 949.5 3805.21 784.5 3807.5 786.792 3767.5 786.792ZM3795 963.25 3767.5 949.5 3795 935.75Z" fill="#FF000F"/><path d="M3104.58 1131.79 3083.5 1131.79C3082.23 1131.79 3081.21 1130.77 3081.21 1129.5L3081.21 949.5C3081.21 948.234 3082.23 947.208 3083.5 947.208L3127.5 947.208 3127.5 951.792 3083.5 951.792 3085.79 949.5 3085.79 1129.5 3083.5 1127.21 3104.58 1127.21ZM3100 1115.75 3127.5 1129.5 3100 1143.25Z" fill="#FF000F"/></g></svg>