<svg width="48" height="48" xmlns="http://www.w3.org/2000/svg" xmlns:xlink="http://www.w3.org/1999/xlink" xml:space="preserve" overflow="hidden"><g transform="translate(-846 -389)"><path d="M866.5 397.59C866.53 396.92 867.22 396.19 867.45 395.99L866.81 395.22 866.17 394.45C866.01 394.58 864.59 395.81 864.5 397.48 864.46 398.35 864.79 399.18 865.47 399.88 865.86 400.27 865.89 400.57 865.87 400.75 865.83 401.37 865.17 402.03 864.95 402.2L866.18 403.78C866.34 403.65 867.76 402.51 867.87 400.88 867.91 400.27 867.78 399.36 866.9 398.47 866.52 398.08 866.49 397.78 866.5 397.58Z"/><path d="M870.4 397.36C870.43 396.69 871.11 395.96 871.35 395.76L870.71 394.99 870.07 394.22C869.91 394.35 868.49 395.58 868.4 397.25 868.36 398.12 868.69 398.95 869.37 399.65 869.76 400.04 869.79 400.34 869.77 400.52 869.73 401.14 869.07 401.8 868.85 401.97L870.08 403.55C870.24 403.42 871.66 402.28 871.77 400.66 871.81 400.05 871.68 399.14 870.8 398.24 870.42 397.85 870.39 397.55 870.4 397.35Z"/><path d="M874.12 397.36C874.15 396.69 874.83 395.96 875.07 395.76L874.43 394.99 873.79 394.22C873.63 394.35 872.21 395.58 872.12 397.25 872.08 398.12 872.41 398.95 873.09 399.65 873.48 400.04 873.51 400.34 873.49 400.53 873.45 401.15 872.79 401.81 872.57 401.98L873.8 403.56C873.96 403.43 875.38 402.29 875.49 400.67 875.53 400.06 875.4 399.15 874.52 398.25 874.14 397.86 874.11 397.56 874.12 397.36Z"/><path d="M865.88 414.76C865.84 415.38 865.18 416.04 864.96 416.21L866.19 417.79C866.35 417.66 867.77 416.52 867.88 414.89 867.92 414.28 867.79 413.37 866.91 412.48 866.53 412.09 866.5 411.79 866.51 411.59 866.54 410.92 867.23 410.19 867.46 409.99L866.82 409.22 866.18 408.45C866.02 408.58 864.6 409.81 864.51 411.48 864.47 412.35 864.8 413.18 865.48 413.88 865.87 414.27 865.9 414.57 865.88 414.75Z"/><path d="M869.78 414.53C869.74 415.15 869.08 415.81 868.86 415.98L870.09 417.56C870.25 417.43 871.67 416.29 871.78 414.67 871.82 414.06 871.69 413.15 870.81 412.25 870.43 411.86 870.4 411.56 870.41 411.36 870.44 410.69 871.12 409.96 871.36 409.76L870.72 408.99 870.08 408.22C869.92 408.35 868.5 409.58 868.41 411.25 868.37 412.12 868.7 412.95 869.38 413.65 869.77 414.04 869.8 414.34 869.78 414.52Z"/><path d="M873.5 414.53C873.46 415.15 872.8 415.81 872.58 415.98L873.81 417.56C873.97 417.43 875.39 416.29 875.5 414.67 875.54 414.06 875.41 413.15 874.53 412.25 874.15 411.86 874.12 411.56 874.13 411.36 874.16 410.69 874.84 409.96 875.08 409.76L874.44 408.99 873.8 408.22C873.64 408.35 872.22 409.58 872.13 411.25 872.09 412.12 872.42 412.95 873.1 413.65 873.49 414.04 873.52 414.34 873.5 414.53Z"/><path d="M865.88 428.76C865.84 429.38 865.18 430.04 864.96 430.21L866.19 431.79C866.35 431.66 867.77 430.52 867.88 428.89 867.92 428.28 867.79 427.37 866.91 426.48 866.53 426.09 866.5 425.79 866.51 425.59 866.54 424.92 867.23 424.19 867.46 423.99L866.82 423.22 866.18 422.45C866.02 422.58 864.6 423.81 864.51 425.48 864.47 426.35 864.8 427.18 865.48 427.88 865.87 428.27 865.9 428.57 865.88 428.75Z"/><path d="M869.78 428.53C869.74 429.15 869.08 429.81 868.86 429.98L870.09 431.56C870.25 431.43 871.67 430.29 871.78 428.67 871.82 428.06 871.69 427.15 870.81 426.25 870.43 425.86 870.4 425.56 870.41 425.36 870.44 424.69 871.12 423.96 871.36 423.76L870.72 422.99 870.08 422.22C869.92 422.35 868.5 423.58 868.41 425.25 868.37 426.12 868.7 426.95 869.38 427.65 869.77 428.04 869.8 428.34 869.78 428.52Z"/><path d="M873.5 428.53C873.46 429.15 872.8 429.81 872.58 429.98L873.81 431.56C873.97 431.43 875.39 430.29 875.5 428.67 875.54 428.06 875.41 427.15 874.53 426.25 874.15 425.86 874.12 425.56 874.13 425.36 874.16 424.69 874.84 423.96 875.08 423.76L874.44 422.99 873.8 422.22C873.64 422.35 872.22 423.58 872.13 425.25 872.09 426.12 872.42 426.95 873.1 427.65 873.49 428.04 873.52 428.34 873.5 428.53Z"/><path d="M885 391 855 391 854 392 854 434 855 435 885 435 886 434 886 392 885 391ZM856 393 884 393 884 405 856 405 856 393ZM884 419 856 419 856 407 884 407 884 419ZM884 433 856 433 856 421 884 421 884 433Z"/></g></svg>