<svg width="48" height="48" xmlns="http://www.w3.org/2000/svg" xmlns:xlink="http://www.w3.org/1999/xlink" xml:space="preserve" overflow="hidden"><g transform="translate(-688 -547)"><path d="M690 555 692.9 555 698 555.8 698 562.2 692.9 563 690 563 690 565 693 565 693.1 565 699.1 564 700 563 700 555 699.1 554 693.1 553 693 553 690 553 690 555Z" fill="#020203"/><path d="M720.2 576.2 720.7 577 723.9 574.8 724.2 573.6 721.8 568 720.3 567.6 715 571.3 714.9 572.9 719.5 577 720.7 577 720.2 576.2 720.8 575.5 717.2 572.2 720.4 569.9 722.1 573.6 719.6 575.4 720.2 576.2 720.8 575.5Z" fill="#020203"/><path d="M699 558 710.5 558 719.2 569.6 720.8 568.4 711.8 556.4 711 556 699 556 699 558Z" fill="#020203"/><path d="M699 562 708.5 562 715.9 571.9 717.5 570.7 709.8 560.4 709 560 699 560 699 562Z" fill="#020203"/><path d="M721.6 564.9 731.2 568.4 727.3 572.3 727.1 573.5 730.8 579.4 725.2 578 724 579 724 585.3 718.7 579.3 717.3 579.2 713.7 582.1 712 570.8 710 571.2 712 584.2 713.6 584.8 717.8 581.4 724.2 588.7 726 588 726 580.3 732.7 582 733.8 580.5 729.2 573.1 733.7 568.7 733.3 567.1 722.3 563.1 721.6 564.9Z" fill="#020203"/></g></svg>